<?xml version="1.0" standalone="no"?>
<!DOCTYPE svg PUBLIC "-//W3C//DTD SVG 20010904//EN"
 "http://www.w3.org/TR/2001/REC-SVG-20010904/DTD/svg10.dtd">
<svg version="1.0" xmlns="http://www.w3.org/2000/svg"
 width="700.000000pt" height="700.000000pt" viewBox="0 0 700.000000 700.000000"
 preserveAspectRatio="xMidYMid meet">
<metadata>
Created by potrace 1.14, written by Peter Selinger 2001-2017
</metadata>
<g transform="translate(0.000000,700.000000) scale(0.100000,-0.100000)"
fill="#000000" stroke="none">
<path d="M3269 6996 c-2 -2 -42 -6 -89 -10 -47 -3 -96 -8 -110 -10 -14 -3 -47
-7 -75 -11 -97 -12 -342 -64 -465 -100 -374 -109 -749 -290 -1062 -514 -599
-428 -1048 -1032 -1281 -1721 -40 -119 -89 -291 -102 -361 -3 -13 -11 -58 -20
-99 -29 -147 -36 -200 -52 -370 -15 -165 -8 -592 12 -711 2 -13 6 -46 9 -74 9
-78 22 -152 51 -285 21 -96 91 -339 114 -395 5 -11 30 -75 55 -142 54 -140
181 -394 249 -501 26 -40 47 -75 47 -78 0 -2 5 -10 10 -17 6 -7 44 -61 86
-122 137 -198 369 -456 537 -599 63 -53 58 -53 94 5 53 88 200 114 298 54 100
-62 149 -80 210 -79 98 1 136 25 300 187 165 165 204 189 299 190 75 1 139
-27 194 -84 52 -56 129 -92 194 -90 99 2 146 29 313 180 170 153 285 219 415
237 92 12 222 -2 304 -33 47 -18 165 -94 205 -131 14 -13 46 -41 70 -61 25
-20 56 -46 69 -58 65 -60 138 -108 180 -119 92 -23 188 4 253 72 34 35 110 86
139 92 61 12 117 9 165 -9 43 -16 79 -46 201 -165 165 -162 214 -194 300 -194
64 0 103 14 177 61 91 59 188 64 263 13 l37 -25 35 33 c82 78 151 149 212 217
36 41 70 79 76 85 6 6 48 61 94 121 150 197 277 405 383 628 26 53 47 99 47
102 0 2 11 28 24 57 57 127 152 424 182 573 4 18 31 165 39 205 5 29 15 96 21
150 3 30 8 66 10 80 9 47 11 525 3 605 -15 165 -21 220 -24 225 -2 3 -6 30
-10 60 -9 75 -69 337 -98 435 -96 315 -214 578 -380 846 -152 247 -293 424
-516 646 -384 384 -858 674 -1377 843 -109 35 -319 91 -394 104 -32 5 -99 18
-125 23 -11 2 -54 8 -95 13 -41 5 -93 12 -115 15 -47 7 -579 17 -586 11z m436
-2796 c267 -84 452 -286 511 -560 20 -93 12 -256 -16 -345 -71 -223 -220 -387
-431 -472 -33 -13 -68 -26 -77 -28 -10 -2 -37 -8 -62 -14 -74 -17 -255 -7
-335 19 -237 75 -411 244 -489 472 -24 73 -27 95 -31 208 -6 205 60 380 201
525 102 106 259 191 394 214 87 16 254 6 335 -19z"/>
</g>
</svg>
