<?xml version="1.0" standalone="no"?>
<!DOCTYPE svg PUBLIC "-//W3C//DTD SVG 20010904//EN"
 "http://www.w3.org/TR/2001/REC-SVG-20010904/DTD/svg10.dtd">
<svg version="1.0" xmlns="http://www.w3.org/2000/svg"
 width="808.000000pt" height="808.000000pt" viewBox="0 0 808.000000 808.000000"
 preserveAspectRatio="xMidYMid meet">
<metadata>
Created by potrace 1.14, written by Peter Selinger 2001-2017
</metadata>
<g transform="translate(0.000000,808.000000) scale(0.100000,-0.100000)"
fill="#000000" stroke="none">
<path d="M3788 7695 c-1 -2 -43 -6 -93 -9 -49 -4 -106 -9 -125 -11 -19 -3 -55
-7 -80 -9 -25 -2 -56 -6 -70 -10 -14 -3 -43 -8 -65 -10 -22 -3 -53 -8 -70 -11
-16 -3 -41 -8 -54 -10 -177 -31 -454 -103 -626 -165 -33 -11 -64 -22 -70 -24
-5 -2 -19 -7 -30 -11 -11 -4 -54 -21 -95 -37 -111 -44 -130 -52 -310 -141
-193 -95 -265 -136 -455 -262 -119 -78 -325 -235 -428 -325 -94 -81 -334 -331
-397 -411 -19 -24 -43 -53 -53 -64 -72 -82 -212 -287 -320 -470 -34 -58 -185
-370 -197 -408 -7 -22 -18 -51 -26 -65 -8 -15 -14 -34 -14 -43 0 -8 -4 -19 -9
-25 -13 -14 -99 -300 -115 -384 -3 -14 -8 -36 -11 -50 -5 -22 -10 -47 -29
-145 -2 -12 -7 -48 -11 -80 -4 -33 -9 -69 -11 -80 -25 -128 -24 -659 0 -795 3
-14 7 -45 10 -70 6 -52 22 -139 41 -232 16 -81 62 -246 103 -373 60 -184 205
-496 310 -668 23 -37 42 -71 42 -76 0 -5 3 -11 8 -13 10 -4 72 -97 72 -107 0
-5 3 -11 8 -13 4 -1 25 -28 47 -58 203 -284 496 -581 790 -802 160 -120 437
-298 463 -298 6 0 12 -4 14 -9 3 -8 260 -138 343 -173 22 -9 58 -25 80 -34 22
-10 43 -19 48 -20 4 -1 9 -3 12 -4 3 -1 8 -3 13 -4 4 -1 16 -7 27 -13 11 -6
25 -12 30 -13 16 -4 39 -11 60 -20 85 -34 373 -120 449 -134 14 -3 29 -7 33
-9 5 -3 25 -8 46 -11 22 -3 69 -13 105 -20 61 -13 100 -21 172 -32 14 -2 39
-6 55 -9 27 -4 55 -8 170 -21 275 -30 758 -26 1015 11 81 11 128 17 155 20 17
2 30 4 30 5 0 1 11 3 25 6 202 34 491 108 675 174 33 11 65 22 70 24 6 2 23 8
38 14 16 7 30 12 33 12 3 0 21 7 42 17 20 9 39 17 42 17 17 3 165 70 285 130
152 75 444 245 475 276 3 3 34 25 70 50 36 24 70 48 75 52 6 4 35 27 65 50 73
56 101 79 200 166 76 68 215 205 285 283 107 119 116 130 225 269 51 66 190
275 190 288 0 6 5 12 10 12 6 0 10 4 10 10 0 5 15 33 33 62 19 29 56 98 83
153 27 55 53 103 57 106 5 3 8 9 8 13 -1 3 6 23 15 44 8 20 29 71 45 112 16
41 33 84 38 95 13 30 41 110 46 131 3 11 18 64 35 118 17 55 32 109 35 120 2
12 6 32 9 46 3 14 9 41 13 60 9 47 10 50 13 53 1 1 3 16 4 32 2 17 6 44 10 62
9 37 15 80 21 143 2 25 8 77 12 115 10 92 10 478 -1 580 -4 44 -9 94 -11 110
-3 38 -14 106 -31 200 -2 11 -7 36 -10 55 -4 19 -17 78 -31 130 -30 119 -32
126 -37 148 -7 27 -63 194 -77 227 -6 17 -13 35 -15 40 -1 6 -8 24 -15 40 -7
17 -13 32 -14 35 -1 3 -8 19 -15 35 -7 17 -14 32 -14 35 -4 21 -161 323 -208
398 -32 51 -58 97 -58 103 0 5 -4 9 -9 9 -5 0 -13 9 -16 20 -3 11 -12 26 -19
32 -6 7 -27 36 -46 63 -32 48 -150 201 -194 253 -131 153 -396 413 -480 472
-12 8 -25 19 -31 25 -5 6 -30 27 -55 46 -25 18 -49 37 -55 42 -213 164 -589
383 -847 491 -21 9 -53 22 -70 30 -57 24 -250 94 -333 120 -44 13 -91 28 -105
32 -14 5 -27 9 -30 9 -3 1 -17 5 -31 9 -14 4 -34 9 -45 11 -10 2 -19 4 -19 5
0 3 -294 66 -350 74 -22 4 -47 8 -55 11 -15 4 -88 14 -150 20 -19 2 -55 7 -80
10 -25 3 -74 9 -110 12 -74 6 -606 13 -612 8z m472 -2269 c19 -2 57 -7 84 -11
28 -3 53 -8 56 -10 4 -2 22 -7 41 -10 19 -3 57 -13 84 -22 28 -10 52 -18 55
-18 67 -11 385 -176 398 -207 2 -5 8 -8 13 -8 6 0 21 -11 35 -25 14 -14 28
-25 32 -25 13 0 180 -173 227 -235 25 -33 49 -65 55 -72 5 -7 10 -15 10 -19 0
-3 9 -18 20 -34 28 -39 108 -202 116 -236 4 -16 10 -33 14 -39 7 -10 27 -81
35 -123 2 -13 7 -32 10 -42 13 -42 18 -94 20 -250 3 -159 -5 -240 -36 -355 -6
-22 -11 -41 -10 -43 1 -1 -5 -18 -13 -37 -9 -20 -16 -37 -16 -40 -1 -2 -4 -15
-8 -27 -12 -46 -111 -235 -154 -293 -88 -118 -216 -253 -293 -310 -22 -17 -42
-32 -45 -35 -34 -34 -294 -178 -333 -184 -7 -1 -16 -4 -22 -7 -11 -7 -113 -42
-130 -45 -5 -1 -28 -7 -50 -12 -43 -12 -96 -22 -135 -27 -118 -14 -155 -17
-239 -16 -145 0 -281 18 -401 52 -42 12 -51 14 -65 18 -3 0 -7 1 -10 1 -3 0
-19 7 -35 15 -17 9 -30 13 -30 9 0 -4 -6 -1 -13 5 -8 6 -17 8 -20 4 -4 -3 -7
-1 -7 5 0 7 -7 12 -14 12 -8 0 -35 11 -60 24 -26 14 -46 22 -46 20 0 -3 -13 4
-29 15 -16 12 -34 21 -40 21 -6 0 -11 3 -11 8 0 4 -12 13 -27 20 -44 19 -162
110 -236 182 -38 36 -72 67 -78 68 -5 2 -9 8 -9 14 0 6 -11 20 -23 32 -29 27
-137 180 -137 194 0 6 -4 12 -9 14 -12 5 -84 162 -114 248 -29 84 -38 128 -40
182 -1 21 -4 38 -7 38 -7 0 -8 13 -10 150 -2 152 6 222 44 416 9 46 66 203 97
269 69 146 202 312 349 438 92 79 350 233 403 241 7 1 17 4 22 7 9 6 72 28
100 36 24 6 132 34 148 38 22 5 160 24 202 28 42 3 243 -1 285 -7z"/>
</g>
</svg>
