<svg width="140" height="140" viewBox="0 0 140 140" fill="none" xmlns="http://www.w3.org/2000/svg">
<path fill-rule="evenodd" clip-rule="evenodd" d="M24.9182 123.552C25.8231 120.707 29.4974 119.521 32.3326 121.781C34.4683 123.483 37.5433 123.304 39.4669 121.365L43.9771 116.819C46.1112 114.668 49.6238 114.785 51.6097 117.074C53.4893 119.24 56.7662 119.48 58.9407 117.61L64.0412 113.223C68.466 109.418 75.0004 109.394 79.4536 113.166L84.566 117.496C86.7587 119.353 90.0428 119.076 91.8932 116.878C93.8448 114.559 97.3591 114.398 99.5145 116.528L104.212 121.172C106.064 123.003 108.995 123.154 111.027 121.524C113.151 119.819 115.776 120.144 117.206 121.688C131.213 108.888 140 90.4701 140 70C140 31.3401 108.66 0 70 0C31.3401 0 0 31.3401 0 70C0 91.4864 9.68062 110.712 24.9182 123.552ZM84.5947 70.0001C84.5947 78.0611 78.0599 84.5959 69.9989 84.5959C61.9379 84.5959 55.4032 78.0611 55.4032 70.0001C55.4032 61.9391 61.9379 55.4044 69.9989 55.4044C78.0599 55.4044 84.5947 61.9391 84.5947 70.0001Z" fill="#FED900"/>
<path fill-rule="evenodd" clip-rule="evenodd" d="M13.0328 110.688L23.5065 122.33C19.5986 118.856 16.0824 114.95 13.0328 110.688ZM4.64648 44.8693C14.745 18.6244 40.1975 0 70.0001 0C99.5895 0 124.891 18.359 135.135 44.3075C130.011 44.5839 124.955 46.4147 120.715 49.7999C111.481 57.1724 98.3741 57.1724 89.1402 49.7999C79.9062 42.4275 66.7992 42.4275 57.5653 49.7999C48.3314 57.1724 35.193 57.1474 25.9591 49.7749C19.8171 44.8711 11.9408 43.231 4.64648 44.8693Z" fill="#FF6B95"/>
<path d="M119.629 42.4476C118.01 38.4814 111.413 39.2144 111.413 35.4704" stroke="white" stroke-width="4" stroke-linecap="square"/>
<path d="M54.7455 22.3951C48.1666 22.3951 46.1689 26.7814 45.6502 28.1795" stroke="white" stroke-width="4" stroke-linecap="square"/>
<path d="M96.3863 51.0923C94.5538 49.2558 90.8604 48.8591 89.4229 49.2558" stroke="white" stroke-width="4" stroke-linecap="square"/>
<path d="M80.2627 30.1975C80.2627 30.1975 79.1347 29.8008 77.6972 30.1975" stroke="white" stroke-width="4" stroke-linecap="square"/>
</svg>
