<svg viewBox="0 0 115 115" fill="none" xmlns="http://www.w3.org/2000/svg">
<path fill-rule="evenodd" clip-rule="evenodd" d="M57.5 115C89.2564 115 115 89.2564 115 57.5C115 25.7436 89.2564 0 57.5 0C25.7436 0 0 25.7436 0 57.5C0 89.2564 25.7436 115 57.5 115ZM57.4991 69.4895C64.1207 69.4895 69.4885 64.1216 69.4885 57.5001C69.4885 50.8786 64.1207 45.5107 57.4991 45.5107C50.8776 45.5107 45.5098 50.8786 45.5098 57.5001C45.5098 64.1216 50.8776 69.4895 57.4991 69.4895Z" fill="#FED900"/>
<path fill-rule="evenodd" clip-rule="evenodd" d="M0.17041 53.0408C2.44633 23.3683 27.2442 0 57.5001 0C87.2383 0 111.704 22.5756 114.693 51.5236C109.281 50.8523 103.66 52.3135 99.1591 55.9071C91.5741 61.963 80.8076 61.963 73.2226 55.9071C71.8034 54.774 70.2729 53.8529 68.6726 53.1438C66.9294 48.6761 62.5839 45.5107 57.4992 45.5107C50.986 45.5107 45.6858 50.7043 45.5141 57.1761C38.0881 61.9254 28.3356 61.4848 21.3239 55.8866C15.2331 51.0236 7.06601 50.0679 0.17041 53.0408Z" fill="#FF6B95"/>
<path d="M98.2668 34.8678C96.9368 31.6098 91.518 32.2119 91.518 29.1364" stroke="white" stroke-width="4" stroke-linecap="square"/>
<path d="M44.9698 18.396C39.5656 18.396 37.9247 21.999 37.4986 23.1474" stroke="white" stroke-width="4" stroke-linecap="square"/>
<path d="M18.3642 43.7748C16.859 42.2662 13.8251 41.9404 12.6443 42.2662" stroke="white" stroke-width="4" stroke-linecap="square"/>
<path d="M79.1748 41.9686C77.6695 40.4601 74.6356 40.1342 73.4548 40.4601" stroke="white" stroke-width="4" stroke-linecap="square"/>
<path d="M65.9297 24.8052C65.9297 24.8052 65.0031 24.4793 63.8224 24.8052" stroke="white" stroke-width="4" stroke-linecap="square"/>
</svg>
