<svg width="140" height="140" viewBox="0 0 140 140" fill="none" xmlns="http://www.w3.org/2000/svg">
<path fill-rule="evenodd" clip-rule="evenodd" d="M70.5153 0.352783C108.871 0.352783 139.96 31.556 139.96 70.0257C139.96 108.524 108.871 139.699 70.5153 139.699C32.1595 139.699 1.07031 108.524 1.07031 70.0257C1.07031 46.6028 12.5956 25.8738 30.269 13.2415C30.8996 10.0903 32.1609 10.0903 34.2471 10.5995C44.8027 4.10047 57.2226 0.352783 70.5153 0.352783Z" fill="white"/>
<path fill-rule="evenodd" clip-rule="evenodd" d="M18.9579 111.085C27.2831 113.748 34.1143 110.745 38.8103 111.085C55.264 112.168 48.4162 128.102 68.0192 126.495C104.234 117.371 134.175 83.4023 126.662 43.8471C123.779 28.6738 116.938 20.981 113.623 18.2609C114.203 28.2063 110.585 39.3135 115.004 55.181C117.021 62.378 112.904 72.4447 109.589 75.7032C90.1974 94.8008 59.0666 94.8779 39.6473 78.8404C32.3822 72.8901 27.4652 69.8867 29.8409 56.3994C30.6143 52.0358 34.1479 45.0081 34.3965 40.5879C34.5353 38.2704 34.8928 41.0345 34.3965 38.0797C19.1134 36.8255 4.86914 52.4175 4.86914 70.0608C4.86914 91.1985 11.8034 99.9214 18.9579 111.085Z" fill="#FFC5CF"/>
<path d="M114.457 22.5217C113.218 18.2609 110.411 13.062 110.411 13.062C110.411 13.062 128.848 29.3333 134.49 41.8431C138.024 50.3065 139.961 59.6532 139.961 69.4558C139.961 81.5382 136.998 92.9366 131.754 102.882C125.77 105.674 119.444 102.568 114.457 106.729C110.81 109.749 109.727 116.36 106.621 119.979C101.919 125.479 97.1602 122.516 89.8652 124.425C84.5079 125.85 81.2309 129.868 77.0989 132.717C63.8198 141.921 56.0403 127.274 51.139 120.977C40.8804 107.84 36.2925 116.161 20.5627 118.64C14.0002 110.174 12.7828 106.522 13.2417 100.901C16.9747 103.922 19.4303 106.204 33.4219 103.012C36.9269 102.214 41.2224 103.206 44.8414 104.774C84.973 122.206 135.4 95.6104 125.286 43.6384C124.032 37.1983 117.877 25.2288 114.457 22.5217Z" fill="#FF6B95"/>
<path d="M31.4739 14.9272L32.1401 14.451L32.3008 13.6481C32.4366 12.9695 32.5801 12.6056 32.6785 12.4268C32.6795 12.4251 32.6804 12.4234 32.6813 12.4218C32.6943 12.4221 32.7086 12.4227 32.7243 12.4235C32.9423 12.4351 33.2556 12.4904 33.7558 12.6125L34.5965 12.8177L35.3335 12.364C45.5721 6.06007 57.6174 2.42486 70.5153 2.42486C107.72 2.42486 137.888 32.6937 137.888 70.0257C137.888 107.386 107.721 137.627 70.5153 137.627C33.31 137.627 3.14238 107.386 3.14238 70.0257C3.14238 47.2984 14.3227 27.1863 31.4739 14.9272Z" stroke="#FF6B95" stroke-width="4.14414"/>
<path d="M27.3094 12.6609L27.3104 12.6474C27.4401 10.9607 28.0306 9.22719 29.5424 8.11556C31.0404 7.0141 32.8763 6.94225 34.5568 7.28557L34.5695 7.28817L34.5822 7.29091C38.2607 8.08343 43.2868 9.67971 47.9032 11.84C51.8058 13.6662 55.7813 16.0605 58.2557 18.972C58.7024 18.8768 59.1529 18.7786 59.6086 18.6794L59.6087 18.6794C62.3265 18.0874 65.2272 17.4557 68.5896 17.1555C72.9851 16.763 78.2178 16.9141 85.381 18.2367C91.5852 12.4016 100.307 10.7944 106.435 10.5765C106.567 10.5718 106.729 10.5634 106.917 10.5536C108.153 10.4893 110.498 10.3672 112.581 10.8798C113.83 11.1869 115.231 11.77 116.331 12.924C117.483 14.1335 118.087 15.7422 118.087 17.6521C118.087 21.4978 117.468 27.8912 117.104 31.6489L117.104 31.6493C116.989 32.8412 116.899 33.7678 116.863 34.2638C116.742 35.9188 116.559 37.3459 116.408 38.524L116.408 38.5265C116.349 38.9806 116.296 39.3977 116.252 39.7766C116.091 41.1868 116.051 42.1893 116.227 43.2334C116.483 44.7502 116.834 46.3756 117.217 48.1408L117.257 48.324C118.379 53.5002 119.745 59.7954 118.822 65.9677C117.895 72.1648 114.702 78.0842 107.351 82.8531C106.683 86.1586 105.28 88.7871 103.369 90.7901C101.26 93.0015 98.6454 94.3339 96.0124 95.0479C91.1189 96.3749 85.7583 95.6662 82.5289 94.0152L82.5269 94.0158C82.4741 94.0332 82.3828 94.0702 82.2243 94.1543C82.0581 94.2426 81.8756 94.3509 81.6086 94.5104L81.591 94.5208L81.591 94.5209C80.7192 95.0415 79.4582 95.7946 77.5189 96.3101C75.5901 96.8228 73.1142 97.072 69.7349 96.8179L69.6363 96.8104L69.5387 96.7951C67.8341 96.5266 66.1706 95.7923 64.9395 95.2489L64.9394 95.2488C64.5997 95.0989 64.293 94.9635 64.0274 94.8564C62.6175 94.288 61.7491 94.1541 60.8256 94.4866C56.9373 95.8908 51.6147 96.1323 46.9312 94.9359C42.273 93.746 37.5773 90.9255 36.1367 85.6248L36.1337 85.6135L36.1308 85.6023C36.0645 85.3492 36.0057 85.1123 35.9503 84.8892C35.5623 83.3275 35.3406 82.4349 33.9218 81.3067L33.912 81.2988C26.6824 75.4886 23.4295 70.059 22.989 63.917C22.5773 58.1765 24.6992 52.1632 27.0683 45.4496L27.1976 45.0833L27.2994 44.7947C28.1391 42.4172 28.4202 41.1104 28.4817 40.1546C28.5414 39.226 28.4097 38.499 28.1298 37.0794L28.1293 37.0769C27.8695 35.7597 27.5322 34.0488 27.3126 31.4851C26.7269 25.0365 26.906 18.7975 27.3085 12.6745L27.3094 12.6609Z" fill="#FF6B95"/>
<path fill-rule="evenodd" clip-rule="evenodd" d="M31.4182 44.0087C30.3353 48.3971 24.5506 61.6762 28.4546 69.0567C29.5944 71.8209 36.8894 76.2377 40.1665 76.2947C45.8942 76.4372 48.6298 73.1887 54.386 78.6884C57.1501 80.7971 58.4609 81.8515 60.6551 85.271C69.204 86.8098 73.7063 86.5818 82.1412 85.4135C84.3924 81.1676 84.8483 81.5095 88.3533 78.7169C96.3322 71.8208 99.5523 78.4889 106.277 74.4425C118.246 67.233 116.564 60.2514 113.088 48.796C112.319 46.2029 111.122 40.8741 111.407 37.5116C112.005 30.3875 114.143 24.6883 111.407 14.5049C101.12 13.536 91.44 16.3965 84.1644 24.6883C70.2298 19.958 63.2768 22.5226 57.5776 24.3179C52.3409 18.2884 42.9546 13.8554 35.9445 10.7208C33.1239 9.45979 29.6382 9.12185 29.6382 17.0271C28.4984 26.6588 32.729 36.1722 31.4182 44.0087Z" fill="#FED900"/>
<path fill-rule="evenodd" clip-rule="evenodd" d="M29.7385 12.8342C29.3395 18.9039 29.1686 25.002 29.7385 31.2712C29.9466 33.7057 30.264 35.3153 30.519 36.6085C31.0669 39.3869 31.3267 40.7044 29.596 45.6047L29.4942 45.8933C24.5397 59.938 21.5976 68.2781 35.4377 79.401C37.5271 81.0625 37.9264 82.7017 38.325 84.3383C38.3777 84.5543 38.4303 84.7703 38.4868 84.9863C40.7095 93.1646 53.2192 94.6465 60.0013 92.1958C62.2295 91.3936 64.1344 92.2306 66.1343 93.1095C67.3315 93.6355 68.5628 94.1766 69.918 94.39C76.263 94.8672 78.6946 93.415 80.3606 92.42C81.3807 91.8108 82.1139 91.373 83.2826 91.6544C88.3549 94.5895 103.173 94.9314 105.139 81.3673C119.979 72.3702 117.133 59.2425 114.838 48.6567C114.458 46.9042 114.093 45.2214 113.826 43.6385C113.36 40.8727 114.11 38.5517 114.435 34.087C114.602 31.7977 115.653 22.6105 115.653 17.6522C115.653 12.1739 108.957 12.9232 106.522 13.0098C100.294 13.2313 91.7663 14.9459 86.1892 20.8701C72.9878 18.2594 66.5984 19.6507 60.2501 21.0331C59.2535 21.2501 58.2579 21.4669 57.2372 21.668C53.4757 15.8263 41.0799 11.1814 34.0699 9.67114C31.4197 9.12971 29.9379 10.2411 29.7385 12.8342ZM57.2657 25.6574C53.4757 19.0463 39.5411 13.1477 33.9274 11.3809C32.6736 10.982 30.8213 10.8395 30.8213 13.4896C30.7643 19.2743 30.8783 28.3076 32.4171 37.8823C32.9274 41.0504 31.7718 44.4407 30.9037 46.9877C30.6084 47.8541 30.3463 48.6229 30.1944 49.2522C30.0359 49.8946 29.8383 50.5938 29.6265 51.3434C28.3913 55.7141 26.6722 61.7971 29.3965 68.3161C30.9068 71.5646 36.891 76.238 40.168 76.295C46.1522 71.0517 61.0272 76.124 60.6567 85.2712C69.2056 86.81 73.7079 86.5821 82.1428 85.4137C84.8214 74.1008 98.1291 72.391 104.626 75.5826C113.916 69.9973 114.486 59.9952 112.89 51.2184C112.673 50.0052 112.424 48.9986 112.187 48.0384C111.522 45.3448 110.946 43.0157 111.408 37.5118C111.513 36.2465 111.649 34.908 111.79 33.5304C112.376 27.7721 113.032 21.3316 111.722 16.7097C111.158 14.7373 109.787 14.7709 107.497 14.827L107.419 14.8289C98.3285 15.0569 90.8341 17.5361 84.394 25.8569C74.4488 23.2353 68.7211 22.5229 57.2657 25.6574Z" fill="#FF6B95"/>
<path fill-rule="evenodd" clip-rule="evenodd" d="M56.3525 138.758C72.1108 141.294 89.237 138.901 103.884 131.549C115.653 124.966 125.37 114.964 131.753 102.882C125.769 105.674 119.443 102.568 114.456 106.729C110.809 109.749 109.726 116.36 106.62 119.979C101.918 125.479 97.1589 122.516 89.8639 124.425C84.5066 125.85 81.2296 127.433 77.0976 130.282C63.8185 139.487 56.039 127.274 51.1377 120.977C40.9361 107.926 34.5815 114.48 18.9941 116.93C28.6828 127.844 41.677 135.652 56.3525 138.758Z" fill="#FED900"/>
<path fill-rule="evenodd" clip-rule="evenodd" d="M94.823 30.7011C98.157 31.442 102.346 33.0093 105.851 36.0584C106.848 36.9133 108.188 36.8278 108.786 35.403C110.439 31.4135 111.18 24.717 110.41 19.5022C110.268 18.4763 109.584 18.7043 108.843 18.8753C104.398 19.9296 96.6467 25.9993 94.481 28.9914C93.9966 29.6753 94.196 30.5587 94.823 30.7011Z" fill="#FF6B95"/>
<path fill-rule="evenodd" clip-rule="evenodd" d="M39.2258 34.89C42.4744 31.4705 45.552 29.6752 49.342 28.5069C50.7952 28.0509 51.2512 27.3955 50.1968 26.1987C47.2332 22.7792 40.1662 19.2172 35.9203 17.023C33.9256 16.0256 32.9567 16.852 33.1277 18.4193C33.4126 21.3259 33.7261 29.6467 37.2596 34.719C37.801 35.4884 38.371 35.8019 39.2258 34.89Z" fill="#FF6B95"/>
<path fill-rule="evenodd" clip-rule="evenodd" d="M52.8493 54.482L51.7786 51.8572C53.5746 50.9592 55.785 51.65 56.6829 53.4459C57.6154 55.2418 56.8902 57.4522 55.0942 58.3847C53.2983 59.2827 51.1224 58.592 50.1899 56.796C49.81 56.0707 49.7064 55.2764 49.8446 54.482H52.8493Z" fill="black"/>
<path fill-rule="evenodd" clip-rule="evenodd" d="M87.0632 54.1444L85.9925 51.5224C87.7884 50.6254 89.9988 51.3154 90.8968 53.1094C91.8293 54.9034 91.104 57.1114 89.3081 58.0429C87.5121 58.9399 85.3363 58.2499 84.4038 56.4559C84.0239 55.7314 83.9203 54.9379 84.0584 54.1444H87.0632Z" fill="black"/>
<path d="M62.4805 56.767C64.1332 60.0441 69.291 60.0156 70.6873 56.0261C71.8272 60.1296 77.1844 60.4145 78.7802 56.7385" stroke="black" stroke-width="2.5" stroke-linecap="round" stroke-linejoin="bevel"/>
<path d="M44.5857 59.5675C42.705 59.824 41.3657 60.0519 40.0264 60.9353" stroke="#FF6B95" stroke-width="2.5" stroke-linecap="round" stroke-linejoin="bevel"/>
<path d="M44.5645 54.2184C42.9118 53.0501 41.373 52.6227 40.1191 52.5087" stroke="#FF6B95" stroke-width="2.5" stroke-linecap="round" stroke-linejoin="bevel"/>
<path d="M95.2412 59.3113C96.8655 60.2516 98.0338 60.9925 98.9172 62.3319" stroke="#FF6B95" stroke-width="2.5" stroke-linecap="round" stroke-linejoin="bevel"/>
<path d="M96.9443 53.8196C98.9391 53.3921 100.506 53.5916 101.703 53.9336" stroke="#FF6B95" stroke-width="2.5" stroke-linecap="round" stroke-linejoin="bevel"/>
<path d="M30.4595 90.0869C30.1663 96.244 32.5362 99.4935 33.7579 100.349" stroke="white" stroke-width="4" stroke-linecap="square"/>
<path d="M22.356 71.5519C20.5235 69.7154 16.8301 69.3187 15.3926 69.7154" stroke="white" stroke-width="4" stroke-linecap="square"/>
<path d="M120.181 89.3984C118.349 87.562 114.655 87.1653 113.218 87.562" stroke="white" stroke-width="4" stroke-linecap="square"/>
<path d="M85.2518 115.879C83.6327 111.913 77.0359 112.646 77.0359 108.902" stroke="white" stroke-width="4" stroke-linecap="square"/>
<path fill-rule="evenodd" clip-rule="evenodd" d="M86.5578 83.8957C85.8063 86.8049 88.6244 88.6357 91.4156 88.8363C96.6759 89.2125 102.393 86.3786 102.258 81.4128C102.205 79.8078 101.453 78.3281 99.1719 78.0271C94.502 77.4252 87.7655 79.1808 86.5578 83.8957Z" fill="#FED900"/>
<path fill-rule="evenodd" clip-rule="evenodd" d="M55.7548 82.234C53.9473 79.6002 51.0993 78.4606 47.8131 78.0554C41.0215 77.245 39.9809 80.056 40.2 82.4366C40.2821 83.5508 40.556 84.5132 40.9668 85.3236C42.5277 88.4892 46.2247 90.4392 51.0719 90.034C56.3025 89.6035 59.1231 87.2483 55.7548 82.234Z" fill="#FED900"/>
<path d="M42.6084 87.277C42.9788 85.9092 43.8052 84.6839 44.7171 84" stroke="#FF6B95" stroke-width="2.5" stroke-linecap="round" stroke-linejoin="round"/>
<path d="M51.1309 89.7973C51.6153 88.686 51.7863 87.4607 51.6723 86.4348" stroke="#FF6B95" stroke-width="2.5" stroke-linecap="round" stroke-linejoin="round"/>
<path d="M92.0879 89.6024C91.3755 88.4055 91.062 86.9522 91.2045 85.8124" stroke="#FF6B95" stroke-width="2.5" stroke-linecap="round" stroke-linejoin="round"/>
<path d="M100.378 85.5845C99.9503 84.4447 99.1809 83.4758 98.3545 82.8489" stroke="#FF6B95" stroke-width="2.5" stroke-linecap="round" stroke-linejoin="round"/>
</svg>
