<svg width="135" height="135" viewBox="-10 -10 135 135" fill="none" xmlns="http://www.w3.org/2000/svg">
<path fill-rule="evenodd" clip-rule="evenodd" d="M57.5 115C89.2564 115 115 89.2564 115 57.5C115 25.7436 89.2564 0 57.5 0C25.7436 0 0 25.7436 0 57.5C0 89.2564 25.7436 115 57.5 115ZM57.5 69.4893C64.1215 69.4893 69.4893 64.1215 69.4893 57.5C69.4893 50.8784 64.1215 45.5106 57.5 45.5106C50.8784 45.5106 45.5106 50.8784 45.5106 57.5C45.5106 64.1215 50.8784 69.4893 57.5 69.4893Z" fill="#FED900"/>
<path fill-rule="evenodd" clip-rule="evenodd" d="M5.54202 82.161C10.9004 81.6556 16.3638 82.5648 21.3486 84.8833C29.5565 88.7009 39.0566 88.7129 47.2644 84.8953C55.4722 81.0777 64.9466 81.0777 73.1544 84.8953C81.3623 88.7129 90.8367 88.7129 99.0445 84.8953C102.368 83.3494 105.899 82.4296 109.47 82.1356C113.016 74.6686 115 66.316 115 57.5C115 25.7436 89.2564 0 57.5 0C25.7436 0 0 25.7436 0 57.5C0 66.326 1.98854 74.6875 5.54202 82.161ZM69.4893 57.5C69.4893 64.1215 64.1215 69.4893 57.5 69.4893C50.8784 69.4893 45.5106 64.1215 45.5106 57.5C45.5106 50.8784 50.8784 45.5106 57.5 45.5106C64.1215 45.5106 69.4893 50.8784 69.4893 57.5Z" fill="#FFC5CF"/>
<path d="M27.1152 61.4136C26.8743 66.4712 28.8211 69.1405 29.8246 69.8429" stroke="white" stroke-width="4" stroke-linecap="square"/>
<path d="M98.2668 34.8679C96.9368 31.6099 91.518 32.2121 91.518 29.1366" stroke="white" stroke-width="4" stroke-linecap="square"/>
<path d="M44.9708 18.3959C39.5666 18.3959 37.9257 21.9989 37.4996 23.1473" stroke="white" stroke-width="4" stroke-linecap="square"/>
<path d="M18.3642 43.7746C16.859 42.2661 13.8251 41.9402 12.6443 42.2661" stroke="white" stroke-width="4" stroke-linecap="square"/>
<path d="M79.1757 41.9684C77.6705 40.4598 74.6366 40.134 73.4558 40.4598" stroke="white" stroke-width="4" stroke-linecap="square"/>
<path d="M65.9297 24.8054C65.9297 24.8054 65.0031 24.4795 63.8224 24.8054" stroke="white" stroke-width="4" stroke-linecap="square"/>
<path d="M94.7801 71.1435C96.3132 69.6633 96.689 66.6352 96.3826 65.4492" stroke="white" stroke-width="4" stroke-linecap="square"/>
</svg>
