<svg width="1440" height="485" viewBox="0 0 1440 485" fill="none" xmlns="http://www.w3.org/2000/svg">
<path d="M1438 450.336C1427.24 355.933 1233.64 0 1092.74 0C1001.02 0 924.81 114.089 890.422 184.358C823.954 172.233 772.96 167.5 720 168.857C667.04 167.5 616.047 172.233 549.578 184.358C515.19 114.089 438.977 0 347.261 0C206.359 0 12.7594 355.933 2.00179 450.336H1.96721C1.07342 462.476 0.480639 474.7 0.196289 487H1439.8C1439.52 474.7 1438.93 462.476 1438.03 450.336H1438Z" fill="#FED900"/>
<path fill-rule="evenodd" clip-rule="evenodd" d="M370.781 450.562C395.513 450.562 415.562 430.513 415.562 405.781C415.562 381.049 395.513 361 370.781 361C346.049 361 326 381.049 326 405.781C326 430.513 346.049 450.562 370.781 450.562ZM370.597 416.511C376.639 416.511 381.536 411.613 381.536 405.572C381.536 399.531 376.639 394.633 370.597 394.633C364.556 394.633 359.658 399.531 359.658 405.572C359.658 411.613 364.556 416.511 370.597 416.511Z" fill="#FF6B95"/>
<path fill-rule="evenodd" clip-rule="evenodd" d="M1069.78 450.562C1094.51 450.562 1114.56 430.513 1114.56 405.781C1114.56 381.049 1094.51 361 1069.78 361C1045.05 361 1025 381.049 1025 405.781C1025 430.513 1045.05 450.562 1069.78 450.562ZM1069.6 416.511C1075.64 416.511 1080.54 411.613 1080.54 405.572C1080.54 399.531 1075.64 394.633 1069.6 394.633C1063.56 394.633 1058.66 399.531 1058.66 405.572C1058.66 411.613 1063.56 416.511 1069.6 416.511Z" fill="#FF6B95"/>
<path fill-rule="evenodd" clip-rule="evenodd" d="M717.737 386C715.658 400.342 702.966 418.69 683.586 434.49C664.288 450.223 638.715 463.125 611.449 466.805C578.92 471.195 558.834 472.099 542.72 471.463C531.63 471.026 522.444 469.865 512.293 468.583C507.635 467.994 502.774 467.38 497.433 466.799L497 470.775C502.192 471.341 506.98 471.945 511.607 472.529L511.607 472.53C521.849 473.823 531.297 475.016 542.563 475.46C558.982 476.108 579.313 475.179 611.984 470.769C640.11 466.973 666.352 453.7 686.113 437.59C702.809 423.979 715.137 408.122 719.891 393.973C721.658 399.817 724.765 405.912 728.935 411.979C734.942 420.718 743.234 429.512 753.178 437.563C773.056 453.656 799.703 466.912 828.28 470.769C860.951 475.179 881.282 476.108 897.701 475.46C908.967 475.016 918.415 473.823 928.657 472.53L928.657 472.53C933.284 471.945 938.073 471.341 943.264 470.775L942.831 466.799C937.49 467.38 932.629 467.994 927.972 468.583L927.971 468.583C917.82 469.865 908.634 471.026 897.544 471.463C881.43 472.099 861.344 471.195 828.815 466.805C801.075 463.061 775.097 450.162 755.695 434.454C745.999 426.604 737.986 418.085 732.231 409.713C726.461 401.319 723.038 393.187 722.347 386.093L719.974 386.324L717.737 386Z" fill="#FF6B95"/>
<circle cx="719.5" cy="383.5" r="10.5" fill="#FF6B95"/>
</svg>
