<svg width="14" height="15" viewBox="0 0 14 15" fill="none" xmlns="http://www.w3.org/2000/svg">
<path fill-rule="evenodd" clip-rule="evenodd" d="M7.00013 1C7.20198 1 7.38403 1.12137 7.46167 1.30769L9.4168 6H11C11.2761 6 11.5 6.22386 11.5 6.5C11.5 6.77614 11.2761 7 11 7H9.83346L10.2501 8H12C12.2761 8 12.5 8.22386 12.5 8.5C12.5 8.77614 12.2761 9 12 9H10.6668L12.4617 13.3077C12.5679 13.5626 12.4473 13.8553 12.1924 13.9615C11.9375 14.0677 11.6448 13.9472 11.5386 13.6923L9.58346 9L4.4168 9L2.46167 13.6923C2.35546 13.9472 2.06272 14.0677 1.80782 13.9615C1.55292 13.8553 1.43238 13.5626 1.53859 13.3077L3.33346 9H2C1.72386 9 1.5 8.77614 1.5 8.5C1.5 8.22386 1.72386 8 2 8H3.75013L4.1668 7H3C2.72386 7 2.5 6.77614 2.5 6.5C2.5 6.22386 2.72386 6 3 6H4.58346L6.53859 1.30769C6.61623 1.12137 6.79828 1 7.00013 1ZM4.83346 8H9.1668L8.75013 7L5.25013 7L4.83346 8ZM7.00013 2.8L8.33346 6L5.6668 6L7.00013 2.8Z" fill="#828587"/>
</svg>
