<svg width="14" height="14" viewBox="0 0 40 41" xmlns="http://www.w3.org/2000/svg">
    <path
      fillRule="evenodd"
      clipRule="evenodd"
      d="M20.0003 0.857178C21.0095 0.857178 21.9198 1.46402 22.308 2.39564L27.6193 15.1429H31.4289C32.8096 15.1429 33.9289 16.2622 33.9289 17.6429C33.9289 19.0236 32.8096 20.1429 31.4289 20.1429H29.7027L31.1908 23.7143H37.1431C38.5238 23.7143 39.6431 24.8336 39.6431 26.2143C39.6431 27.595 38.5238 28.7143 37.1431 28.7143H33.2741L36.5937 36.6814C37.1247 37.9559 36.522 39.4195 35.2475 39.9506C33.973 40.4816 32.5093 39.8789 31.9783 38.6044L27.8574 28.7143H12.1431L8.02226 38.6044C7.49121 39.8789 6.02753 40.4816 4.75303 39.9506C3.47852 39.4195 2.87583 37.9559 3.40687 36.6814L6.72647 28.7143H2.85742C1.47671 28.7143 0.357422 27.595 0.357422 26.2143C0.357422 24.8336 1.47671 23.7143 2.85742 23.7143H8.8098L10.2979 20.1429H8.57171C7.191 20.1429 6.07171 19.0236 6.07171 17.6429C6.07171 16.2622 7.191 15.1429 8.57171 15.1429H12.3812L17.6926 2.39564C18.0808 1.46402 18.991 0.857178 20.0003 0.857178ZM14.2265 23.7143H25.7741L24.286 20.1429H15.7146L14.2265 23.7143ZM20.0003 9.85718L22.2027 15.1429H17.7979L20.0003 9.85718Z"
    />
</svg>