<svg viewBox="0 0 32 32" fill="none" xmlns="http://www.w3.org/2000/svg">
<g id="Name=close">
<g id="Vector">
<path d="M16.3333 13.3708L25.5257 4.17851C26.1765 3.52764 27.2318 3.52764 27.8827 4.17851L28.4882 4.78399C29.139 5.43486 29.139 6.49013 28.4882 7.14101L19.2958 16.3333L28.4882 25.5257C29.139 26.1765 29.139 27.2318 28.4882 27.8827L27.8827 28.4882C27.2318 29.139 26.1765 29.139 25.5257 28.4882L16.3333 19.2958L7.14101 28.4882C6.49014 29.139 5.43486 29.139 4.78399 28.4882L4.17851 27.8827C3.52764 27.2318 3.52764 26.1765 4.17851 25.5257L13.3708 16.3333L4.17851 7.14101C3.52764 6.49014 3.52764 5.43486 4.17851 4.78399L4.78399 4.17851C5.43486 3.52764 6.49013 3.52764 7.14101 4.17851L16.3333 13.3708Z" fill="#fff"/>
</g>
</g>
</svg>
