<svg viewBox="0 0 32 33" fill="none" xmlns="http://www.w3.org/2000/svg">
<g id="flint">
<g id="flint_2">
<path id="Vector" d="M8.11683 9.98834L16.5524 1.43462C17.1302 0.802918 17.3356 0.864548 17.5334 1.5887L17.6078 7.70033C17.5873 8.65303 17.518 9.06646 17.2303 9.45678L12.1099 14.7287C11.4397 15.5581 11.5321 15.8868 11.5065 16.2566C11.4808 16.6264 12.1587 17.7023 13.304 17.7974C13.304 17.7974 16.4394 17.7974 16.7681 17.7974C17.0968 17.7974 17.3305 18.3289 16.7681 18.8682L9.69866 25.9608C8.823 26.7851 8.32739 26.7825 7.4389 26.4949C6.07534 25.7322 6.05222 25.026 6.00343 23.796V15.951C5.95978 13.4679 6.31415 12.1428 8.11683 9.98834Z" fill="#ff6100"/>
<path id="Vector_2" d="M23.3936 24.0093L14.7012 32.5656C14.108 33.1973 13.8949 33.1356 13.692 32.4115L13.615 26.2999C13.6355 25.3472 13.7074 24.9363 14.0027 24.5434L19.2798 19.2715C19.9706 18.442 19.8756 18.1134 19.9012 17.7307C19.9269 17.3481 19.2284 16.285 18.0369 16.19H14.4778C14.1388 16.19 13.9 15.6584 14.4778 15.1192L21.763 8.03943C22.6669 7.21513 23.1779 7.2177 24.0921 7.50531C25.4942 8.27568 25.5198 8.97415 25.5635 10.2042V18.0492C25.6148 20.5323 25.2476 21.8574 23.3936 24.0093Z" fill="#ff6100"/>
</g>
</g>
</svg>
