<svg width="49" height="48" viewBox="0 0 49 48" fill="none" xmlns="http://www.w3.org/2000/svg">
<g clip-path="url(#clip0_423_1252)">
<path d="M44.4413 0.0040965H3.54123C3.08113 -0.00149623 2.62444 0.0837188 2.19732 0.254863C1.7702 0.426007 1.38103 0.679719 1.05209 1.00147C0.723153 1.32322 0.460912 1.7067 0.280379 2.12994C0.0998459 2.55318 0.00456736 3.00787 0 3.46799V44.5338C0.0109285 45.4626 0.390123 46.3492 1.05429 46.9987C1.71845 47.6482 2.61326 48.0075 3.54215 47.9977H44.4413C45.3726 48.0102 46.2708 47.6523 46.9383 47.0028C47.6059 46.3532 47.9881 45.4651 48.0009 44.5338V3.46062C47.9876 2.52986 47.6051 1.64251 46.9375 0.993778C46.2699 0.345042 45.372 -0.0119475 44.4413 0.00133434" fill="#97DFFF"/>
<path fill-rule="evenodd" clip-rule="evenodd" d="M31.5564 48.0006C28.7491 48.0006 26.2879 48.0006 23.2861 48.0006C21.3487 48.0006 19.543 48.0006 17.3551 48.0006C17.3548 47.5296 17.3606 46.1384 17.3551 45.5456C17.3487 44.8557 17.3406 43.9986 17.334 43.0159C10.0854 44.357 8.39312 39.1689 8.32368 38.9457C7.17027 35.9745 5.5841 35.217 5.57949 35.2148L5.51997 35.1808C1.86659 32.6364 5.94652 32.6891 5.95806 32.6892H5.98611C8.84352 32.8941 10.3656 35.5789 10.4486 35.729C11.3175 37.2454 12.3859 37.9935 13.4477 38.3024C14.9879 38.7505 16.5412 38.2972 17.4586 37.9107C17.5859 37.1441 17.7955 36.4811 18.0571 35.9196C18.2334 35.5413 18.4339 35.2077 18.6495 34.918C15.8815 34.5177 13.1075 33.7004 10.9405 31.8413C8.53609 29.7786 6.90646 26.4651 6.90646 21.0767C6.90668 19.5699 7.16434 18.1972 7.63136 16.9569C8.09422 15.7275 8.76506 14.6261 9.60035 13.651C9.44057 13.1882 9.21864 12.3816 9.14855 11.3138C9.06289 10.0078 9.20266 8.30389 9.96085 6.35028L9.97834 6.31464C9.97834 6.31464 10.308 6.02799 10.7732 6.00401C11.0802 5.98818 11.5434 6.0046 12.1686 6.13343C13.3862 6.3843 15.2513 7.0724 17.826 8.82423C18.8433 8.54554 19.8932 8.33376 20.9582 8.18774C22.1105 8.02983 23.2839 7.94881 24.4556 7.94352H24.4591C25.6296 7.94881 26.8016 8.02987 27.9532 8.1877C29.0186 8.33376 30.0696 8.54572 31.0887 8.82441C36.2645 5.30193 38.6496 6.07883 38.6567 6.08091L38.8652 6.14392L38.9455 6.35028C39.7067 8.30648 39.8478 10.0088 39.7629 11.312C39.6933 12.3796 39.4722 13.1858 39.3131 13.649C40.1479 14.6217 40.8167 15.7217 41.2785 16.9506C41.7465 18.1959 42.0017 19.5709 42.0017 21.0767C42.0017 26.4801 40.3697 29.792 37.9606 31.8474C35.792 33.6976 33.0146 34.5043 30.2407 34.8978C30.565 35.3301 30.8566 35.8621 31.0843 36.4955C31.3907 37.3481 31.5828 38.3867 31.5828 39.6145C31.5828 41.8051 31.5669 44.0844 31.5564 45.5935C31.5549 45.8067 31.5564 46.6533 31.5564 48.0006ZM9.17929 36.6824C9.37019 36.7024 9.51058 36.8607 9.49296 37.036C9.4753 37.2113 9.30628 37.3373 9.11542 37.3174C8.92452 37.2974 8.78412 37.1391 8.80174 36.9638C8.81941 36.7885 8.98843 36.6625 9.17929 36.6824ZM9.89905 38.5722C9.91667 38.3969 10.0857 38.2709 10.2766 38.2909C10.4675 38.3108 10.6079 38.4692 10.5902 38.6445C10.5726 38.8198 10.4036 38.9458 10.2127 38.9258C10.0218 38.9059 9.88143 38.7476 9.89905 38.5722ZM7.40524 34.2212C7.59615 34.2412 7.73654 34.3995 7.71892 34.5748C7.70125 34.7501 7.53223 34.8761 7.34137 34.8561C7.15047 34.8362 7.01008 34.6778 7.0277 34.5026C7.04536 34.3272 7.21438 34.2013 7.40524 34.2212ZM8.3278 35.2701C8.5187 35.29 8.65909 35.4483 8.64147 35.6237C8.62381 35.7989 8.45478 35.925 8.26392 35.905C8.07307 35.8851 7.93263 35.7267 7.95029 35.5514C7.96792 35.3761 8.13694 35.2501 8.3278 35.2701ZM11.7555 39.4005C11.9464 39.4204 12.0868 39.5788 12.0692 39.7541C12.0515 39.9294 11.8825 40.0554 11.6916 40.0354C11.5007 40.0155 11.3604 39.8572 11.378 39.6818C11.3956 39.5066 11.5647 39.3805 11.7555 39.4005ZM13.8832 39.9913C14.0741 40.0112 14.2145 40.1696 14.1969 40.3448C14.1792 40.5202 14.0102 40.6461 13.8193 40.6262C13.6284 40.6063 13.488 40.4479 13.5056 40.2726C13.5233 40.0973 13.6923 39.9713 13.8832 39.9913ZM15.8495 39.8284C16.0404 39.8483 16.1808 40.0066 16.1632 40.182C16.1455 40.3572 15.9765 40.4832 15.7856 40.4633C15.5947 40.4433 15.4543 40.285 15.472 40.1097C15.4896 39.9344 15.6586 39.8084 15.8495 39.8284Z" fill="#4757E6"/>
</g>
<defs>
<clipPath id="clip0_423_1252">
<rect width="48.0018" height="48" fill="white"/>
</clipPath>
</defs>
</svg>
