<svg width="32" height="32" viewBox="0 0 32 32" fill="none" xmlns="http://www.w3.org/2000/svg">
<g id="08xq00ca6mphmm11jx211b6q2l3s0amwqa66zvvsvvnxxni0wg5s-lode 1" clip-path="url(#clip0_1895_13440)">
<g id="g7">
<path id="path3320" d="M16.2365 7.73168C15.5432 8.61738 14.8923 9.53902 14.219 10.4412C12.8834 12.2666 11.5317 14.0811 10.2187 15.9226C10.1131 16.0738 10.341 16.2431 10.4503 16.0904C11.7139 14.9985 12.9447 13.8695 14.2013 12.7696C13.9465 13.6416 13.7269 14.5309 13.318 15.3476C13.1962 15.6393 13.0401 15.9202 12.9388 16.2186C12.935 16.3842 13.1521 16.3885 13.2297 16.2755C13.5588 15.9823 13.87 15.6696 14.1904 15.3671C14.8932 15.3018 15.6004 15.266 16.3001 15.176C16.4802 15.0617 16.2909 14.8615 16.2555 14.7181C16.0583 14.2553 15.848 13.7983 15.6499 13.3359C16.2403 12.9622 16.8639 12.6262 17.4517 12.2497C17.5516 12.0985 17.4306 11.8932 17.4366 11.7212C17.3843 11.3334 17.33 10.9459 17.2801 10.5578C18.2331 11.5051 19.1403 12.5053 20.1101 13.4388C20.211 13.573 20.4466 13.4492 20.3479 13.2912C19.0506 11.4375 17.7382 9.59399 16.4116 7.76125C16.3595 7.70971 16.3029 7.70024 16.2365 7.73168Z" fill="white"/>
<path id="path3398" d="M15.8877 1.55794C13.0818 1.58862 10.2775 2.42649 7.9586 4.01726C5.55496 5.62159 3.65978 7.96595 2.58876 10.6496C1.75902 12.7207 1.41606 14.9901 1.61095 17.2132C1.5961 17.3587 1.76465 17.4934 1.87871 17.3603C3.58704 15.9807 5.2756 14.569 6.98993 13.2015C7.9332 13.7865 8.84421 14.4341 9.80662 14.9911C10.0024 15.0263 10.0612 14.7548 10.18 14.6472C12.1804 11.894 14.1661 9.13004 16.1756 6.38335C18.3592 9.36389 20.5035 12.3721 22.6749 15.3618C22.8374 15.5013 23.0138 15.2832 23.147 15.201C24.4547 14.169 25.729 13.0953 27.0389 12.066C28.1007 13.0332 29.1038 14.0724 30.1701 15.0376C30.3023 15.1517 30.4474 14.9779 30.3939 14.8404C30.1266 11.349 28.5149 7.99014 25.9821 5.57584C23.3049 2.99115 19.6096 1.5175 15.8877 1.55794Z" fill="white"/>
<path id="path3437" d="M27.0375 12.8743C26.4648 13.245 25.9448 13.696 25.3975 14.104C24.4525 14.8463 23.4828 15.5586 22.5546 16.3216C22.4074 16.4297 22.5624 16.6461 22.7154 16.5626C23.4622 16.3777 24.2055 16.1577 24.9465 15.9647C24.709 16.2951 24.4436 16.6071 24.2261 16.9509C24.1782 17.1072 24.3774 17.1668 24.482 17.0805C25.353 16.7149 26.2098 16.3165 27.0807 15.9506C27.7396 16.4599 28.3542 17.0267 29.0187 17.5274C29.1766 17.5919 29.2647 17.3802 29.1666 17.2688C28.991 16.9014 28.8336 16.5222 28.6404 16.1649C28.2 15.7764 27.7514 15.3973 27.3046 15.0162C27.5636 14.9838 27.8398 15.0234 28.0868 14.9412C28.1873 14.7688 27.9834 14.6009 27.9413 14.435C27.6874 13.9304 27.4821 13.3968 27.1809 12.9182C27.1451 12.8751 27.0908 12.8637 27.0375 12.8743Z" fill="white"/>
<path id="path3476" d="M17.6846 11.3113C17.4982 11.4004 17.6396 11.628 17.6436 11.7781C17.6776 11.9585 17.7238 12.137 17.7447 12.3196C17.2256 12.6489 16.6793 12.9417 16.1657 13.2747C16.0562 13.4236 16.2397 13.6005 16.267 13.7557C16.6663 14.7601 17.0715 15.7621 17.4742 16.7652C16.7186 18.2026 15.9631 19.64 15.2077 21.0774C14.6894 21.3086 14.1712 21.5399 13.6529 21.7711C13.4559 21.6782 13.2617 21.5294 13.0327 21.6072C12.79 21.6485 12.5325 21.6342 12.2995 21.7116C12.0207 21.9435 11.7567 22.2009 11.469 22.4173C11.1359 22.548 10.7774 22.6305 10.4658 22.8083C10.3329 22.9407 10.5217 23.1193 10.6678 23.0425C11.0794 22.931 11.5004 22.8301 11.898 22.6824C12.0967 22.4706 12.2836 22.2521 12.4875 22.0453C12.8498 22.1246 13.2068 22.2517 13.5725 22.3011C14.0146 22.1685 14.455 22.0301 14.8993 21.9047C15.0393 23.0136 15.1461 24.1317 15.2907 25.2404C15.7125 26.0884 16.1459 26.9379 16.5553 27.7873C16.189 28.2894 15.8235 28.7931 15.4136 29.2627C15.248 29.3445 15.2664 29.5401 15.4173 29.6266C15.7249 29.926 15.9923 30.2734 16.3314 30.5376C16.478 30.6206 16.6099 30.4053 16.4881 30.2982C16.2967 29.9998 16.0569 29.7124 15.8831 29.4159C16.371 28.8115 16.8944 28.2311 17.3748 27.6243C17.4239 27.4544 17.2341 27.314 17.1808 27.1595C16.784 26.4383 16.3462 25.7377 15.9903 24.9951C15.908 23.8954 15.8113 22.7969 15.7212 21.6978C16.1113 21.1704 16.5015 20.643 16.8916 20.1156C17.1754 20.3903 17.4271 20.7094 17.7307 20.9566C18.1405 20.9721 18.5632 20.9165 18.978 20.9048C19.2744 20.8935 19.5779 20.8633 19.8686 20.8649C20.142 21.0744 20.4065 21.2934 20.6482 21.54C20.8254 22.1702 20.9426 22.8183 21.1418 23.4415C21.222 23.5861 21.4598 23.4971 21.4177 23.3351C21.3914 22.9927 21.3526 22.651 21.3018 22.3114C21.4722 22.2416 21.6417 22.1252 21.828 22.2147C22.0641 22.2453 22.2984 22.3534 22.5358 22.3314C22.7868 22.1724 23.0768 22.0609 23.2968 21.859C23.39 21.7082 23.1828 21.5729 23.0568 21.6732C22.868 21.7403 22.6836 21.8694 22.4949 21.9024C22.2067 21.8143 21.9323 21.6481 21.6348 21.6126C21.516 21.6548 21.3939 21.7131 21.2757 21.7441C21.1954 21.54 21.1973 21.2901 21.0622 21.1095C20.7472 20.8534 20.446 20.5732 20.1226 20.3319C19.8519 20.2915 19.566 20.3592 19.2897 20.3588C18.8434 20.3858 18.3972 20.4128 17.9509 20.4398C17.6853 20.1826 17.4139 19.9341 17.1597 19.6683C17.6236 18.7243 18.1509 17.8106 18.5831 16.8517C18.5402 16.5517 18.3825 16.2696 18.2947 15.977C18.0091 15.185 17.7133 14.397 17.4447 13.5989C17.8139 13.2754 18.2463 13.0242 18.59 12.6731C18.6486 12.512 18.5344 12.3387 18.5278 12.1739C18.5049 11.9078 18.2295 11.7801 18.0757 11.5887C17.9528 11.4991 17.853 11.3029 17.6846 11.3113Z" fill="#E4C21E"/>
<path id="path3515" d="M6.96451 13.8388C6.04001 14.5651 5.15323 15.342 4.24506 16.0898C3.75591 16.5075 3.24702 16.9048 2.77689 17.3435C2.68181 17.482 2.87096 17.6199 2.99737 17.5402C4.13176 17.2372 5.26967 16.9474 6.40726 16.6566C5.97367 16.9464 5.5148 17.2043 5.10222 17.5225C5.00621 17.6873 5.22086 17.7584 5.34689 17.7542C6.67371 17.9215 8.0056 18.0569 9.3355 18.1907C9.50863 18.1564 9.45128 17.9484 9.36568 17.8551C8.61428 16.5359 7.87245 15.2112 7.12061 13.8922C7.07227 13.8382 7.03557 13.8262 6.96451 13.8388Z" fill="white"/>
</g>
<path id="path172" d="M27.0507 11.8987L22.8015 15.356L16.1756 6.1812L9.84592 14.9262L6.97474 13.0521L1.73092 17.3494C1.68918 16.9051 1.66685 16.4551 1.66685 16C1.66685 8.09665 8.09678 1.66698 16 1.66698C23.5802 1.66698 29.8036 7.58189 30.3001 15.0386L27.0507 11.8987ZM27.104 15.8106L24.2413 17.0786L25.2361 15.765L22.4216 16.5428L27.104 12.9205L28.0238 14.8659L27.0217 14.9196L28.5561 16.2271L29.1821 17.5495L27.104 15.8106ZM17.3859 12.1726L15.5047 13.2861L16.3024 15.0804L14.1488 15.2588L12.9701 16.3862L13.7933 14.5592L14.424 12.4145L10.0588 16.3159L16.3024 7.76163L20.6074 13.8329L17.2245 10.33L17.1312 10.2825L17.3859 12.1726ZM22.4787 22.2392L21.6264 22.0586L21.18 22.2412L21.4329 24.2546L21.4531 24.3373L21.4537 24.4216L21.4329 24.2546L20.7526 21.4775L19.9327 20.7434L17.7377 20.8542L16.8915 19.952L16.8796 19.9497L15.6072 21.6706L15.8899 25.1038L17.2899 27.5718L15.7338 29.4157L16.8063 30.924L15.5106 29.5677L15.3839 29.435L15.6069 29.2374L16.6926 27.7989L15.3907 25.2104L15.0007 21.7541L13.5359 22.1978L12.4404 21.922L11.8278 22.6049L8.77838 23.4706L11.5368 22.5117L12.3729 21.7927L13.2522 21.6952L13.646 21.8936L15.2829 21.1647L17.5936 16.7709L17.1526 15.6743L16.9543 15.1809L16.8232 14.855L16.2216 13.3589L17.8772 12.3718L17.6662 11.3417L18.3842 12.0387L18.512 12.6424L17.2959 13.5554L18.4975 16.8531L17.0146 19.6912L17.918 20.5549L20.0725 20.4209L21.0215 21.2172L21.1993 21.8963L21.6777 21.7132L22.5239 22.03L24.1013 21.3188L22.4787 22.2392ZM2.72667 17.4992L7.01356 13.9169L9.36839 18.0831L5.08136 17.6302L7.07392 16.3623L2.72667 17.4992ZM32 16C32 7.16339 24.8366 1.90735e-06 16 1.90735e-06C7.16339 1.90735e-06 0 7.16339 0 16C0 24.8365 7.16339 32 16 32C18.0043 32 19.9218 31.6303 21.69 30.9573C21.7204 30.9458 21.7509 30.9345 21.7812 30.9228C21.8524 30.8951 21.9234 30.8667 21.9942 30.8381C22.0538 30.8141 22.1133 30.79 22.1726 30.7652C22.2158 30.7471 22.259 30.7287 22.302 30.7102C22.3889 30.6731 22.4751 30.6353 22.561 30.5968C22.5783 30.5891 22.5956 30.5812 22.6129 30.5734C27.9617 28.151 31.7402 22.8713 32 16.6812L31.9851 16.6668C31.9942 16.4456 32 16.2235 32 16Z" fill="black"/>
</g>
<defs>
<clipPath id="clip0_1895_13440">
<rect width="32" height="32" fill="white"/>
</clipPath>
</defs>
</svg>
