<svg width="283" height="40" viewBox="0 0 283 40" fill="none" xmlns="http://www.w3.org/2000/svg">
<g filter="url(#filter0_i_554_945)">
<path d="M280.012 35.7163H269.006V2.99463H280.012V35.7163Z" fill="#FF6B95"/>
<path fill-rule="evenodd" clip-rule="evenodd" d="M173.352 4.74445C179.77 4.10933 184.623 3.79177 187.91 3.79177C191.196 3.79177 193.797 4.03156 195.713 4.51114C197.641 4.99072 199.226 5.73601 200.468 6.74702C202.875 8.71719 204.078 11.9511 204.078 16.4488C204.078 18.4708 203.697 20.3243 202.933 22.0093C202.17 23.6944 201.128 25.1396 199.808 26.345C198.488 27.5504 196.942 28.4902 195.169 29.1642C193.396 29.8382 191.501 30.1752 189.482 30.1752L186.027 30.0974V35.7163H173.352V4.74445ZM190.841 11.8604C189.728 11.8604 188.097 12.6316 185.949 14.174V21.5038L188.22 20.3956C189.721 19.6568 190.769 18.9504 191.365 18.2764C192.478 17.0191 193.034 15.7683 193.034 14.524C193.034 13.2797 192.613 12.4566 191.772 12.0548C191.501 11.9252 191.19 11.8604 190.841 11.8604Z" fill="#FF6B95"/>
<path fill-rule="evenodd" clip-rule="evenodd" d="M220.267 36.4356C216.566 36.4356 213.376 35.2626 210.697 32.9166C207.838 30.4279 206.408 27.2977 206.408 23.5259C206.408 19.7411 207.747 16.6497 210.426 14.2518C213.104 11.8409 216.411 10.6355 220.344 10.6355C224.278 10.6355 227.584 11.815 230.263 14.174C232.942 16.5201 234.287 19.6633 234.3 23.6036C234.313 26.1311 233.673 28.367 232.379 30.3113C231.085 32.2555 229.357 33.7591 227.196 34.8219C225.035 35.8848 222.725 36.4227 220.267 36.4356ZM224.032 18.4319C223.774 18.3023 223.437 18.2375 223.023 18.2375C222.622 18.2375 222.175 18.3606 221.684 18.6069C221.192 18.8402 220.707 19.1643 220.228 19.579C219.219 20.4604 218.371 21.5298 217.685 22.787C216.999 24.0443 216.656 25.2044 216.656 26.2672C216.656 27.3171 217.058 28.0235 217.86 28.3865C218.145 28.5161 218.494 28.5809 218.908 28.5809C219.322 28.5809 219.756 28.4578 220.208 28.2115C220.661 27.9523 221.114 27.6088 221.567 27.181C222.512 26.2867 223.34 25.2044 224.052 23.9341C224.763 22.6509 225.119 21.5038 225.119 20.4928C225.119 19.4818 224.757 18.7949 224.032 18.4319Z" fill="#FF6B95"/>
<path fill-rule="evenodd" clip-rule="evenodd" d="M241.521 32.9166C244.2 35.2626 247.389 36.4356 251.09 36.4356C253.549 36.4227 255.859 35.8848 258.02 34.8219C260.181 33.7591 261.908 32.2555 263.202 30.3113C264.496 28.367 265.137 26.1311 265.124 23.6036C265.111 19.6633 263.765 16.5201 261.087 14.174C258.408 11.815 255.102 10.6355 251.168 10.6355C247.234 10.6355 243.928 11.8409 241.249 14.2518C238.571 16.6497 237.231 19.7411 237.231 23.5259C237.231 27.2977 238.661 30.4279 241.521 32.9166ZM253.847 18.2375C254.261 18.2375 254.597 18.3023 254.856 18.4319C255.581 18.7949 255.943 19.4818 255.943 20.4928C255.943 21.5038 255.587 22.6509 254.875 23.9341C254.164 25.2044 253.335 26.2867 252.391 27.181C251.938 27.6088 251.485 27.9523 251.032 28.2115C250.579 28.4578 250.146 28.5809 249.732 28.5809C249.318 28.5809 248.968 28.5161 248.683 28.3865C247.881 28.0235 247.48 27.3171 247.48 26.2672C247.48 25.2044 247.823 24.0443 248.509 22.787C249.195 21.5298 250.042 20.4604 251.052 19.579C251.53 19.1643 252.016 18.8402 252.507 18.6069C252.999 18.3606 253.445 18.2375 253.847 18.2375Z" fill="#FF6B95"/>
<path d="M164.421 25.7916C163.895 25.6677 163.317 25.608 162.682 25.6124C160.883 25.6124 159.381 26.2472 158.179 27.5178C156.976 28.7879 156.374 30.1874 156.374 31.7174C156.374 33.2336 156.827 34.4971 157.733 35.5085C158.637 36.5067 160.036 37.0056 161.925 37.0056C163.814 37.0182 165.329 36.4091 166.467 35.178C167.606 33.9336 168.175 32.5402 168.175 30.9976C168.175 29.4551 167.708 28.1723 166.778 27.1484C166.181 26.4741 165.395 26.0219 164.421 25.7916Z" fill="#FF6B95"/>
<path d="M153.304 33.9663C150.846 35.6382 148.239 36.4742 145.483 36.4742C142.74 36.4742 140.507 35.6968 138.787 34.1411C137.066 32.5728 136.206 30.4668 136.206 27.8224V17.7125H133.993V11.5488H136.206V5.01628L147.812 3.83059V11.5488H153.304V17.7125H147.812V23.8174C147.812 25.645 148.219 26.9733 149.036 27.8032C149.863 28.6194 151.286 29.0278 153.304 29.0278V33.9663Z" fill="#FF6B95"/>
<path fill-rule="evenodd" clip-rule="evenodd" d="M101.752 29.9224C102.374 31.3866 103.201 32.6052 104.237 33.5776C105.272 34.5364 106.461 35.2495 107.807 35.716C109.166 36.1957 110.44 36.4287 111.631 36.416C115.942 36.4029 119.155 34.828 121.278 31.6914L124.054 35.716H130.42V11.5488H124.054L121.278 14.5238C120.878 13.9016 120.405 13.3507 119.862 12.871C118.166 11.3805 116.193 10.635 113.941 10.635C111.703 10.635 109.574 11.2249 107.555 12.4045C106.572 12.9746 105.679 13.6746 104.876 14.5046C103.195 16.1891 102.017 18.2694 101.345 20.7455C101.008 21.9898 100.839 23.4606 100.839 25.1588C100.839 26.8565 101.143 28.4445 101.752 29.9224ZM118.288 18.4706C118.936 18.4706 119.492 18.6065 119.958 18.879V25.7613C118.923 26.6427 117.739 27.3625 116.406 27.9194C115.086 28.4637 114.103 28.5224 113.457 28.0948C112.756 27.6278 112.408 26.8242 112.408 25.684C112.408 24.0636 113.041 22.4695 114.311 20.9006C114.88 20.2012 115.519 19.6239 116.233 19.1706C116.592 18.9387 116.942 18.7644 117.281 18.6476C117.627 18.5298 117.964 18.4706 118.288 18.4706Z" fill="#FF6B95"/>
<path d="M81.9913 18.1209C80.9559 18.1209 80.4393 18.9568 80.4393 20.6287V35.716H68.9095V11.5488H75.2753L78.051 15.3208C79.0864 13.8824 80.5159 12.7417 82.3416 11.8991C83.0333 11.5817 83.7076 11.3241 84.3643 11.1262C85.4522 10.7989 86.4921 10.635 87.4859 10.635C90.4105 10.635 92.7265 11.4129 94.434 12.9686C96.1546 14.5238 97.0149 16.6106 97.0149 19.2287V35.716H85.4085V24.0504C85.4085 20.097 84.2701 18.1209 81.9913 18.1209Z" fill="#FF6B95"/>
<path fill-rule="evenodd" clip-rule="evenodd" d="M2.99023 4.67042C10.845 4.08714 15.9693 3.79551 18.3632 3.79551C20.7701 3.79551 22.6659 4.02234 24.0505 4.47599C25.448 4.91669 26.6967 5.53236 27.7967 6.32302C29.9318 7.83954 31.5429 9.85507 32.6298 12.3696C33.7298 14.8842 34.2797 17.4311 34.2797 20.0105C34.2797 22.5899 33.8592 24.8452 33.0181 26.7765C32.1899 28.6948 31.0382 30.315 29.563 31.6371C26.5479 34.372 22.6465 35.733 17.8586 35.72H2.99023V4.67042ZM15.0635 14.5277V26.3682C15.7493 25.7849 16.4934 25.2081 17.2957 24.6378C20.3754 22.4214 21.9153 20.1012 21.9153 17.6774C21.9153 16.4979 21.5659 15.4091 20.8672 14.4111C20.1684 13.4001 19.2561 12.8946 18.1303 12.8946C17.0174 12.8946 15.9952 13.439 15.0635 14.5277Z" fill="#FF6B95"/>
<path fill-rule="evenodd" clip-rule="evenodd" d="M41.4621 32.9248C44.1408 35.2709 47.3305 36.4439 51.0315 36.4439C53.4901 36.431 55.7999 35.8931 57.9609 34.8302C60.122 33.7674 61.8495 32.2638 63.1435 30.3196C64.4375 28.3753 65.0781 26.1394 65.0651 23.6119C65.0522 19.6716 63.7064 16.5284 61.0278 14.1823C58.3492 11.8233 55.0429 10.6438 51.1091 10.6438C47.1753 10.6438 43.869 11.8492 41.1904 14.2601C38.5118 16.658 37.1725 19.7494 37.1725 23.5341C37.1725 27.306 38.6024 30.4362 41.4621 32.9248ZM53.7877 18.2458C54.2018 18.2458 54.5383 18.3106 54.7971 18.4402C55.5217 18.8032 55.884 19.4901 55.884 20.5011C55.884 21.5121 55.5282 22.6592 54.8165 23.9424C54.1048 25.2127 53.2766 26.295 52.3319 27.1893C51.879 27.6171 51.4261 27.9605 50.9732 28.2198C50.5203 28.466 50.0868 28.5892 49.6727 28.5892C49.2586 28.5892 48.9093 28.5244 48.6246 28.3948C47.8223 28.0318 47.4211 27.3254 47.4211 26.2755C47.4211 25.2127 47.764 24.0526 48.4499 22.7953C49.1357 21.5381 49.9833 20.4687 50.9926 19.5873C51.4714 19.1726 51.9567 18.8485 52.4484 18.6152C52.9401 18.3689 53.3866 18.2458 53.7877 18.2458Z" fill="#FF6B95"/>
</g>
<path fill-rule="evenodd" clip-rule="evenodd" d="M188.219 20.3952C188.471 20.271 188.711 20.1478 188.937 20.0255C190.06 19.4199 190.868 18.8367 191.364 18.2759C192.477 17.0187 193.033 15.7679 193.033 14.5235C193.033 13.2792 192.612 12.4562 191.771 12.0543C191.5 11.9247 191.189 11.8599 190.84 11.8599C189.727 11.8599 188.096 12.6311 185.948 14.1736V21.5034L188.219 20.3952ZM189.127 16.2896L189.125 16.2921C189.082 16.3402 189.021 16.4005 188.937 16.4721V15.7677C189.277 15.5567 189.582 15.3844 189.853 15.2469C189.719 15.5274 189.495 15.8735 189.127 16.2896Z" fill="#FED900"/>
<path d="M218.907 28.5804C219.321 28.5804 219.755 28.4573 220.207 28.211C220.66 27.9518 221.113 27.6083 221.566 27.1806C222.511 26.2862 223.339 25.2039 224.051 23.9337C224.762 22.6505 225.118 21.5034 225.118 20.4924C225.118 19.4814 224.756 18.7944 224.031 18.4315C223.773 18.3019 223.436 18.237 223.022 18.237C222.621 18.237 222.174 18.3602 221.683 18.6065C221.191 18.8398 220.706 19.1638 220.227 19.5786C219.218 20.46 218.37 21.5293 217.684 22.7866C216.998 24.0439 216.655 25.2039 216.655 26.2668C216.655 27.3167 217.057 28.0231 217.859 28.386C218.144 28.5156 218.493 28.5804 218.907 28.5804Z" fill="#FED900"/>
<path d="M249.731 28.5804C250.145 28.5804 250.578 28.4573 251.031 28.211C251.484 27.9518 251.937 27.6083 252.39 27.1806C253.334 26.2862 254.163 25.2039 254.874 23.9337C255.586 22.6505 255.942 21.5034 255.942 20.4924C255.942 19.4814 255.58 18.7944 254.855 18.4315C254.596 18.3019 254.26 18.237 253.846 18.237C253.444 18.237 252.998 18.3602 252.506 18.6065C252.015 18.8398 251.529 19.1638 251.051 19.5786C250.041 20.46 249.194 21.5293 248.508 22.7866C247.822 24.0439 247.479 25.2039 247.479 26.2668C247.479 27.3167 247.88 28.0231 248.682 28.386C248.967 28.5156 249.317 28.5804 249.731 28.5804Z" fill="#FED900"/>
<path fill-rule="evenodd" clip-rule="evenodd" d="M18.0517 24.0664C17.8106 24.2577 17.5583 24.4482 17.2947 24.6379C16.4924 25.2082 15.7483 25.785 15.0625 26.3683V14.5278C15.9942 13.439 17.0164 12.8947 18.1293 12.8947C19.2551 12.8947 20.1674 13.4002 20.8661 14.4112C21.5649 15.4092 21.9143 16.498 21.9143 17.6775C21.9143 19.8938 20.6268 22.0235 18.0517 24.0664ZM18.4136 16.1229L18.4084 16.1155C18.3405 16.0172 18.2873 15.96 18.255 15.9296L18.2447 15.9202L18.2366 15.9131L18.2298 15.9075L18.2205 15.9003L18.2136 15.8955C18.2068 15.8939 18.1808 15.8888 18.1293 15.8888C18.1249 15.8884 18.0989 15.8858 18.0517 15.8983V19.8873C18.7255 18.9916 18.9251 18.2499 18.9251 17.6775C18.9251 17.1348 18.7775 16.6427 18.4188 16.1303L18.4136 16.1229Z" fill="#FED900"/>
<path d="M50.9744 28.2199C50.5215 28.4661 50.088 28.5893 49.6739 28.5893C49.2598 28.5893 48.9104 28.5245 48.6257 28.3948C47.8235 28.0319 47.4223 27.3255 47.4223 26.2756C47.4223 25.2128 47.7652 24.0527 48.451 22.7954C49.1369 21.5381 49.9845 20.4688 50.9938 19.5874C51.4726 19.1726 51.9579 18.8486 52.4496 18.6153C52.9413 18.369 53.3877 18.2459 53.7889 18.2459C54.203 18.2459 54.5394 18.3107 54.7982 18.4403C55.5229 18.8032 55.8852 19.4902 55.8852 20.5012C55.8852 21.5122 55.5294 22.6593 54.8176 23.9425C54.1059 25.2128 53.2778 26.2951 52.3331 27.1894C51.8802 27.6171 51.4273 27.9606 50.9744 28.2199Z" fill="#FED900"/>
<path fill-rule="evenodd" clip-rule="evenodd" d="M114.31 20.9007C114.879 20.2012 115.518 19.624 116.232 19.1707C116.591 18.9388 116.941 18.7645 117.28 18.6477C117.626 18.5299 117.963 18.4707 118.287 18.4707C118.935 18.4707 119.491 18.6066 119.957 18.8791V25.7613C118.922 26.6428 117.738 27.3625 116.405 27.9195C115.085 28.4638 114.102 28.5225 113.456 28.0949C112.755 27.6279 112.407 26.8242 112.407 25.684C112.407 24.0637 113.04 22.4696 114.31 20.9007ZM116.629 22.7895C116.741 22.6527 116.854 22.5257 116.968 22.4078V24.2608C116.502 24.5608 115.999 24.8307 115.456 25.0694C115.581 24.4186 115.921 23.6658 116.629 22.7895Z" fill="#FED900"/>
<path fill-rule="evenodd" clip-rule="evenodd" d="M173.057 1.76433L170.362 2.03104V27.196C170.022 26.4637 169.57 25.7764 169 25.1464C167.95 23.9682 166.603 23.2315 165.106 22.8776L165.104 22.8772C164.316 22.6912 163.5 22.6132 162.671 22.6183C160.084 22.6209 157.793 23.5727 156.01 25.4575C155.832 25.6451 155.662 25.8371 155.5 26.0334H153.303C152.479 26.0334 151.912 25.9482 151.546 25.8429C151.3 25.7723 151.184 25.7049 151.144 25.6778C151.067 25.5748 150.8 25.1214 150.8 23.8172V20.7064H156.293V8.55443H150.8V0.51528L133.215 2.31172V8.55443L122.755 8.55475L121.266 10.1506C119.147 8.49155 116.673 7.64095 113.94 7.64095C111.151 7.64095 108.506 8.38287 106.052 9.81603C104.835 10.5223 103.731 11.3875 102.745 12.4039C101.518 13.6361 100.52 15.0323 99.7439 16.5761C99.2837 14.3297 98.2031 12.3451 96.44 10.7498C94.0474 8.57215 90.9453 7.64095 87.4849 7.64095C86.1609 7.64095 84.8305 7.85949 83.5035 8.25863L83.5021 8.25905C82.701 8.50044 81.8986 8.80865 81.0957 9.17703L81.0897 9.17978C80.1225 9.62613 79.2252 10.1516 78.4069 10.7595L76.7844 8.55475H65.9193V15.4046C65.1557 14.1315 64.1842 12.9691 62.9997 11.9311C59.7184 9.04268 55.6887 7.64972 51.1103 7.64972C46.5141 7.64972 42.476 9.08016 39.1967 12.0303C38.1997 12.9232 37.352 13.8979 36.6531 14.9476C36.3413 13.6748 35.9124 12.4163 35.3693 11.1739C34.0765 8.18589 32.1282 5.73172 29.5316 3.88556C28.1598 2.90064 26.6288 2.15203 24.9625 1.62495C23.1489 1.03376 20.8996 0.801426 18.3622 0.801426C15.8368 0.801426 10.5969 1.10319 2.76822 1.68453L0 1.89009V38.7143H17.8544C23.2415 38.7279 27.9016 37.1795 31.562 33.8625C33.0509 32.5266 34.2601 30.9511 35.1928 29.1604C36.069 31.4314 37.5112 33.4511 39.4992 35.1821C42.7454 38.0237 46.6414 39.4382 51.0326 39.4382L51.0484 39.4381C53.9485 39.4229 56.7045 38.7845 59.2796 37.5179C61.8983 36.23 64.0356 34.3789 65.6319 31.9805C65.7308 31.8319 65.8266 31.6821 65.9193 31.5311V38.7103H100.003V33.0543C100.615 34.0565 101.342 34.9641 102.191 35.7619L102.199 35.7692L102.206 35.7764C103.545 37.0154 105.089 37.9418 106.821 38.543C108.436 39.1121 110.053 39.4256 111.65 39.4103C115.26 39.3973 118.411 38.4329 120.923 36.4452L122.485 38.7103H133.408V30.1417C133.824 32.5449 134.92 34.6658 136.774 36.3554L136.783 36.3635C139.151 38.505 142.144 39.4681 145.482 39.4681C148.807 39.4681 151.925 38.4711 154.784 36.5764C154.999 36.899 155.24 37.2101 155.507 37.5086L155.513 37.5145L155.518 37.5204C157.186 39.3625 159.538 39.9981 161.914 39.9998C164.519 40.0149 166.877 39.1409 168.66 37.2125L168.67 37.2008C169.376 36.4294 169.946 35.5875 170.362 34.6832V38.71H189.015V33.1591L189.447 33.1689H189.481C191.838 33.1689 194.096 32.774 196.229 31.963C198.332 31.1636 200.206 30.0318 201.821 28.5571C202.505 27.9325 203.127 27.2565 203.687 26.5314C204.31 29.8896 206.009 32.8026 208.733 35.1737C211.979 38.015 215.875 39.4293 220.266 39.4294L220.281 39.4293C223.182 39.414 225.938 38.7756 228.513 37.5091C231.131 36.2212 233.269 34.37 234.865 31.9717C235.21 31.4535 235.517 30.9201 235.787 30.3725C236.672 32.1521 237.932 33.7593 239.556 35.1737C242.802 38.015 246.698 39.4293 251.089 39.4294L251.105 39.4293C254.005 39.414 256.761 38.7756 259.336 37.5091C261.955 36.2212 264.092 34.37 265.689 31.9717C265.802 31.8017 265.911 31.6301 266.016 31.4568V38.71H283V0H266.016V15.4627C265.246 14.1634 264.262 12.9784 263.056 11.9223C259.775 9.03384 255.745 7.64088 251.167 7.64088C246.571 7.64088 242.533 9.07131 239.254 12.0214C237.761 13.3582 236.603 14.8782 235.778 16.5589C234.947 14.824 233.769 13.2686 232.233 11.9223C228.951 9.03384 224.922 7.64088 220.343 7.64088C215.747 7.64088 211.709 9.07131 208.43 12.0214C207.875 12.518 207.367 13.0399 206.905 13.586C206.459 9.83532 205.062 6.64103 202.359 4.42808L202.352 4.42274C200.698 3.07624 198.687 2.16599 196.434 1.60529C194.178 1.04056 191.3 0.79714 187.909 0.79714C184.47 0.79714 179.499 1.12685 173.057 1.76433ZM189.481 30.1747L186.026 30.0969V35.7158H173.351V4.74399C179.769 4.10887 184.622 3.79131 187.909 3.79131C191.195 3.79131 193.796 4.0311 195.712 4.51068C197.64 4.99026 199.225 5.73555 200.467 6.74656C202.874 8.71673 204.077 11.9507 204.077 16.4483C204.077 18.4704 203.696 20.3239 202.932 22.0089C202.169 23.6939 201.127 25.1391 199.807 26.3445C198.487 27.55 196.941 28.4897 195.168 29.1637C193.395 29.8377 191.5 30.1747 189.481 30.1747ZM220.266 36.4352C216.565 36.4352 213.375 35.2622 210.696 32.9161C207.837 30.4275 206.407 27.2972 206.407 23.5254C206.407 19.7406 207.746 16.6492 210.425 14.2513C213.103 11.8405 216.41 10.635 220.343 10.635C224.277 10.635 227.583 11.8146 230.262 14.1736C232.705 16.3134 234.04 19.1164 234.265 22.5825C234.285 22.8915 234.296 23.2058 234.299 23.5254L234.299 23.6032C234.301 23.9283 234.292 24.2486 234.272 24.5641C234.137 26.7011 233.505 28.6167 232.378 30.3108C231.084 32.2551 229.356 33.7586 227.195 34.8215C225.034 35.8843 222.724 36.4222 220.266 36.4352ZM237.231 23.5935L237.23 23.5881L237.23 23.5254C237.23 23.2045 237.24 22.8887 237.259 22.5778C237.467 19.2215 238.797 16.446 241.248 14.2513C243.927 11.8405 247.233 10.635 251.167 10.635C255.101 10.635 258.407 11.8146 261.086 14.1736C263.764 16.5196 265.11 19.6628 265.123 23.6032C265.136 26.1307 264.495 28.3666 263.201 30.3108C261.907 32.2551 260.18 33.7586 258.019 34.8215C255.858 35.8843 253.548 36.4222 251.089 36.4352C247.388 36.4352 244.199 35.2622 241.52 32.9161C238.924 30.6566 237.506 27.8682 237.267 24.5509C237.244 24.2365 237.232 23.9174 237.231 23.5935ZM280.011 2.99417V35.7158H269.005V2.99417H280.011ZM147.811 23.8172C147.811 25.6448 148.218 26.973 149.035 27.803C149.862 28.6192 151.285 29.0276 153.303 29.0276V33.966C150.845 35.638 148.238 36.4739 145.482 36.4739C142.739 36.4739 140.506 35.6966 138.786 34.1409C137.065 32.5726 136.205 30.4665 136.205 27.8221V17.7122H133.992V11.5486H136.205V5.01605L147.811 3.83036V11.5486H153.303V17.7122H147.811V23.8172ZM29.562 31.6372C26.5469 34.3721 22.6454 35.7331 17.8576 35.7201H2.98923V4.6705C10.844 4.08723 15.9683 3.79559 18.3622 3.79559C20.7691 3.79559 22.6648 4.02242 24.0495 4.47608C25.447 4.91677 26.6957 5.53245 27.7957 6.32311C29.9308 7.83962 31.5419 9.85516 32.6288 12.3697C33.7288 14.8843 34.2787 17.4312 34.2787 20.0106C34.2787 22.59 33.8582 24.8453 33.017 26.7766C32.1889 28.6949 31.0372 30.3151 29.562 31.6372ZM94.433 12.9687C92.7255 11.413 90.4095 10.6351 87.4849 10.6351C86.491 10.6351 85.4512 10.799 84.3633 11.1263C83.7066 11.3242 83.0323 11.5818 82.3406 11.8992C81.5455 12.2661 80.8255 12.6896 80.1805 13.1697C79.3445 13.7918 78.6345 14.5089 78.05 15.3209L75.2743 11.5489H68.9085V35.7161H80.4383V20.6288C80.4383 18.9569 80.9549 18.1209 81.9903 18.1209C84.2691 18.1209 85.4075 20.0971 85.4075 24.0505V35.7161H97.0139V19.2288C97.0139 16.6107 96.1536 14.5238 94.433 12.9687ZM61.029 14.1824C63.7076 16.5285 65.0534 19.6717 65.0663 23.612C65.0793 26.1395 64.4387 28.3754 63.1447 30.3196C61.8507 32.2639 60.1231 33.7674 57.9621 34.8303C55.8011 35.8932 53.4913 36.4311 51.0326 36.444C47.3317 36.444 44.142 35.271 41.4633 32.9249C38.6035 30.4363 37.1736 27.3061 37.1736 23.5342C37.1736 19.7494 38.513 16.6581 41.1916 14.2602C43.8702 11.8493 47.1764 10.6439 51.1103 10.6439C55.0441 10.6439 58.3503 11.8234 61.029 14.1824ZM107.806 35.7161C109.165 36.1958 110.439 36.4287 111.63 36.4161C114.724 36.4067 117.253 35.5927 119.219 33.9742C119.992 33.3377 120.678 32.5768 121.277 31.6915L124.053 35.7161H130.419V11.5489H124.053L121.277 14.5238C120.877 13.9017 120.404 13.3508 119.861 12.8711C119.65 12.6856 119.435 12.5117 119.215 12.3493C117.669 11.2066 115.912 10.6351 113.94 10.6351C111.702 10.6351 109.573 11.225 107.554 12.4046C106.571 12.9747 105.678 13.6747 104.875 14.5047C103.194 16.1892 102.016 18.2695 101.344 20.7456C101.007 21.9899 100.838 23.4607 100.838 25.1589C100.838 26.8566 101.142 28.4446 101.751 29.9225C102.373 31.3867 103.2 32.6053 104.236 33.5777C105.271 34.5365 106.46 35.2496 107.806 35.7161ZM157.732 35.5086C156.826 34.4972 156.372 33.2337 156.372 31.7174C156.372 30.1875 156.974 28.788 158.178 27.5179C159.38 26.2472 160.882 25.6125 162.681 25.6125C163.316 25.6081 163.894 25.6678 164.419 25.7917C165.394 26.0219 166.18 26.4742 166.777 27.1484C167.707 28.1724 168.174 29.4551 168.174 30.9977C168.174 32.5402 167.605 33.9337 166.466 35.178C165.328 36.4092 163.813 37.0182 161.924 37.0056C160.035 37.0056 158.636 36.5068 157.732 35.5086Z" fill="#FED900"/>
<defs>
<filter id="filter0_i_554_945" x="2.99023" y="2.99463" width="277.021" height="35.1339" filterUnits="userSpaceOnUse" color-interpolation-filters="sRGB">
<feFlood flood-opacity="0" result="BackgroundImageFix"/>
<feBlend mode="normal" in="SourceGraphic" in2="BackgroundImageFix" result="shape"/>
<feColorMatrix in="SourceAlpha" type="matrix" values="0 0 0 0 0 0 0 0 0 0 0 0 0 0 0 0 0 0 127 0" result="hardAlpha"/>
<feOffset dy="2.24531"/>
<feGaussianBlur stdDeviation="0.561327"/>
<feComposite in2="hardAlpha" operator="arithmetic" k2="-1" k3="1"/>
<feColorMatrix type="matrix" values="0 0 0 0 1 0 0 0 0 1 0 0 0 0 1 0 0 0 0.5 0"/>
<feBlend mode="normal" in2="shape" result="effect1_innerShadow_554_945"/>
</filter>
</defs>
</svg>
