<svg viewBox="0 0 32 32" fill="none" xmlns="http://www.w3.org/2000/svg">
<g id="Name=Menu">
<path id="Union" fill-rule="evenodd" clip-rule="evenodd" d="M28.0408 3.33325C28.7548 3.33325 29.3335 4.04568 29.3335 4.92449V5.74201C29.3335 6.62083 28.7548 7.33325 28.0408 7.33325L4.62615 7.33325C3.91224 7.33325 3.3335 6.62083 3.3335 5.74201V4.92449C3.3335 4.04567 3.91224 3.33325 4.62615 3.33325H28.0408ZM28.0408 13.2643C28.7548 13.2643 29.3335 13.9767 29.3335 14.8555V15.673C29.3335 16.5519 28.7548 17.2643 28.0408 17.2643L4.62615 17.2643C3.91224 17.2643 3.3335 16.5519 3.3335 15.673V14.8555C3.3335 13.9767 3.91224 13.2643 4.62615 13.2643L28.0408 13.2643ZM29.3335 24.7866C29.3335 23.9077 28.7548 23.1953 28.0408 23.1953L4.62615 23.1953C3.91224 23.1953 3.3335 23.9077 3.3335 24.7866V25.6041C3.3335 26.4829 3.91224 27.1953 4.62615 27.1953L28.0408 27.1953C28.7548 27.1953 29.3335 26.4829 29.3335 25.6041V24.7866Z" fill="#fff"/>
</g>
</svg>
