<svg viewBox="0 0 31 31" fill="none" xmlns="http://www.w3.org/2000/svg">
<path d="M4.5823 3.23393L3.85298 2.48476C3.8271 2.81842 3.68921 3.13354 3.46169 3.37897C3.23416 3.62439 2.93036 3.78571 2.59961 3.83674L3.35002 4.53257L30.1521 29.52L4.5823 3.23393ZM6.35166 10.4763V25.394C6.60648 25.1257 6.95289 24.9632 7.32206 24.9386C7.69122 24.914 8.05613 25.0292 8.34428 25.2613V15.2523L24.4979 30.9997H27.2807L6.35166 10.4763ZM25.1652 7.02939C24.7805 7.03085 24.4102 6.88224 24.1333 6.61511V16.7115L8.27792 0.965332H5.21054L26.1278 21.4447V6.67279C25.8601 6.90337 25.5185 7.02994 25.1652 7.02939Z" fill="#349ea3"/>
<path d="M2.37403 7.29697e-07C1.90483 -0.000367203 1.44606 0.138414 1.05574 0.398792C0.665426 0.65917 0.36109 1.02945 0.181225 1.4628C0.00135934 1.89615 -0.0459553 2.37311 0.0452645 2.83335C0.136484 3.2936 0.362141 3.71645 0.693696 4.04844C1.02525 4.38043 1.44781 4.60664 1.90793 4.69846C2.36806 4.79028 2.84508 4.74359 3.27866 4.56429C3.71225 4.38499 4.08293 4.08114 4.34381 3.69116C4.6047 3.30119 4.74408 2.8426 4.74433 2.3734C4.74416 1.74453 4.49448 1.14141 4.05009 0.696431C3.6057 0.251456 3.0029 0.000986412 2.37403 7.29697e-07ZM2.59915 3.83267C2.52472 3.84467 2.44942 3.85048 2.37403 3.85004C2.08033 3.85041 1.79312 3.76366 1.54873 3.60077C1.30434 3.43788 1.11376 3.20617 1.00108 2.93494C0.888403 2.66372 0.858699 2.36517 0.915726 2.07706C0.972752 1.78895 1.11395 1.52423 1.32145 1.31638C1.52895 1.10853 1.79344 0.966897 2.08145 0.909389C2.36946 0.85188 2.66806 0.881085 2.93947 0.993308C3.21088 1.10553 3.44292 1.29573 3.60621 1.53985C3.76951 1.78396 3.85674 2.07102 3.85686 2.36472V2.4807C3.83067 2.81495 3.69212 3.13051 3.46375 3.37599C3.23538 3.62148 2.93065 3.78244 2.59915 3.83267Z" fill="#349ea3"/>
<path d="M25.1659 3.17529C24.5465 3.18946 23.9572 3.44548 23.5242 3.88857C23.0911 4.33166 22.8486 4.92664 22.8486 5.54622C22.8486 6.1658 23.0911 6.76078 23.5242 7.20387C23.9572 7.64696 24.5465 7.90297 25.1659 7.91714C25.4977 7.91822 25.8258 7.84845 26.1285 7.71248C26.6253 7.49219 27.0314 7.10781 27.2787 6.62377C27.5259 6.13972 27.5993 5.58541 27.4865 5.05371C27.3737 4.52201 27.0816 4.04523 26.6591 3.70325C26.2366 3.36127 25.7095 3.17488 25.1659 3.17529ZM26.1285 6.67307C25.8713 6.89251 25.5469 7.01748 25.209 7.02729C24.871 7.03709 24.5399 6.93114 24.2705 6.72699C24.001 6.52283 23.8094 6.23274 23.7274 5.90478C23.6454 5.57681 23.6779 5.23068 23.8196 4.92373C23.9612 4.61678 24.2035 4.36745 24.5063 4.21706C24.809 4.06666 25.1541 4.02424 25.4843 4.09681C25.8145 4.16939 26.1099 4.3526 26.3217 4.6161C26.5335 4.87959 26.6489 5.20754 26.6488 5.5456C26.6487 5.75997 26.6021 5.97178 26.5123 6.16642C26.4225 6.36107 26.2915 6.53392 26.1285 6.67307Z" fill="#349ea3"/>
<path d="M8.3486 24.237C7.87914 24.0382 7.35815 23.9961 6.86283 24.1166C6.36751 24.2372 5.92421 24.5142 5.59862 24.9064C5.27303 25.2987 5.08246 25.7854 5.05516 26.2945C5.02786 26.8035 5.16528 27.3078 5.44706 27.7327C5.72883 28.1575 6.13997 28.4802 6.61956 28.6531C7.09914 28.826 7.62165 28.8397 8.10967 28.6924C8.59769 28.545 9.02526 28.2443 9.32901 27.8349C9.63276 27.4255 9.79654 26.9291 9.79609 26.4194C9.79611 25.9533 9.65884 25.4976 9.40141 25.1092C9.14397 24.7207 8.77779 24.4167 8.3486 24.2351V24.237ZM7.41834 27.904C7.12528 27.9034 6.83896 27.816 6.59556 27.6528C6.35216 27.4895 6.16258 27.2578 6.05077 26.987C5.93896 26.7161 5.90993 26.4181 5.96734 26.1307C6.02476 25.8433 6.16604 25.5794 6.37336 25.3723C6.58067 25.1651 6.84472 25.024 7.13215 24.9669C7.41959 24.9097 7.71752 24.939 7.98832 25.051C8.25913 25.1631 8.49066 25.3528 8.65368 25.5964C8.81671 25.8399 8.90391 26.1263 8.90428 26.4194C8.90436 26.6143 8.866 26.8073 8.79139 26.9873C8.71678 27.1674 8.6074 27.331 8.46949 27.4687C8.33158 27.6064 8.16786 27.7156 7.9877 27.79C7.80755 27.8644 7.61449 27.9025 7.41958 27.9022L7.41834 27.904Z" fill="#349ea3"/>
</svg>
