<svg viewBox="0 0 33 33" fill="none" xmlns="http://www.w3.org/2000/svg">
<g id="Nami">
<g id="Nami_2">
<path id="path16" d="M5.73019 3.83836L4.97733 3.06502C4.95062 3.40945 4.80828 3.73474 4.57342 3.98808C4.33855 4.24142 4.02496 4.40794 3.68353 4.46061L4.45815 5.17889L32.1248 30.9724L5.73019 3.83836ZM7.55662 11.3144V26.7132C7.81966 26.4363 8.17724 26.2685 8.55832 26.2432C8.93939 26.2178 9.31607 26.3367 9.61351 26.5762V16.2444L26.2883 32.4998H29.1607L7.55662 11.3144ZM26.9771 7.75625C26.5799 7.75776 26.1977 7.60435 25.9118 7.32861V17.7507L9.54501 1.49658H6.37869L27.9707 22.6366V7.38815C27.6944 7.62616 27.3417 7.75683 26.9771 7.75625Z" fill="#349EA3"/>
<path id="path18" d="M3.45061 0.500001C2.96628 0.499621 2.49271 0.642879 2.0898 0.911656C1.68689 1.18043 1.37274 1.56266 1.18707 2.00999C1.0014 2.45732 0.952562 2.94966 1.04672 3.42475C1.14089 3.89984 1.37382 4.33634 1.71607 4.67904C2.05832 5.02173 2.49451 5.25524 2.96948 5.35002C3.44445 5.44481 3.93685 5.39661 4.38443 5.21153C4.832 5.02644 5.21463 4.71279 5.48394 4.31023C5.75324 3.90768 5.89712 3.4343 5.89737 2.94997C5.8972 2.3008 5.63947 1.67823 5.18074 1.2189C4.72201 0.759568 4.09977 0.501018 3.45061 0.500001ZM3.68299 4.45631C3.60616 4.46869 3.52843 4.47469 3.45061 4.47423C3.14744 4.47461 2.85096 4.38507 2.59869 4.21692C2.34642 4.04878 2.14968 3.80959 2.03337 3.52962C1.91706 3.24965 1.8864 2.94147 1.94527 2.64407C2.00413 2.34666 2.14988 2.0734 2.36408 1.85885C2.57827 1.64429 2.85129 1.49809 3.14859 1.43872C3.4459 1.37936 3.75413 1.40951 4.03429 1.52535C4.31446 1.64119 4.55398 1.83753 4.72254 2.08952C4.89111 2.34151 4.98115 2.63783 4.98128 2.941V3.06072C4.95424 3.40576 4.81122 3.73149 4.57549 3.9849C4.33975 4.2383 4.02518 4.40445 3.68299 4.45631Z" fill="#349EA3"/>
<path id="path20" d="M26.978 3.77783C26.3386 3.79246 25.7303 4.05673 25.2833 4.51412C24.8362 4.9715 24.5859 5.58567 24.5859 6.22524C24.5859 6.8648 24.8362 7.47898 25.2833 7.93636C25.7303 8.39374 26.3386 8.65802 26.978 8.67264C27.3205 8.67376 27.6592 8.60173 27.9716 8.46138C28.4845 8.23398 28.9037 7.83721 29.1589 7.33755C29.4141 6.83789 29.4898 6.2657 29.3734 5.71685C29.2569 5.16799 28.9554 4.67583 28.5193 4.32282C28.0832 3.96981 27.5391 3.7774 26.978 3.77783ZM27.9716 7.38844C27.7061 7.61496 27.3712 7.74396 27.0224 7.75408C26.6736 7.76421 26.3318 7.65483 26.0536 7.4441C25.7755 7.23336 25.5777 6.9339 25.4931 6.59536C25.4084 6.25682 25.442 5.89952 25.5882 5.58267C25.7344 5.26582 25.9845 5.00845 26.2971 4.8532C26.6096 4.69796 26.9658 4.65416 27.3066 4.72908C27.6474 4.80399 27.9524 4.99312 28.171 5.26511C28.3897 5.5371 28.5088 5.87563 28.5087 6.2246C28.5086 6.44589 28.4605 6.66453 28.3678 6.86545C28.2751 7.06638 28.1399 7.2448 27.9716 7.38844Z" fill="#349EA3"/>
<path id="path22" d="M9.61804 25.5189C9.13343 25.3138 8.59564 25.2702 8.08434 25.3947C7.57304 25.5192 7.11544 25.805 6.77934 26.2099C6.44325 26.6149 6.24654 27.1173 6.21836 27.6428C6.19018 28.1682 6.33203 28.6888 6.6229 29.1273C6.91376 29.5659 7.33816 29.8991 7.83322 30.0775C8.32827 30.2559 8.86764 30.2701 9.3714 30.118C9.87517 29.9659 10.3165 29.6555 10.6301 29.2329C10.9436 28.8103 11.1127 28.2979 11.1122 27.7717C11.1122 27.2906 10.9705 26.8202 10.7048 26.4192C10.4391 26.0182 10.0611 25.7044 9.61804 25.517V25.5189ZM8.65777 29.3043C8.35525 29.3036 8.0597 29.2134 7.80845 29.0449C7.55719 28.8764 7.3615 28.6372 7.24608 28.3576C7.13066 28.078 7.1007 27.7704 7.15996 27.4737C7.21923 27.1771 7.36507 26.9046 7.57908 26.6908C7.79308 26.477 8.06564 26.3314 8.36235 26.2723C8.65906 26.2133 8.9666 26.2436 9.24614 26.3592C9.52568 26.4749 9.76468 26.6708 9.93296 26.9221C10.1012 27.1735 10.1913 27.4692 10.1916 27.7717C10.1917 27.9729 10.1521 28.1721 10.0751 28.358C9.9981 28.5439 9.88518 28.7127 9.74282 28.8549C9.60047 28.9971 9.43147 29.1098 9.2455 29.1866C9.05953 29.2633 8.86024 29.3027 8.65905 29.3024L8.65777 29.3043Z" fill="#349EA3"/>
</g>
</g>
</svg>
