<svg width="49" height="48" viewBox="0 0 49 48" fill="none" xmlns="http://www.w3.org/2000/svg">
<g clip-path="url(#clip0_1354_3932)">
<path d="M44.4432 0.00388287H3.54318C3.08308 -0.00170985 2.6264 0.0835052 2.19928 0.254649C1.77215 0.425793 1.38298 0.679506 1.05404 1.00126C0.725107 1.32301 0.462865 1.70649 0.282332 2.12973C0.101799 2.55297 0.00652049 3.00766 0.00195312 3.46777V44.5335C0.0128816 45.4624 0.392077 46.349 1.05624 46.9985C1.7204 47.648 2.61521 48.0073 3.54411 47.9974H44.4432C45.3746 48.01 46.2727 47.6521 46.9403 47.0025C47.6078 46.353 47.99 45.4649 48.0029 44.5335V3.46041C47.9895 2.52965 47.607 1.6423 46.9395 0.993565C46.2719 0.344829 45.374 -0.0121611 44.4432 0.00112071" fill="#97DFFF"/>
<path d="M45 10.3802C43.4381 11.1231 41.7739 11.6155 40.0387 11.8545C41.8237 10.699 43.1861 8.88315 43.8266 6.69446C42.1624 7.77031 40.3249 8.53023 38.3666 8.95431C36.7864 7.12992 34.5341 6 32.0771 6C27.3101 6 23.4724 10.1952 23.4724 15.3382C23.4724 16.0782 23.5301 16.7898 23.6719 17.4672C16.5135 17.0886 10.1794 13.3687 5.92425 7.702C5.18138 9.09946 4.74563 10.699 4.74563 12.4209C4.74563 15.6542 6.28125 18.5202 8.57025 20.1795C7.18687 20.1511 5.82975 19.7156 4.68 19.0297C4.68 19.0582 4.68 19.0952 4.68 19.1322C4.68 23.6689 7.66462 27.4372 11.5785 28.3053C10.8776 28.5131 10.1137 28.6127 9.321 28.6127C8.76975 28.6127 8.21325 28.5785 7.69088 28.4533C8.8065 32.1505 11.9723 34.8685 15.7365 34.9568C12.807 37.4415 9.08738 38.9385 5.06063 38.9385C4.3545 38.9385 3.67725 38.9044 3 38.8105C6.81412 41.4773 11.3344 43 16.209 43C32.0535 43 40.716 28.7692 40.716 16.434C40.716 16.0213 40.7029 15.6228 40.6845 15.2272C42.3934 13.9123 43.8293 12.2701 45 10.3802Z" fill="#4757E6"/>
</g>
<defs>
<clipPath id="clip0_1354_3932">
<rect width="48.0018" height="48" fill="white" transform="translate(0.00195312)"/>
</clipPath>
</defs>
</svg>
