<svg width="771" height="341" viewBox="0 0 771 341" fill="none" xmlns="http://www.w3.org/2000/svg">
<g filter="url(#filter0_i_826_3121)">
<path fill-rule="evenodd" clip-rule="evenodd" d="M83.4199 11.6836C72.5801 11.6836 49.377 13.002 13.8105 15.6387V156H81.1348C102.814 156.059 120.48 149.906 134.133 137.543C140.812 131.566 146.027 124.242 149.777 115.57C153.586 106.84 155.49 96.6445 155.49 84.9844C155.49 73.3242 153 61.8105 148.02 50.4434C143.098 39.0762 135.803 29.9648 126.135 23.1094C121.154 19.5352 115.5 16.752 109.172 14.7598C102.902 12.709 94.3184 11.6836 83.4199 11.6836ZM68.4785 113.725V60.1992C72.6973 55.2773 77.3262 52.8164 82.3652 52.8164C87.4629 52.8164 91.5938 55.1016 94.7578 59.6719C97.9219 64.1836 99.5039 69.1055 99.5039 74.4375C99.5039 85.3945 92.5312 95.8828 78.5859 105.902C74.9531 108.48 71.584 111.088 68.4785 113.725Z" fill="#FF6B95"/>
<path fill-rule="evenodd" clip-rule="evenodd" d="M188.01 143.344C200.139 153.949 214.582 159.252 231.34 159.252C242.473 159.193 252.932 156.762 262.717 151.957C272.502 147.152 280.324 140.355 286.184 131.566C292.043 122.777 294.943 112.67 294.885 101.244C294.826 83.4316 288.732 69.2227 276.604 58.6172C264.475 47.9531 249.504 42.6211 231.691 42.6211C213.879 42.6211 198.908 48.0703 186.779 58.9688C174.65 69.8086 168.586 83.7832 168.586 100.893C168.586 117.943 175.061 132.094 188.01 143.344ZM243.82 76.9863C245.695 76.9863 247.219 77.2793 248.391 77.8652C251.672 79.5059 253.312 82.6113 253.312 87.1816C253.312 91.752 251.701 96.9375 248.479 102.738C245.256 108.48 241.506 113.373 237.229 117.416C235.178 119.35 233.127 120.902 231.076 122.074C229.025 123.188 227.062 123.744 225.188 123.744C223.312 123.744 221.73 123.451 220.441 122.865C216.809 121.225 214.992 118.031 214.992 113.285C214.992 108.48 216.545 103.236 219.65 97.5527C222.756 91.8691 226.594 87.0352 231.164 83.0508C233.332 81.1758 235.529 79.7109 237.756 78.6562C239.982 77.543 242.004 76.9863 243.82 76.9863Z" fill="#FF6B95"/>
<path d="M371.525 76.459C366.838 76.459 364.494 80.2383 364.494 87.7969V156H312.287V46.752H341.115L353.684 63.8027C358.371 57.2988 364.846 52.1426 373.107 48.334C381.428 44.5254 389.191 42.6211 396.398 42.6211C409.641 42.6211 420.129 46.1367 427.863 53.168C435.656 60.1992 439.553 69.6328 439.553 81.4688V156H386.994V103.266C386.994 85.3945 381.838 76.459 371.525 76.459Z" fill="#FF6B95"/>
<path fill-rule="evenodd" clip-rule="evenodd" d="M460.998 129.809C463.811 136.43 467.561 141.938 472.248 146.332C476.936 150.668 482.326 153.891 488.42 156C494.572 158.168 500.344 159.223 505.734 159.164C525.246 159.105 539.807 151.986 549.416 137.807L561.984 156H590.812V46.752H561.984L549.416 60.1992C547.6 57.3867 545.461 54.8965 543 52.7285C535.324 45.9902 526.389 42.6211 516.193 42.6211C506.057 42.6211 496.418 45.2871 487.277 50.6191C482.824 53.1973 478.781 56.3613 475.148 60.1113C467.531 67.7285 462.199 77.1328 459.152 88.3242C457.629 93.9492 456.867 100.6 456.867 108.275C456.867 115.951 458.244 123.129 460.998 129.809ZM535.881 78.041C538.811 78.041 541.33 78.6562 543.439 79.8867V111C538.752 114.984 533.391 118.236 527.355 120.756C521.379 123.217 516.926 123.48 513.996 121.547C510.832 119.438 509.25 115.805 509.25 110.648C509.25 103.324 512.121 96.1172 517.863 89.0273C520.441 85.8633 523.342 83.2559 526.564 81.2051C529.846 79.0957 532.951 78.041 535.881 78.041Z" fill="#FF6B95"/>
<path d="M694.436 148.09C683.303 155.648 671.496 159.428 659.016 159.428C646.594 159.428 636.486 155.912 628.693 148.881C620.9 141.791 617.004 132.27 617.004 120.316V74.6133H606.984V46.752H617.004V17.2207L669.562 11.8594V46.752H694.436V74.6133H669.562V102.211C669.562 110.473 671.408 116.479 675.1 120.229C678.85 123.92 685.295 125.766 694.436 125.766V148.09Z" fill="#FF6B95"/>
<path d="M753.762 114.604C749.602 109.916 743.42 107.602 735.217 107.66C727.072 107.66 720.275 110.531 714.826 116.273C709.377 122.016 706.652 128.344 706.652 135.258C706.652 142.113 708.703 147.826 712.805 152.396C716.906 156.908 723.234 159.164 731.789 159.164C740.344 159.223 747.199 156.469 752.355 150.902C757.512 145.277 760.09 138.979 760.09 132.006C760.09 125.033 757.98 119.232 753.762 114.604Z" fill="#FF6B95"/>
<path d="M493.77 327H443.936V179.08H493.77V327Z" fill="#FF6B95"/>
<path fill-rule="evenodd" clip-rule="evenodd" d="M10.8105 186.99C39.873 184.119 61.8457 182.684 76.7285 182.684C91.6113 182.684 103.389 183.768 112.061 185.936C120.791 188.104 127.969 191.473 133.594 196.043C144.492 204.949 149.941 219.568 149.941 239.9C149.941 249.041 148.213 257.42 144.756 265.037C141.299 272.654 136.582 279.188 130.605 284.637C124.629 290.086 117.627 294.334 109.6 297.381C101.572 300.428 92.9883 301.951 83.8477 301.951L68.2031 301.6V327H10.8105V186.99ZM90 219.158C84.9609 219.158 77.5781 222.645 67.8516 229.617V262.752L78.1348 257.742C84.9316 254.402 89.6777 251.209 92.373 248.162C97.4121 242.479 99.9316 236.824 99.9316 231.199C99.9316 225.574 98.0273 221.854 94.2188 220.037C92.9883 219.451 91.582 219.158 90 219.158Z" fill="#FF6B95"/>
<path fill-rule="evenodd" clip-rule="evenodd" d="M223.242 330.252C206.484 330.252 192.041 324.949 179.912 314.344C166.963 303.094 160.488 288.943 160.488 271.893C160.488 254.783 166.553 240.809 178.682 229.969C190.811 219.07 205.781 213.621 223.594 213.621C241.406 213.621 256.377 218.953 268.506 229.617C280.635 240.223 286.729 254.432 286.787 272.244C286.846 283.67 283.945 293.777 278.086 302.566C272.227 311.355 264.404 318.152 254.619 322.957C244.834 327.762 234.375 330.193 223.242 330.252ZM240.293 248.865C239.121 248.279 237.598 247.986 235.723 247.986C233.906 247.986 231.885 248.543 229.658 249.656C227.432 250.711 225.234 252.176 223.066 254.051C218.496 258.035 214.658 262.869 211.553 268.553C208.447 274.236 206.895 279.48 206.895 284.285C206.895 289.031 208.711 292.225 212.344 293.865C213.633 294.451 215.215 294.744 217.09 294.744C218.965 294.744 220.928 294.188 222.979 293.074C225.029 291.902 227.08 290.35 229.131 288.416C233.408 284.373 237.158 279.48 240.381 273.738C243.604 267.938 245.215 262.752 245.215 258.182C245.215 253.611 243.574 250.506 240.293 248.865Z" fill="#FF6B95"/>
<path fill-rule="evenodd" clip-rule="evenodd" d="M319.482 314.344C331.611 324.949 346.055 330.252 362.812 330.252C373.945 330.193 384.404 327.762 394.189 322.957C403.975 318.152 411.797 311.355 417.656 302.566C423.516 293.777 426.416 283.67 426.357 272.244C426.299 254.432 420.205 240.223 408.076 229.617C395.947 218.953 380.977 213.621 363.164 213.621C345.352 213.621 330.381 219.07 318.252 229.969C306.123 240.809 300.059 254.783 300.059 271.893C300.059 288.943 306.533 303.094 319.482 314.344ZM375.293 247.986C377.168 247.986 378.691 248.279 379.863 248.865C383.145 250.506 384.785 253.611 384.785 258.182C384.785 262.752 383.174 267.938 379.951 273.738C376.729 279.48 372.979 284.373 368.701 288.416C366.65 290.35 364.6 291.902 362.549 293.074C360.498 294.188 358.535 294.744 356.66 294.744C354.785 294.744 353.203 294.451 351.914 293.865C348.281 292.225 346.465 289.031 346.465 284.285C346.465 279.48 348.018 274.236 351.123 268.553C354.229 262.869 358.066 258.035 362.637 254.051C364.805 252.176 367.002 250.711 369.229 249.656C371.455 248.543 373.477 247.986 375.293 247.986Z" fill="#FF6B95"/>
<path d="M640.547 246.932H560.303V273.035H640.547V246.932Z" fill="#FF6B95"/>
</g>
<path fill-rule="evenodd" clip-rule="evenodd" d="M82.3652 52.8165C77.3262 52.8165 72.6973 55.2774 68.4785 60.1993V113.725C71.5534 111.114 74.8867 108.532 78.4785 105.979L78.5859 105.902C92.5312 95.8829 99.5039 85.3946 99.5039 74.4376C99.5039 69.1055 97.9219 64.1837 94.7578 59.6719C91.5938 55.1016 87.4629 52.8165 82.3652 52.8165ZM86.5359 65.364L86.5531 65.3889L86.5705 65.4137C88.5969 68.3032 89.5039 71.2323 89.5039 74.4376C89.5039 79.6292 86.7998 85.9561 78.4785 93.2577V64.3587C80.1551 63.0617 81.4388 62.8165 82.3652 62.8165C83.8477 62.8165 85.0413 63.2052 86.5359 65.364Z" fill="#FED900"/>
<path fill-rule="evenodd" clip-rule="evenodd" d="M237.229 117.416C241.506 113.373 245.256 108.481 248.479 102.738C251.701 96.9376 253.312 91.752 253.312 87.1817C253.312 82.6114 251.672 79.5059 248.391 77.8653C247.219 77.2794 245.695 76.9864 243.82 76.9864C242.004 76.9864 239.982 77.543 237.756 78.6563C235.529 79.711 233.332 81.1758 231.164 83.0508C226.594 87.0352 222.756 91.8692 219.65 97.5528C216.545 103.236 214.992 108.481 214.992 113.285C214.992 118.031 216.809 121.225 220.441 122.865C221.73 123.451 223.312 123.744 225.188 123.744C227.062 123.744 229.025 123.188 231.076 122.074C233.127 120.902 235.178 119.35 237.229 117.416ZM242.037 87.6937L242.133 87.6482L242.228 87.6006C242.692 87.3688 243.05 87.224 243.312 87.1337L243.312 87.1817C243.312 89.4532 242.485 92.931 239.747 97.8641C236.964 102.819 233.819 106.878 230.362 110.146C228.825 111.595 227.438 112.623 226.216 113.333C225.572 113.673 225.238 113.735 225.167 113.744C225.142 113.744 225.118 113.744 225.094 113.744C225.064 113.743 225.034 113.743 225.006 113.742C224.997 113.611 224.992 113.46 224.992 113.285C224.992 110.638 225.856 107.051 228.426 102.348C231 97.6368 234.107 93.7553 237.72 90.6017C239.308 89.2309 240.751 88.3026 242.037 87.6937Z" fill="#FED900"/>
<path fill-rule="evenodd" clip-rule="evenodd" d="M535.881 78.0411C532.951 78.0411 529.846 79.0958 526.564 81.2051C523.342 83.2559 520.441 85.8633 517.863 89.0274C512.121 96.1172 509.25 103.324 509.25 110.648C509.25 115.805 510.832 119.438 513.996 121.547C516.926 123.481 521.379 123.217 527.355 120.756C533.391 118.236 538.752 114.984 543.439 111V79.8868C541.33 78.6563 538.811 78.0411 535.881 78.0411ZM533.439 106.101C530.458 108.19 527.161 109.999 523.524 111.519C521.61 112.305 520.283 112.64 519.452 112.762C519.351 112.342 519.25 111.664 519.25 110.648C519.25 106.138 520.967 101.09 525.619 95.3401C527.567 92.9507 529.675 91.079 531.933 89.6418L531.953 89.6294L531.972 89.6169C532.519 89.2651 533.008 88.9907 533.439 88.777V106.101Z" fill="#FED900"/>
<path fill-rule="evenodd" clip-rule="evenodd" d="M78.1348 257.742L67.8516 262.752V229.617C77.5781 222.645 84.9609 219.158 90 219.158C91.582 219.158 92.9883 219.451 94.2188 220.037C98.0273 221.854 99.9316 225.574 99.9316 231.199C99.9316 236.824 97.4121 242.479 92.373 248.162C89.6777 251.209 84.9316 254.402 78.1348 257.742ZM84.8904 241.528L84.8831 241.536C83.8362 242.72 81.6671 244.447 77.8516 246.601V234.883C80.5888 233.099 82.9504 231.761 84.9537 230.815C87.5809 229.575 89.0973 229.246 89.7406 229.175C89.831 229.55 89.9316 230.194 89.9316 231.199C89.9316 233.634 88.8818 237.026 84.8904 241.528Z" fill="#FED900"/>
<path fill-rule="evenodd" clip-rule="evenodd" d="M229.131 288.416C233.408 284.373 237.158 279.48 240.381 273.738C243.604 267.938 245.215 262.752 245.215 258.182C245.215 253.611 243.574 250.506 240.293 248.865C239.121 248.279 237.598 247.986 235.723 247.986C233.906 247.986 231.885 248.543 229.658 249.656C227.432 250.711 225.234 252.176 223.066 254.051C218.496 258.035 214.658 262.869 211.553 268.553C208.447 274.236 206.895 279.48 206.895 284.285C206.895 289.031 208.711 292.225 212.344 293.865C213.633 294.451 215.215 294.744 217.09 294.744C218.965 294.744 220.928 294.188 222.979 293.074C225.029 291.902 227.08 290.35 229.131 288.416ZM233.939 258.694L234.035 258.648L234.13 258.601C234.594 258.369 234.953 258.224 235.215 258.134L235.215 258.182C235.215 260.453 234.387 263.931 231.649 268.864C228.866 273.819 225.721 277.878 222.264 281.146C220.727 282.595 219.34 283.623 218.118 284.333C217.474 284.673 217.14 284.735 217.069 284.744C217.012 284.744 216.958 284.743 216.908 284.742C216.9 284.611 216.895 284.46 216.895 284.285C216.895 281.638 217.758 278.051 220.328 273.348C222.902 268.637 226.009 264.755 229.623 261.602C231.21 260.231 232.654 259.303 233.939 258.694Z" fill="#FED900"/>
<path fill-rule="evenodd" clip-rule="evenodd" d="M368.701 288.416C372.979 284.373 376.729 279.48 379.951 273.738C383.174 267.938 384.785 262.752 384.785 258.182C384.785 253.611 383.145 250.506 379.863 248.865C378.691 248.279 377.168 247.986 375.293 247.986C373.477 247.986 371.455 248.543 369.229 249.656C367.002 250.711 364.805 252.176 362.637 254.051C358.066 258.035 354.229 262.869 351.123 268.553C348.018 274.236 346.465 279.48 346.465 284.285C346.465 289.031 348.281 292.225 351.914 293.865C353.203 294.451 354.785 294.744 356.66 294.744C358.535 294.744 360.498 294.188 362.549 293.074C364.6 291.902 366.65 290.35 368.701 288.416ZM373.509 258.694L373.605 258.648L373.701 258.601C374.164 258.369 374.523 258.224 374.785 258.134L374.785 258.182C374.785 260.454 373.957 263.932 371.218 268.866C368.435 273.82 365.291 277.878 361.835 281.146C360.297 282.595 358.91 283.623 357.689 284.333C357.045 284.673 356.71 284.735 356.639 284.744C356.582 284.744 356.529 284.743 356.478 284.742C356.47 284.611 356.465 284.46 356.465 284.285C356.465 281.638 357.328 278.051 359.899 273.348C362.472 268.637 365.579 264.756 369.192 261.603C370.779 260.231 372.223 259.303 373.509 258.694Z" fill="#FED900"/>
<path fill-rule="evenodd" clip-rule="evenodd" d="M13.0712 5.6661L3.81055 6.35264V166H81.1192C104.805 166.062 125.01 159.284 140.823 144.976C148.626 137.988 154.661 129.465 158.95 119.553C159.412 118.492 159.849 117.417 160.261 116.328C163.286 129.675 170.395 141.283 181.441 150.884C195.468 163.143 212.273 169.252 231.34 169.252H231.366L231.392 169.252C244.002 169.186 255.954 166.418 267.124 160.933C278.441 155.377 287.634 147.419 294.504 137.113C297.979 131.902 300.565 126.324 302.287 120.423V166H374.494V88.2087C375.758 90.4344 376.994 95.0263 376.994 103.266V166H449.553V127.378C450.176 129.492 450.909 131.573 451.753 133.62L451.773 133.669L451.794 133.718C455.085 141.467 459.591 148.173 465.409 153.627L465.433 153.65L465.458 153.673C471.163 158.951 477.746 162.883 485.121 165.44C490.943 167.49 496.705 168.751 502.361 169.08H433.936V253.011C430.739 240.984 424.357 230.573 414.67 222.099C400.525 209.666 383.133 203.621 363.164 203.621C343.135 203.621 325.715 209.822 311.577 222.523C302.908 230.273 296.866 239.442 293.437 249.843C290.008 239.149 283.926 229.82 275.099 222.099C260.954 209.666 243.563 203.621 223.594 203.621C203.566 203.621 186.148 209.821 172.01 222.52C167.149 226.865 163.114 231.656 159.903 236.861C159.374 216.278 153.38 199.298 139.922 188.3L139.911 188.291L139.9 188.282C132.896 182.591 124.296 178.671 114.478 176.232C104.664 173.78 91.9609 172.684 76.7285 172.684C61.3384 172.684 38.9695 174.16 9.82743 177.039L0.810547 177.929V337H78.2031V311.827L83.7353 311.951H83.8477C94.1218 311.951 103.916 310.234 113.148 306.73C122.279 303.264 130.38 298.375 137.343 292.026C142.601 287.232 147.013 281.73 150.577 275.564C151.475 293.932 159.165 309.562 173.343 321.884C187.37 334.143 204.176 340.252 223.242 340.252H223.269L223.295 340.252C235.905 340.185 247.856 337.418 259.027 331.933C270.343 326.377 279.536 318.419 286.406 308.113C289.447 303.552 291.808 298.711 293.504 293.617C297.142 304.349 303.641 313.826 312.916 321.886C326.943 334.144 343.747 340.252 362.812 340.252H362.839L362.865 340.252C375.475 340.185 387.427 337.418 398.597 331.933C409.913 326.377 419.106 318.419 425.977 308.113C429.571 302.721 432.216 296.938 433.936 290.809V337H503.77V169.143C504.449 169.164 505.126 169.171 505.802 169.164C522.876 169.106 537.376 164.182 548.503 154.078L556.738 166H600.812V84.6133H607.004V120.316C607.004 134.667 611.797 147.028 621.964 156.278L621.979 156.292L621.994 156.306C631.953 165.291 644.6 169.428 659.016 169.428C673.657 169.428 687.399 164.955 700.053 156.363L702.175 154.922C703.113 156.365 704.174 157.752 705.362 159.076L705.384 159.1L705.405 159.123C712.059 166.443 721.564 169.158 731.754 169.164C742.707 169.232 752.38 165.591 759.692 157.698L759.709 157.679L759.727 157.66C766.401 150.379 770.09 141.726 770.09 132.006C770.09 122.868 767.258 114.591 761.196 107.915C754.582 100.497 745.284 97.5949 735.18 97.6602C724.397 97.6691 714.962 101.603 707.573 109.39C705.655 111.41 703.964 113.537 702.519 115.766H694.436C686.283 115.766 683.137 114.058 682.168 113.153C681.129 112.052 679.562 109.164 679.562 102.211V84.6133H704.436V36.752H679.562V0.787476L607.004 8.18894V36.752H557.643L549.672 45.2799L549.604 45.2192L549.597 45.2135C540.101 36.8767 528.821 32.6212 516.193 32.6212C504.213 32.6212 492.851 35.7946 482.256 41.9711C477.02 45.0041 472.27 48.7207 468.022 53.096C459.151 61.9865 453.023 72.8815 449.553 85.5175V81.4688C449.553 67.2095 444.741 54.9348 434.576 45.7559C424.55 36.6488 411.433 32.6212 396.398 32.6212C387.423 32.6212 378.231 34.9907 368.945 39.2414L368.933 39.247L368.921 39.2526C363.614 41.6988 358.826 44.6808 354.621 48.2212L346.167 36.752H302.287V81.3633C299.035 69.6095 292.71 59.4206 283.197 51.0989C269.052 38.6662 251.66 32.6212 231.691 32.6212C211.664 32.6212 194.245 38.8214 180.107 51.5199C173.335 57.5742 168.166 64.4944 164.593 72.1911C163.365 63.4782 160.884 54.8907 157.188 46.4504C151.577 33.5014 143.154 22.9247 131.942 14.9681C126.052 10.7452 119.453 7.51822 112.227 5.23768C104.521 2.7272 94.7539 1.68365 83.4199 1.68365C72.1401 1.68365 48.5506 3.03583 13.0712 5.6661ZM134.133 137.543C120.48 149.906 102.814 156.059 81.1348 156H13.8105V15.6387C49.377 13.002 72.5801 11.6837 83.4199 11.6837C94.3184 11.6837 102.902 12.709 109.172 14.7598C115.5 16.752 121.154 19.5352 126.135 23.1094C135.803 29.9649 143.098 39.0762 148.02 50.4434C153 61.8106 155.49 73.3243 155.49 84.9844C155.49 96.6446 153.586 106.84 149.777 115.57C146.027 124.242 140.812 131.566 134.133 137.543ZM231.34 159.252C214.582 159.252 200.139 153.949 188.01 143.344C175.061 132.094 168.586 117.943 168.586 100.893C168.586 83.7833 174.65 69.8087 186.779 58.9688C198.908 48.0704 213.879 42.6212 231.691 42.6212C249.504 42.6212 264.475 47.9532 276.604 58.6172C288.732 69.2227 294.826 83.4317 294.885 101.244C294.943 112.67 292.043 122.777 286.184 131.566C280.324 140.356 272.502 147.152 262.717 151.957C252.932 156.762 242.473 159.193 231.34 159.252ZM505.734 159.164C500.344 159.223 494.572 158.168 488.42 156C482.326 153.891 476.936 150.668 472.248 146.332C467.561 141.938 463.811 136.43 460.998 129.809C458.244 123.129 456.867 115.951 456.867 108.275C456.867 100.6 457.629 93.9493 459.152 88.3243C462.199 77.1329 467.531 67.7286 475.148 60.1114C478.781 56.3614 482.824 53.1973 487.277 50.6192C496.418 45.2872 506.057 42.6212 516.193 42.6212C526.318 42.6212 535.201 45.9439 542.841 52.5894C542.894 52.6356 542.947 52.682 543 52.7286C545.461 54.8965 547.6 57.3868 549.416 60.1993L561.984 46.752H590.812V156H561.984L549.416 137.807C547.411 140.765 545.191 143.416 542.756 145.759C533.516 154.649 521.176 159.118 505.734 159.164ZM752.355 150.902C747.199 156.469 740.344 159.223 731.789 159.164C723.234 159.164 716.906 156.908 712.805 152.397C708.703 147.826 706.652 142.113 706.652 135.258C706.652 128.344 709.377 122.016 714.826 116.273C720.275 110.531 727.072 107.66 735.217 107.66C743.42 107.602 749.602 109.916 753.762 114.604C757.98 119.232 760.09 125.033 760.09 132.006C760.09 138.979 757.512 145.277 752.355 150.902ZM669.562 102.211C669.562 110.473 671.408 116.479 675.1 120.229C678.85 123.92 685.295 125.766 694.436 125.766V148.09C683.303 155.648 671.496 159.428 659.016 159.428C646.594 159.428 636.486 155.912 628.693 148.881C620.9 141.791 617.004 132.27 617.004 120.316V74.6133H606.984V46.752H617.004V17.2208L669.562 11.8594V46.752H694.436V74.6133H669.562V102.211ZM396.398 42.6212C409.641 42.6212 420.129 46.1368 427.863 53.168C435.656 60.1993 439.553 69.6329 439.553 81.4688V156H386.994V103.266C386.994 85.3946 381.838 76.459 371.525 76.459C366.838 76.459 364.494 80.2383 364.494 87.7969V156H312.287V46.752H341.115L353.684 63.8028C355.661 61.0591 357.956 58.5553 360.57 56.2913C364.152 53.1884 368.331 50.536 373.107 48.334C381.428 44.5255 389.191 42.6212 396.398 42.6212ZM83.8477 301.951L68.2031 301.6V327H10.8105V186.99C39.873 184.119 61.8457 182.684 76.7285 182.684C91.6113 182.684 103.389 183.768 112.061 185.936C120.791 188.104 127.969 191.473 133.594 196.043C144.492 204.949 149.941 219.568 149.941 239.9C149.941 249.041 148.213 257.42 144.756 265.037C141.299 272.654 136.582 279.188 130.605 284.637C124.629 290.086 117.627 294.334 109.6 297.381C101.572 300.428 92.9883 301.951 83.8477 301.951ZM223.242 330.252C206.484 330.252 192.041 324.949 179.912 314.344C166.963 303.094 160.488 288.943 160.488 271.893C160.488 254.783 166.553 240.809 178.682 229.969C190.811 219.07 205.781 213.621 223.594 213.621C241.406 213.621 256.377 218.953 268.506 229.617C280.635 240.223 286.729 254.432 286.787 272.244C286.846 283.67 283.945 293.777 278.086 302.566C272.227 311.355 264.404 318.152 254.619 322.957C244.834 327.762 234.375 330.193 223.242 330.252ZM362.812 330.252C346.055 330.252 331.611 324.949 319.482 314.344C306.533 303.094 300.059 288.943 300.059 271.893C300.059 254.783 306.123 240.809 318.252 229.969C330.381 219.07 345.352 213.621 363.164 213.621C380.977 213.621 395.947 218.953 408.076 229.617C420.205 240.223 426.299 254.432 426.357 272.244C426.416 283.67 423.516 293.777 417.656 302.566C411.797 311.355 403.975 318.152 394.189 322.957C384.404 327.762 373.945 330.193 362.812 330.252ZM493.77 179.08V327H443.936V179.08H493.77Z" fill="#FED900"/>
<path fill-rule="evenodd" clip-rule="evenodd" d="M650.547 236.932H550.303V283.035H650.547V236.932ZM560.303 273.035V246.932H640.547V273.035H560.303Z" fill="#FED900"/>
<defs>
<filter id="filter0_i_826_3121" x="10.8105" y="11.6836" width="749.279" height="322.568" filterUnits="userSpaceOnUse" color-interpolation-filters="sRGB">
<feFlood flood-opacity="0" result="BackgroundImageFix"/>
<feBlend mode="normal" in="SourceGraphic" in2="BackgroundImageFix" result="shape"/>
<feColorMatrix in="SourceAlpha" type="matrix" values="0 0 0 0 0 0 0 0 0 0 0 0 0 0 0 0 0 0 127 0" result="hardAlpha"/>
<feOffset dy="10"/>
<feGaussianBlur stdDeviation="2"/>
<feComposite in2="hardAlpha" operator="arithmetic" k2="-1" k3="1"/>
<feColorMatrix type="matrix" values="0 0 0 0 1 0 0 0 0 1 0 0 0 0 1 0 0 0 0.5 0"/>
<feBlend mode="normal" in2="shape" result="effect1_innerShadow_826_3121"/>
</filter>
</defs>
</svg>
