<svg width="901" height="128" viewBox="0 0 901 128" fill="none" xmlns="http://www.w3.org/2000/svg">
<g filter="url(#filter0_i_423_1236)">
<path d="M61.9219 28.5264C59.8906 27.7451 57.7188 27.3545 55.4062 27.3545C50.6562 27.3545 46.5156 29.0889 42.9844 32.5576C39.4844 35.9951 37.7344 40.1201 37.7344 44.9326C37.7344 48.1514 38.3594 50.667 39.6094 52.4795C40.8594 54.292 42.5625 55.1982 44.7188 55.1982C46.875 55.1982 49.25 54.6514 51.8438 53.5576C54.4688 52.4326 58.3125 50.0107 63.375 46.292V76.8076C56.7188 79.4951 49.6406 80.8389 42.1406 80.8389C34.6719 80.8389 27.7812 79.4014 21.4688 76.5264C11.4375 71.9326 4.82812 64.7451 1.64062 54.9639C0.578125 51.6201 0.03125 47.9326 0 43.9014C0 39.8701 0.5 36.0107 1.5 32.3232C2.5 28.6357 3.95312 25.2295 5.85938 22.1045C9.67188 15.8232 15.0156 10.9014 21.8906 7.33887C28.7969 3.77637 36.7031 2.01074 45.6094 2.04199C52.3906 2.04199 57.8281 2.80762 61.9219 4.33887V28.5264Z" fill="#FF6B95"/>
<path d="M80.8125 73.8545C78.3125 71.5107 76.3125 68.5732 74.8125 65.042C73.3438 61.4795 72.6094 57.6514 72.6094 53.5576C72.6094 49.4639 73.0156 45.917 73.8281 42.917C75.4531 36.9482 78.2969 31.9326 82.3594 27.8701C84.2969 25.8701 86.4531 24.1826 88.8281 22.8076C93.7031 19.9639 98.8438 18.542 104.25 18.542C109.688 18.542 114.453 20.3389 118.547 23.9326C119.859 25.0889 121 26.417 121.969 27.917L128.672 20.7451H144.047V79.0107H128.672L121.969 69.3076C116.844 76.8701 109.078 80.667 98.6719 80.6982C95.7969 80.7295 92.7188 80.167 89.4375 79.0107C86.1875 77.8857 83.3125 76.167 80.8125 73.8545ZM118.781 38.417C117.656 37.7607 116.312 37.4326 114.75 37.4326C113.188 37.4326 111.531 37.9951 109.781 39.1201C108.062 40.2139 106.516 41.6045 105.141 43.292C102.078 47.0732 100.547 50.917 100.547 54.8232C100.547 57.5732 101.391 59.5107 103.078 60.6357C104.641 61.667 107.016 61.5264 110.203 60.2139C113.422 58.8701 116.281 57.1357 118.781 55.0107V38.417Z" fill="#FF6B95"/>
<path d="M196.922 42.7295C194.047 42.7295 191.094 43.7764 188.062 45.8701C185.031 47.9639 183.5 49.9482 183.469 51.8232V79.0107H155.25V20.7451H183.469V26.9795C185.062 24.5732 187.031 22.6514 189.375 21.2139C191.75 19.7764 194.266 18.917 196.922 18.6357V42.7295Z" fill="#FF6B95"/>
<path d="M238.828 18.6357C242.547 18.6357 246.375 19.2451 250.312 20.4639V0.120117H277.594V79.0107H260.203L253.5 69.3076C247.781 76.8701 240.266 80.6514 230.953 80.6514C223.484 80.6514 216.953 78.1201 211.359 73.0576C205.797 67.9639 203.016 61.4482 203.016 53.5107C203.016 45.5732 204.641 39.042 207.891 33.917C214.328 23.7295 224.641 18.6357 238.828 18.6357ZM250.312 38.417C249.25 37.7607 248.094 37.4326 246.844 37.4326C245.594 37.4326 244.391 37.6826 243.234 38.1826C240.859 39.2139 238.734 40.8857 236.859 43.1982C235.859 44.3232 235.016 45.5264 234.328 46.8076C232.828 49.5576 232.078 52.292 232.078 55.0107C232.078 57.6982 232.906 59.5732 234.562 60.6357C235.156 61.0107 235.875 61.2139 236.719 61.2451C240.781 61.2451 245.312 59.1982 250.312 55.1045V38.417Z" fill="#FF6B95"/>
<path d="M295.406 73.8545C292.906 71.5107 290.906 68.5732 289.406 65.042C287.938 61.4795 287.203 57.6514 287.203 53.5576C287.203 49.4639 287.609 45.917 288.422 42.917C290.047 36.9482 292.891 31.9326 296.953 27.8701C298.891 25.8701 301.047 24.1826 303.422 22.8076C308.297 19.9639 313.438 18.542 318.844 18.542C324.281 18.542 329.047 20.3389 333.141 23.9326C334.453 25.0889 335.594 26.417 336.562 27.917L343.266 20.7451H358.641V79.0107H343.266L336.562 69.3076C331.438 76.8701 323.672 80.667 313.266 80.6982C310.391 80.7295 307.312 80.167 304.031 79.0107C300.781 77.8857 297.906 76.167 295.406 73.8545ZM333.375 38.417C332.25 37.7607 330.906 37.4326 329.344 37.4326C327.781 37.4326 326.125 37.9951 324.375 39.1201C322.656 40.2139 321.109 41.6045 319.734 43.292C316.672 47.0732 315.141 50.917 315.141 54.8232C315.141 57.5732 315.984 59.5107 317.672 60.6357C319.234 61.667 321.609 61.5264 324.797 60.2139C328.016 58.8701 330.875 57.1357 333.375 55.0107V38.417Z" fill="#FF6B95"/>
<path d="M401.438 36.5889C398.938 36.5889 397.688 38.6045 397.688 42.6357V79.0107H369.844V20.7451H385.219L391.922 29.8389C394.422 26.3701 397.875 23.6201 402.281 21.5889C406.719 19.5576 410.859 18.542 414.703 18.542C421.766 18.542 427.359 20.417 431.484 24.167C435.641 27.917 437.719 32.9482 437.719 39.2607V79.0107H409.688V50.8857C409.688 41.3545 406.938 36.5889 401.438 36.5889Z" fill="#FF6B95"/>
<path d="M489.047 37.3389C488.422 37.0264 487.609 36.8701 486.609 36.8701C485.641 36.8701 484.562 37.167 483.375 37.7607C482.188 38.3232 481.016 39.1045 479.859 40.1045C477.422 42.2295 475.375 44.8076 473.719 47.8389C472.062 50.8701 471.234 53.667 471.234 56.2295C471.234 58.7607 472.203 60.4639 474.141 61.3389C474.828 61.6514 475.672 61.8076 476.672 61.8076C477.672 61.8076 478.719 61.5107 479.812 60.917C480.906 60.292 482 59.4639 483.094 58.4326C485.375 56.2764 487.375 53.667 489.094 50.6045C490.812 47.5107 491.672 44.7451 491.672 42.3076C491.672 39.8701 490.797 38.2139 489.047 37.3389ZM479.953 80.7451C471.016 80.7451 463.312 77.917 456.844 72.2607C449.938 66.2607 446.484 58.7139 446.484 49.6201C446.484 40.4951 449.719 33.042 456.188 27.2607C462.656 21.4482 470.641 18.542 480.141 18.542C489.641 18.542 497.625 21.3857 504.094 27.0732C510.562 32.7295 513.812 40.3076 513.844 49.8076C513.875 55.9014 512.328 61.292 509.203 65.9795C506.078 70.667 501.906 74.292 496.688 76.8545C491.469 79.417 485.891 80.7139 479.953 80.7451Z" fill="#FF6B95"/>
<path d="M523.219 36.3076H559.031V56.5576H523.219V36.3076Z" fill="#FF6B95"/>
</g>
<g filter="url(#filter1_i_423_1236)">
<path d="M46.6406 121.886C40.7031 125.917 34.4062 127.933 27.75 127.933C21.125 127.933 15.7344 126.058 11.5781 122.308C7.42188 118.526 5.34375 113.448 5.34375 107.073V82.6982H0V67.8389H5.34375V52.0889L33.375 49.2295V67.8389H46.6406V82.6982H33.375V97.417C33.375 101.823 34.3594 105.026 36.3281 107.026C38.3281 108.995 41.7656 109.979 46.6406 109.979V121.886Z" fill="#FF6B95"/>
<path d="M96.9375 89.8232C94.0625 89.8232 91.1094 90.8701 88.0781 92.9639C85.0469 95.0576 83.5156 97.042 83.4844 98.917V126.104H55.2656V67.8389H83.4844V74.0732C85.0781 71.667 87.0469 69.7451 89.3906 68.3076C91.7656 66.8701 94.2812 66.0107 96.9375 65.7295V89.8232Z" fill="#FF6B95"/>
<path d="M111.703 120.948C109.203 118.604 107.203 115.667 105.703 112.136C104.234 108.573 103.5 104.745 103.5 100.651C103.5 96.5576 103.906 93.0107 104.719 90.0107C106.344 84.042 109.188 79.0264 113.25 74.9639C115.188 72.9639 117.344 71.2764 119.719 69.9014C124.594 67.0576 129.734 65.6357 135.141 65.6357C140.578 65.6357 145.344 67.4326 149.438 71.0264C150.75 72.1826 151.891 73.5107 152.859 75.0107L159.562 67.8389H174.938V126.104H159.562L152.859 116.401C147.734 123.964 139.969 127.761 129.562 127.792C126.688 127.823 123.609 127.261 120.328 126.104C117.078 124.979 114.203 123.261 111.703 120.948ZM149.672 85.5107C148.547 84.8545 147.203 84.5264 145.641 84.5264C144.078 84.5264 142.422 85.0889 140.672 86.2139C138.953 87.3076 137.406 88.6982 136.031 90.3857C132.969 94.167 131.438 98.0107 131.438 101.917C131.438 104.667 132.281 106.604 133.969 107.729C135.531 108.761 137.906 108.62 141.094 107.308C144.312 105.964 147.172 104.229 149.672 102.104V85.5107Z" fill="#FF6B95"/>
<path d="M217.734 83.6826C215.234 83.6826 213.984 85.6982 213.984 89.7295V126.104H186.141V67.8389H201.516L208.219 76.9326C210.719 73.4639 214.172 70.7139 218.578 68.6826C223.016 66.6514 227.156 65.6357 231 65.6357C238.062 65.6357 243.656 67.5107 247.781 71.2607C251.938 75.0107 254.016 80.042 254.016 86.3545V126.104H225.984V97.9795C225.984 88.4482 223.234 83.6826 217.734 83.6826Z" fill="#FF6B95"/>
<path d="M308.062 85.3232C301.125 83.6982 296.078 82.8857 292.922 82.8857C292.016 82.8857 291.312 83.0889 290.812 83.4951C290.344 83.9014 290.109 84.3545 290.109 84.8545C290.109 85.8857 291.391 86.9326 293.953 87.9951C296.547 89.0264 298.922 90.042 301.078 91.042C303.234 92.042 305.094 93.2607 306.656 94.6982C310.031 97.8232 311.719 102.479 311.719 108.667C311.719 114.823 309.484 119.558 305.016 122.87C300.547 126.183 294.5 127.839 286.875 127.839C279.25 127.839 273.156 127.136 268.594 125.729C266.594 125.136 265.062 124.433 264 123.62V106.229C264.438 106.261 265.203 106.464 266.297 106.839C267.391 107.214 269.203 107.808 271.734 108.62C274.266 109.401 276.562 109.792 278.625 109.792C280.719 109.792 281.766 109.026 281.766 107.495C281.766 106.308 280.828 105.151 278.953 104.026C278.109 103.526 277.156 103.011 276.094 102.479C271.688 100.323 268.531 97.8389 266.625 95.0264C264.75 92.1826 263.812 88.8545 263.812 85.042C263.812 78.2607 266.562 73.1982 272.062 69.8545C276.688 67.042 282.734 65.6357 290.203 65.6357C295.422 65.6357 300.656 66.1514 305.906 67.1826C307.031 67.4014 307.75 67.5576 308.062 67.6514V85.3232Z" fill="#FF6B95"/>
<path d="M327.797 120.948C325.297 118.604 323.297 115.667 321.797 112.136C320.328 108.573 319.594 104.745 319.594 100.651C319.594 96.5576 320 93.0107 320.812 90.0107C322.438 84.042 325.281 79.0264 329.344 74.9639C331.281 72.9639 333.438 71.2764 335.812 69.9014C340.688 67.0576 345.828 65.6357 351.234 65.6357C356.672 65.6357 361.438 67.4326 365.531 71.0264C366.844 72.1826 367.984 73.5107 368.953 75.0107L375.656 67.8389H391.031V126.104H375.656L368.953 116.401C363.828 123.964 356.062 127.761 345.656 127.792C342.781 127.823 339.703 127.261 336.422 126.104C333.172 124.979 330.297 123.261 327.797 120.948ZM365.766 85.5107C364.641 84.8545 363.297 84.5264 361.734 84.5264C360.172 84.5264 358.516 85.0889 356.766 86.2139C355.047 87.3076 353.5 88.6982 352.125 90.3857C349.062 94.167 347.531 98.0107 347.531 101.917C347.531 104.667 348.375 106.604 350.062 107.729C351.625 108.761 354 108.62 357.188 107.308C360.406 105.964 363.266 104.229 365.766 102.104V85.5107Z" fill="#FF6B95"/>
<path d="M435.844 108.339C439 108.339 443.562 106.104 449.531 101.636V124.558C439.281 128.433 429.828 128.979 421.172 126.198C412.516 123.417 406.375 118.448 402.75 111.292C400.938 107.667 400.031 103.417 400.031 98.542C400.031 88.7295 403.406 80.7764 410.156 74.6826C416.906 68.5889 425.688 65.542 436.5 65.542C440.969 65.542 445 66.2139 448.594 67.5576V85.6045C447.75 84.8857 446.562 84.5264 445.031 84.5264C443.5 84.5264 441.859 85.0107 440.109 85.9795C438.359 86.9482 436.766 88.2451 435.328 89.8701C432.016 93.6201 430.359 97.4795 430.359 101.448C430.391 105.386 431.594 107.604 433.969 108.104C434.594 108.229 435.219 108.308 435.844 108.339Z" fill="#FF6B95"/>
<path d="M504.609 121.886C498.672 125.917 492.375 127.933 485.719 127.933C479.094 127.933 473.703 126.058 469.547 122.308C465.391 118.526 463.312 113.448 463.312 107.073V82.6982H457.969V67.8389H463.312V52.0889L491.344 49.2295V67.8389H504.609V82.6982H491.344V97.417C491.344 101.823 492.328 105.026 494.297 107.026C496.297 108.995 499.734 109.979 504.609 109.979V121.886Z" fill="#FF6B95"/>
<path d="M527.672 40.8389C532.266 40.8389 535.672 41.8076 537.891 43.7451C540.109 45.6514 541.203 48.0889 541.172 51.0576C541.172 54.0264 539.75 56.7607 536.906 59.2607C534.094 61.7607 530.328 63.0107 525.609 63.0107C518.984 63.0107 514.859 61.0107 513.234 57.0107C512.766 55.8857 512.531 54.6357 512.531 53.2607C512.531 51.8857 512.859 50.4482 513.516 48.9482C514.172 47.4482 515.156 46.1045 516.469 44.917C519.375 42.1982 523.109 40.8389 527.672 40.8389ZM540.375 126.104H513.234V67.8389H540.375V126.104Z" fill="#FF6B95"/>
<path d="M592.125 84.4326C591.5 84.1201 590.688 83.9639 589.688 83.9639C588.719 83.9639 587.641 84.2607 586.453 84.8545C585.266 85.417 584.094 86.1982 582.938 87.1982C580.5 89.3232 578.453 91.9014 576.797 94.9326C575.141 97.9639 574.312 100.761 574.312 103.323C574.312 105.854 575.281 107.558 577.219 108.433C577.906 108.745 578.75 108.901 579.75 108.901C580.75 108.901 581.797 108.604 582.891 108.011C583.984 107.386 585.078 106.558 586.172 105.526C588.453 103.37 590.453 100.761 592.172 97.6982C593.891 94.6045 594.75 91.8389 594.75 89.4014C594.75 86.9639 593.875 85.3076 592.125 84.4326ZM583.031 127.839C574.094 127.839 566.391 125.011 559.922 119.354C553.016 113.354 549.562 105.808 549.562 96.7139C549.562 87.5889 552.797 80.1357 559.266 74.3545C565.734 68.542 573.719 65.6357 583.219 65.6357C592.719 65.6357 600.703 68.4795 607.172 74.167C613.641 79.8232 616.891 87.4014 616.922 96.9014C616.953 102.995 615.406 108.386 612.281 113.073C609.156 117.761 604.984 121.386 599.766 123.948C594.547 126.511 588.969 127.808 583.031 127.839Z" fill="#FF6B95"/>
<path d="M657.797 83.6826C655.297 83.6826 654.047 85.6982 654.047 89.7295V126.104H626.203V67.8389H641.578L648.281 76.9326C650.781 73.4639 654.234 70.7139 658.641 68.6826C663.078 66.6514 667.219 65.6357 671.062 65.6357C678.125 65.6357 683.719 67.5107 687.844 71.2607C692 75.0107 694.078 80.042 694.078 86.3545V126.104H666.047V97.9795C666.047 88.4482 663.297 83.6826 657.797 83.6826Z" fill="#FF6B95"/>
<path d="M705.141 83.4014H740.953V103.651H705.141V83.4014Z" fill="#FF6B95"/>
<path d="M778.969 126.104H752.391V47.2139H778.969V126.104Z" fill="#FF6B95"/>
<path d="M804.797 40.8389C809.391 40.8389 812.797 41.8076 815.016 43.7451C817.234 45.6514 818.328 48.0889 818.297 51.0576C818.297 54.0264 816.875 56.7607 814.031 59.2607C811.219 61.7607 807.453 63.0107 802.734 63.0107C796.109 63.0107 791.984 61.0107 790.359 57.0107C789.891 55.8857 789.656 54.6357 789.656 53.2607C789.656 51.8857 789.984 50.4482 790.641 48.9482C791.297 47.4482 792.281 46.1045 793.594 44.917C796.5 42.1982 800.234 40.8389 804.797 40.8389ZM817.5 126.104H790.359V67.8389H817.5V126.104Z" fill="#FF6B95"/>
<path d="M873.469 126.245C869.281 127.37 863.547 127.933 856.266 127.933C848.984 127.933 839.891 127.073 828.984 125.354V47.2139H856.266V74.7295C860.297 70.917 865.188 68.4951 870.938 67.4639C872.5 67.1826 873.875 67.042 875.062 67.042C883.219 67.042 889.562 69.7764 894.094 75.2451C898.625 80.7139 900.891 87.4014 900.891 95.3076C900.891 99.5264 899.688 103.917 897.281 108.479C892.594 117.354 884.656 123.276 873.469 126.245ZM869.766 86.542C865.672 86.542 861.125 88.5889 856.125 92.6826V110.354H860.766C863.891 110.354 866.938 108.464 869.906 104.683C872.906 100.87 874.406 96.9639 874.406 92.9639C874.406 90.1201 873.578 88.167 871.922 87.1045C871.328 86.7295 870.609 86.542 869.766 86.542Z" fill="#FF6B95"/>
</g>
<defs>
<filter id="filter0_i_423_1236" x="0" y="0.120117" width="559.031" height="84.7188" filterUnits="userSpaceOnUse" color-interpolation-filters="sRGB">
<feFlood flood-opacity="0" result="BackgroundImageFix"/>
<feBlend mode="normal" in="SourceGraphic" in2="BackgroundImageFix" result="shape"/>
<feColorMatrix in="SourceAlpha" type="matrix" values="0 0 0 0 0 0 0 0 0 0 0 0 0 0 0 0 0 0 127 0" result="hardAlpha"/>
<feOffset dy="6"/>
<feGaussianBlur stdDeviation="2"/>
<feComposite in2="hardAlpha" operator="arithmetic" k2="-1" k3="1"/>
<feColorMatrix type="matrix" values="0 0 0 0 1 0 0 0 0 1 0 0 0 0 1 0 0 0 0.5 0"/>
<feBlend mode="normal" in2="shape" result="effect1_innerShadow_423_1236"/>
</filter>
<filter id="filter1_i_423_1236" x="0" y="40.8389" width="900.891" height="91.1025" filterUnits="userSpaceOnUse" color-interpolation-filters="sRGB">
<feFlood flood-opacity="0" result="BackgroundImageFix"/>
<feBlend mode="normal" in="SourceGraphic" in2="BackgroundImageFix" result="shape"/>
<feColorMatrix in="SourceAlpha" type="matrix" values="0 0 0 0 0 0 0 0 0 0 0 0 0 0 0 0 0 0 127 0" result="hardAlpha"/>
<feOffset dy="6"/>
<feGaussianBlur stdDeviation="2"/>
<feComposite in2="hardAlpha" operator="arithmetic" k2="-1" k3="1"/>
<feColorMatrix type="matrix" values="0 0 0 0 1 0 0 0 0 1 0 0 0 0 1 0 0 0 0.5 0"/>
<feBlend mode="normal" in2="shape" result="effect1_innerShadow_423_1236"/>
</filter>
</defs>
</svg>
