<svg width="770" height="795" viewBox="0 0 770 795" fill="none" xmlns="http://www.w3.org/2000/svg">
<g clip-path="url(#clip0_1191_5109)">
<path fill-rule="evenodd" clip-rule="evenodd" d="M88.5356 235.836C76.9702 233.002 63.0994 238.331 56.9387 250.652C63.2505 243.357 78.7844 243.924 80.0694 253.524C74.8159 269.134 86.0033 274.009 95.4521 271.175C115.37 265.203 105.846 240.107 88.5356 235.836Z" fill="#FF6B95"/>
<path fill-rule="evenodd" clip-rule="evenodd" d="M198.369 749.625C187.068 730.992 186.879 736.586 176.636 724.529C153.317 697.014 136.838 648.636 151.087 585.291C161.707 538.274 175.124 477.688 191.339 432.976C203.131 400.548 204.491 407.54 219.723 379.685C215.376 375.528 209.745 370.879 206.57 364.378C200.901 352.661 210.085 337.43 212.504 340.189C239.868 371.635 281.858 375.528 322.602 376.586C375.061 377.984 475.408 365.512 536.75 304.737C542.948 298.576 550.507 298.009 548.466 308.214C547.975 310.595 546.879 312.863 546.463 314.904C545.632 319.099 547.862 321.254 552.095 317.209C554.249 315.169 557.121 311.956 561.317 307.156C566.759 300.957 576.359 284.819 580.328 260.403C582.104 249.632 583.011 239.691 582.369 229.449C581.462 215.011 579.799 205.449 576.019 191.049C573.184 180.202 569.178 166.52 573.336 157.335C576.019 151.326 580.441 148.529 585.354 148.038C592.725 147.282 595.786 151.175 600.888 155.824C596.202 136.888 600.208 109.789 625.531 114.627C627.345 111.452 637.89 109.487 642.312 112.624C651.194 107.899 660 113.266 663.213 115.231C668.995 113.833 679.578 117.915 682.035 122.828C705.392 134.091 701.348 140.328 696.85 168.825C692.882 193.921 695.15 218.904 687.515 232.132C685.436 235.723 681.997 262.18 681.09 275.483C678.028 320.649 687.893 377.72 645.562 480.372C670.129 547.307 698.513 686.696 590.343 743.805C582.066 748.151 573.033 753.102 569.669 760.85C561.959 778.614 537.128 789.008 515.017 780.504C505.72 782.62 492.68 785.531 485.046 778.312C470.532 778.917 457.682 779.219 454.394 759.036C444.945 759.036 410.136 769.657 376.233 769.695C344.296 769.695 312.888 759.074 312.775 759.112C314.098 767.427 303.515 778.879 289.909 777.896C278.532 784.284 266.665 788.819 265.153 778.387C253.625 787.458 239.301 784.926 234.35 776.46C224.976 782.28 212.617 776.535 209.896 768.221C209.783 767.918 202.073 758.696 198.369 749.625Z" fill="white"/>
<path fill-rule="evenodd" clip-rule="evenodd" d="M280.573 126.343C304.724 117.424 321.165 112.321 337.871 109.487C397.701 99.3575 453.638 107.068 500.542 148.454C538.224 181.676 572.995 234.476 548.353 286.406C506.022 375.792 335.83 396.315 259.559 372.617C251.32 370.085 226.073 357.424 212.542 345.178C181.399 317.058 184.422 271.515 197.65 236.328C213.638 193.846 237.524 142.217 280.573 126.343Z" fill="white" stroke="#FF6B95" stroke-width="0.288"/>
<path fill-rule="evenodd" clip-rule="evenodd" d="M203.131 229.6C206.041 214.369 197.764 193.317 189.94 168.409C180.907 139.534 178.715 121.883 179.698 91.0803C180.113 78.4945 181.247 66.7402 183.213 59.7102C186.085 49.5055 191.339 44.0252 198.255 43.7606C219.609 42.8913 243.572 62.885 259.597 76.4913C265.417 81.4047 311.112 115.496 314.816 117.197C251.017 129.858 212.542 208.246 203.131 229.6Z" fill="#99FF99" stroke="#FF6B95" stroke-width="0.288"/>
<path fill-rule="evenodd" clip-rule="evenodd" d="M278.684 133.449C256.989 102.948 245.273 103.704 220.365 68.7433C215.754 62.2047 199.2 42.7024 192.284 50.2614C185.745 57.4803 183.024 80.0441 183.969 99.2819C186.917 158.394 199.087 171.169 211.446 212.479C215.414 202.425 229.398 181.676 244.214 164.781C256.8 150.457 271.616 137.946 278.684 133.449Z" fill="#FF6B95"/>
<path fill-rule="evenodd" clip-rule="evenodd" d="M394.11 108.428C403.446 95.9559 411.95 87.1874 424.725 66.2866C429.789 58.0095 451.559 26.9418 469.361 10.9921C481.833 -0.233048 494.192 0.296086 504.624 12.6929C505.304 13.4866 505.947 14.2803 506.551 15.1118C521.48 35.4835 535.767 122.337 522.652 173.55C503.868 144.334 432.321 108.693 394.11 108.428Z" fill="#99FF99" stroke="#FF6B95" stroke-width="0.288"/>
<path fill-rule="evenodd" clip-rule="evenodd" d="M443.735 122.035C452.693 92.5921 463.124 41.1906 473.821 20.063C480.208 7.43939 493.021 2.67718 501.298 18.0221C528.019 67.4583 517.361 146.715 513.468 166.255C489.921 139.874 463.88 129.027 443.735 122.035Z" fill="#FF6B95"/>
<path fill-rule="evenodd" clip-rule="evenodd" d="M363.043 232.624C364.554 244.189 366.18 251.332 358.923 257.266C357.562 258.362 355.899 259.458 353.858 260.479C339.912 268.907 329.858 270.532 322.715 269.436C314.929 268.189 310.772 263.729 309.033 260.932C308.655 260.328 307.181 260.252 307.597 261.65C313.72 282.135 343.124 269.361 351.137 265.506C351.931 267.773 352.989 270.683 356.239 271.704C358.847 272.535 359.376 271.855 359.528 270.57C359.717 269.021 359.717 266.261 360.208 262.028C363.118 260.479 363.761 258.891 365.953 257.342C367.162 258.249 369.241 260.97 373.058 262.822C373.172 265.128 373.398 267.622 373.89 271.213C374.117 272.876 376.838 271.969 377.821 271.25C379.257 270.154 380.617 268.302 380.239 264.598C390.633 267.471 413.008 268 422.23 261.121C426.009 258.287 427.37 252.844 425.594 248.8C425.556 248.724 425.48 248.573 425.405 248.498C425.329 248.384 425.178 248.422 425.102 248.498C425.065 248.535 425.027 248.611 425.027 248.649C424.989 248.724 424.989 248.762 424.951 248.8C419.811 262.822 407.036 265.997 389.121 263.389C381.638 262.293 375.742 259.761 371.735 255.528C366.973 250.387 365.991 241.354 366.217 232.321L363.043 232.624Z" fill="#45323D"/>
<path fill-rule="evenodd" clip-rule="evenodd" d="M408.019 214.633C410.135 213.348 424.762 204.391 442.904 204.542C448.8 204.58 458.854 209.077 466.337 209.946C472.233 210.665 476.353 208.813 476.655 202.69C466.715 195.168 450.728 189.953 438.293 192.409C424.006 195.244 411.572 205.109 408.019 214.633Z" fill="#25131D"/>
<path fill-rule="evenodd" clip-rule="evenodd" d="M255.931 219.093C257.896 226.312 263.943 227.219 270.86 224.762C273.619 223.78 276.567 222.079 279.364 220.529C296.107 211.231 318.406 219.131 325.285 221.436C320.523 211.42 303.326 205.524 293.197 204.617C285.147 203.937 277.852 205.676 269.461 209.946C263.717 212.894 258.123 216.523 255.931 219.093Z" fill="#25131D"/>
<path fill-rule="evenodd" clip-rule="evenodd" d="M687.515 232.132C694.734 217.846 694.885 174.192 696.851 168.825C689.292 173.058 677.499 178.312 664.649 171.32C661.21 177.291 674.325 187.95 663.024 203.559C657.241 211.609 643.446 217.014 628.63 215.729C627.005 254.923 651.269 265.732 666.085 267.395C665.934 278.129 665.48 278.696 664.838 288.825C641.329 297.745 633.846 330.551 647.603 349.449C651.118 353.228 649.266 359.162 645.903 366.079C622.81 413.096 608.712 422.016 587.206 476.857C578.325 499.609 600.284 576.75 600.435 583.364C581.31 647.238 494.457 751.704 295.654 695.654C288.926 692.781 268.252 684.164 263.868 678.343C277.247 678.419 299.244 665.38 299.547 629.058C299.736 607.893 291.534 588.504 277.55 572.706L274.639 571.118C286.885 596.668 291.61 629.55 275.471 650.488C258.992 671.918 221.084 680.838 181.474 655.78C199.427 687.263 198.973 701.965 199.918 737.871C239.603 718.784 303.553 729.518 312.057 764.781C353.783 776.611 437.613 769.959 449.329 762.891C452.013 760.283 456.057 735.717 495.591 727.175C529.266 719.918 557.953 734.545 562.526 733.222L587.471 745.694C691.484 699.206 663.213 568.472 651.269 479.389C662.23 469.071 670.091 425.191 668.882 400.51C677.688 359.162 681.052 328.548 678.444 284.063C678.406 283.723 678.406 283.42 678.369 283.08C681.014 264.372 679.654 246.457 687.515 232.132ZM593.065 682.387C586.224 711.376 601.115 648.296 593.065 682.387V682.387Z" fill="#F0E5D9"/>
<path fill-rule="evenodd" clip-rule="evenodd" d="M518.57 727.931C542.91 727.439 555.194 741.915 541.965 761.342C552.699 762.891 551.074 775.213 549.335 777.594C556.932 778.35 573.6 755.559 579.231 751.326C621.184 719.918 657.506 687.225 662.721 630.154C663.515 584.724 657.959 560.044 654.86 554.602C662.759 619.496 627.836 715.723 562.791 729.405C529.72 719.238 543.024 727.137 518.57 727.931Z" fill="#C8A599"/>
<path fill-rule="evenodd" clip-rule="evenodd" d="M278.91 367.628C287.528 373.978 361.946 380.025 376.346 378.967C469.814 372.05 513.43 356.781 521.632 268.227L518.192 265.997L507.912 264.75C508.554 280.019 486.898 301.676 477.298 307.874C414.709 359.88 348.302 364.302 303.024 359.843C308.277 363.433 308.088 363.698 315.647 364.68L278.91 367.628Z" fill="#F0E5D9"/>
<path fill-rule="evenodd" clip-rule="evenodd" d="M507.987 221.02C513.241 232.246 518.948 248.006 518.003 267.357C510.671 322.274 496.12 338.602 485.726 346.841C523.143 341.776 542.343 301.449 548.353 277.033C553.417 258.589 551.301 227.181 538.186 195.849C508.139 188.97 506.665 215.578 507.987 221.02Z" fill="#CAB4AA"/>
<path fill-rule="evenodd" clip-rule="evenodd" d="M395.962 109.184C416.485 110.923 442.45 122.299 464.636 130.312C468.945 126.759 470.835 119.502 468.454 115.118C457.947 120.712 451.899 121.468 450.539 120.976C465.165 114.513 468.907 108.277 466.639 101.209C461.613 103.628 457.417 104.649 454.885 104.913C457.191 99.1307 469.285 99.4331 466.791 89.9842L456.057 92.9323C458.249 86.2047 469.55 85.978 466.148 76.2646L457.153 80.4598C470.23 69.8394 465.128 42.8157 473.783 24.0315C487.011 -4.61733 499.143 15.5654 506.06 35.7102C516.794 67.1559 517.928 127.402 507.912 158.243C510.784 161.72 514.828 165.159 515.282 166.444C528.208 124.907 528.435 39.3386 493.058 5.5496C465.279 -8.13229 423.855 67.685 395.962 109.184Z" fill="white"/>
<path fill-rule="evenodd" clip-rule="evenodd" d="M182.684 139.572C189.94 168.409 196.592 200.271 205.776 225.783C208.573 218.072 207.591 219.433 214.054 207.603C204.038 181.071 186.954 121.165 188.769 66.778C189.184 55.4394 192.51 45.3102 202.337 51.5843C210.123 56.5354 216.926 67.7984 220.857 73.241C224.901 78.8347 235.068 92.3276 244.139 100.643L233.556 97.5811C232.082 107.143 247.465 110.734 251.131 111.49C245.348 113.115 236.655 111.036 235.181 109.638C231.666 119.238 247.767 121.543 254.91 123.773C254.646 124 254.306 124.189 254.041 124.34C253.776 124.491 253.512 124.718 253.172 124.907C252.869 125.058 252.68 125.209 252.302 125.361C248.145 126.532 241.833 125.474 237.902 123.698C237.827 132.844 249.808 135.528 256.044 135.943C250.639 139.307 243.987 137.871 241.38 136.51C242.513 147.811 247.691 153.896 252.189 156.126C278.759 130.085 289.493 126.079 313.417 116.365C312.926 116.29 249.203 50.8284 209.934 42.0976C198.822 38.3181 189.449 39.3008 184.573 46.7843C170.778 67.9496 179.622 124.189 182.684 139.572Z" fill="white"/>
<path fill-rule="evenodd" clip-rule="evenodd" d="M636.642 163.987C618.198 161.153 600.926 166.331 602.287 187.005C604.668 216.409 637.247 222.154 655.653 209.38C673.228 197.209 671.301 169.354 636.642 163.987Z" fill="#F0E5D9"/>
<path fill-rule="evenodd" clip-rule="evenodd" d="M609.258 239.894C581.256 249.999 591.624 297.191 623.599 287.762C652.812 279.155 643.365 227.564 609.258 239.894Z" fill="#FF6B95"/>
<path fill-rule="evenodd" clip-rule="evenodd" d="M555.269 607.364C542.873 628.869 564.302 645.764 585.203 624.598C603.761 605.965 586.375 584.8 568.649 593.606C564 595.95 559.351 600.334 555.269 607.364Z" fill="#FF6B95"/>
<path fill-rule="evenodd" clip-rule="evenodd" d="M552.624 674.677C548.013 666.891 534.709 663.452 521.367 672.863C509.953 680.913 503.452 692.63 509.915 699.735C511.918 701.927 518.003 702.759 522.198 702.835C536.409 703.061 562.791 691.761 552.624 674.677Z" fill="#FF6B95"/>
<path fill-rule="evenodd" clip-rule="evenodd" d="M175.578 610.198C179.509 630.57 212.277 627.471 207.893 604.718C203.962 584.157 170.967 586.387 175.578 610.198Z" fill="#FF6B95"/>
<path fill-rule="evenodd" clip-rule="evenodd" d="M671.49 253.562C681.921 248.498 677.613 230.507 666.841 227.483C650.967 223.024 646.885 239.729 653.121 249.14C656.447 254.205 663.742 257.342 671.49 253.562Z" fill="#FF6B95"/>
<path fill-rule="evenodd" clip-rule="evenodd" d="M555 344.786C544.939 342.553 540.476 342.305 535.067 340C491.039 381.339 302.975 412.29 218.929 379.637C209.738 391.904 206.031 393.606 201 404.668C310.767 471.958 529.393 492.38 555 344.786Z" fill="#C8A599"/>
<path fill-rule="evenodd" clip-rule="evenodd" d="M610.715 205.222C622.28 222.872 654.331 217.128 663.402 201.102C667.748 193.43 666.577 181.146 657.581 174.306C663.969 199.402 627.723 213.915 610.715 205.222Z" fill="#FF6B95"/>
<path fill-rule="evenodd" clip-rule="evenodd" d="M171.383 425.304C141.638 427.836 103.427 407.351 89.8583 377.191C73.4552 340.718 86.0032 309.461 107.206 303.036C149.877 290.148 152.069 252.92 133.587 225.329C108.454 187.798 55.6914 189.877 28.1764 218.299C-28.4787 276.844 -2.92906 435.962 148.97 473.455L171.383 425.304Z" fill="white"/>
<path fill-rule="evenodd" clip-rule="evenodd" d="M300.907 685.109C306.047 696.22 334.129 699.206 326.192 679.855C320.296 665.417 292.894 667.95 300.907 685.109Z" fill="#FF6B95"/>
<path fill-rule="evenodd" clip-rule="evenodd" d="M154.299 446.507C91.2946 435.169 17.8962 380.743 58.7529 281.493C62.5324 296.422 92.8064 303.83 133.399 281.833C132.832 287.578 125.386 291.546 121.304 293.058C87.7797 305.38 84.0001 312.523 79.6537 338.148C71.4521 386.337 128.372 428.214 166.545 429.915C161.329 435.169 158.608 439.78 154.299 446.507Z" fill="#F0E5D9"/>
<path fill-rule="evenodd" clip-rule="evenodd" d="M602.476 680.309C607.011 667.383 592.573 666.702 589.663 679.477C588.605 684.088 589.096 690.891 594.652 689.153C599.036 687.754 600.888 684.806 602.476 680.309Z" fill="#FF6B95"/>
<path fill-rule="evenodd" clip-rule="evenodd" d="M604.214 155.483C607.389 162.173 615.515 165.31 624.321 162.022C631.427 159.376 634.98 152.951 635.66 143.351C629.235 152.044 614.117 158.545 604.214 155.483Z" fill="#FF6B95"/>
<path fill-rule="evenodd" clip-rule="evenodd" d="M499.519 373.641C516.798 368.916 531.613 377.656 535.705 394C543.89 387.996 556.621 345.395 557 332C539.873 348.237 501.073 369.946 488 377.123L499.519 373.641Z" fill="#45323D"/>
<path fill-rule="evenodd" clip-rule="evenodd" d="M669.5 624C685 613.5 691 605 695.5 584C697.384 547.826 667.5 525.5 654.164 525.5C650.27 508.456 645.184 494.661 640.5 481.5C645.64 475.453 659.055 466.614 660.113 462.57C747.043 490.538 792.359 583.893 757.323 660.995C733.247 713.946 665.858 732.957 616.611 723.093C622.734 720.485 660.5 673 669.5 624Z" fill="white"/>
<path fill-rule="evenodd" clip-rule="evenodd" d="M666.992 624.447C667.143 634.879 660.567 658.803 657.052 668.214C681.846 661.336 707.32 638.016 713.027 627.131C726.406 601.581 722.022 567.376 706.526 543.187C694.054 523.761 674.287 508.34 650.287 502.52C654.595 508.265 657.732 515.673 660 524.214C675.874 522.173 730.753 591.414 666.992 624.447Z" fill="#C8A599"/>
<path fill-rule="evenodd" clip-rule="evenodd" d="M635.433 145.657C635.471 149.55 636.567 159.263 641.48 163.685C645.6 167.465 654.746 166.86 659.017 165.159C666.085 162.513 672.85 147.509 668.768 132.05C667.975 148.454 661.209 159.49 643.332 153.594C639.288 152.233 636.453 149.625 635.433 145.657Z" fill="#FF6B95"/>
<path fill-rule="evenodd" clip-rule="evenodd" d="M539.66 349.524C544.384 345.216 556.743 346.69 563.282 344.044C562.375 331.307 565.89 315.169 569.518 302.809C573.071 290.715 576.624 280.283 580.101 268.302C598.243 205.26 558.255 168.939 580.63 152.611C587.131 147.849 592.233 150.494 596.731 154.841C600.132 158.129 606.331 163.005 608.296 165.65C592.989 184.17 599.868 206.129 619.03 214.217C649.228 226.954 681.468 199.175 664.082 172.265C673.909 180.315 686.532 178.879 695.225 171.509C695.15 176.346 688.006 177.934 684.869 182.167C681.43 186.816 682.262 193.921 690.35 196.076L689.216 206.016C681.619 202.614 667.748 200.724 669.373 212.857C670.205 219.32 679.918 226.69 684.68 230.469C669.562 289.052 678.104 310.595 673.758 356.441C665.745 394.463 656.523 465.934 636.567 476.403C658.488 540.58 687.742 691.609 586.375 734.62C581.197 741.991 574.507 748.378 569.216 755.143C564.869 760.737 559.691 773.058 552.17 774.343L552.699 762.891L545.329 775.591C543.742 780.126 523.521 784.057 517.285 780.58C513.846 778.236 508.403 763.496 528.699 752.724C517.739 753.858 505.606 767.351 511.767 780.882C477.902 786.891 476.58 766.784 489.732 754.463C483.912 756.542 474.047 767.162 478.696 777.783C452.731 778.576 447.326 752.762 473.329 738.589C482.929 733.373 490.564 730.614 497.972 729.254C516.983 725.814 538.639 729.254 557.31 733.789L556.517 731.257C550.621 728.687 525.033 718.444 492.454 725.701C454.167 734.243 452.353 754.954 449.783 757.524C438.406 764.63 324.416 766.406 313.569 758.772C310.28 752.384 309.525 750.192 298.375 741.348C279.742 726.532 242.702 725.209 227.471 728.838C248.674 728.913 306.917 734.998 303.78 763.118C303.024 769.959 294.973 775.515 288.435 776.422C290.551 773.512 291.08 759.263 277.776 751.893C291.761 766.255 289.72 780.655 267.61 782.696C267.572 773.285 270.482 766.255 264.813 759.414C262.394 756.58 256.573 753.443 246.822 751.553C252.227 752.876 271.351 760.321 262.507 776.158C257.745 784.737 241.871 785.758 234.35 776.46C234.614 764.29 229.058 753.065 218.778 751.893C241.266 768.372 219.61 787.647 209.178 764.403C202.262 751.742 207.515 749.361 195.421 738.891C184.309 729.254 174.066 717.386 164.958 703.628C117.676 632.271 181.588 461.096 218.06 390.343C275.736 437.663 476.92 406.935 539.66 349.524ZM208.233 40.3591C219.723 42.8535 234.501 50.0724 242.325 55.2126C270.028 73.5811 302.495 103.855 303.893 104.951L312.813 113.493C324.756 107.786 355.899 98.9417 394.526 99.7354C408.548 79.7795 441.09 25.9591 468.491 7.51496C481.002 -0.913382 491.811 -2.04724 499.862 5.51181C529.947 33.7071 536.825 122.564 524.088 168.447C525.562 169.43 543.969 192.674 551.792 217.43C566.91 265.392 545.669 296.044 541.965 299.068C542.532 300.466 543.628 300.466 544.725 300.277C549.525 299.408 549.94 307.118 548.353 313.09C543.855 330.287 559.956 302.847 570.614 276.617C580.781 251.635 581.462 235.647 577.304 209.417C576.397 203.672 575.263 197.89 573.865 192.636C571.332 183.074 569.027 175.213 569.518 166.255C570.047 156.769 574.205 147.924 583.994 146.904C590.003 146.299 596.731 149.323 599.036 152.649C596.58 138.967 595.295 129.972 604.214 120.145C607.011 117.046 612.491 113.304 618.047 112.775C623.868 112.208 621.751 113.833 627.345 111.452C631.427 109.676 637.058 109.298 641.405 110.847C650.249 107.824 658.073 108.806 665.14 114.173C670.394 114.324 677.688 114.022 682.639 120.863C710.457 127.099 704.561 163.572 696.851 176.649C694.318 189.991 698.362 213.083 689.896 230.847C677.046 257.757 686.041 326.054 681.959 358.368C676.479 401.946 665.972 460.34 655.691 483.887C671.452 566.356 705.354 682.803 602.551 745.279C574.318 762.438 582.86 775.25 556.479 786.589C530.06 797.928 455.225 799.061 443.131 770.639C420.227 779.597 348.605 780.769 315.307 769.959C309.827 780.731 300.416 804.088 221.499 788.063C202.337 784.17 197.235 780.806 193.833 767.351C191.679 758.885 188.088 751.78 183.742 745.203C166.054 728.649 126.331 694.935 141.6 603.093C153.317 532.605 176.75 455.578 207.477 391.477C210.274 387.849 213.411 385.732 210.69 380.479C206.873 373.033 200.107 369.783 201.128 357.159C201.695 350.167 203.887 349.487 205.361 344.762C206.154 342.268 205.814 340.945 205.134 339.773C180.227 314.526 185.48 260.97 196.97 230.583C200.523 221.209 198.482 221.89 196.29 214.104C187.786 183.943 170.211 115.156 175.729 72.6362C178.299 52.6803 184.649 35.2189 208.233 40.3591ZM180.416 78.3055C180.643 122.677 196.403 189.424 208.044 219.131C195.307 258.022 185.896 315.206 222.822 346.047C265.455 381.726 462.822 389.323 524.844 311.465C540.832 291.395 550.356 265.506 546.879 240.372C543.024 212.139 526.243 178.954 503.414 161.644C503.15 161.417 502.961 156.542 503.263 154.387C504.851 155.257 509.613 158.583 514.186 162.967C526.394 125.436 524.693 51.5465 499.068 13.2598C496.8 9.85827 494.457 7.36378 492.189 6.11654C472.12 -3.1811 444.567 39.074 437.764 48.4472C433.871 54.6835 402.35 108.239 400.233 109.6C371.206 106.35 342.973 110.129 303.742 120.334C294.142 112.813 265.039 79.0236 231.931 56.4221C229.247 54.5701 226.753 52.9827 224.41 51.5843C195.458 34.5386 180.227 43.6472 180.416 78.3055ZM653.046 209.569C623.792 225.783 588.454 197.096 611.433 167.729C619.219 163.723 636.378 163.194 650.513 169.808C664.876 176.573 672.851 196.831 653.046 209.569ZM680.258 126.381C700.554 119.843 706.526 166.746 686.079 173.058C672.17 177.367 665.443 169.354 669.487 157.26C675.458 138.211 666.312 130.879 680.258 126.381ZM654.142 112.888C673.644 117.575 675.005 166.595 650.74 164.932C642.539 164.403 637.55 159.452 637.21 151.213C636.794 141.083 634.715 108.202 654.142 112.888ZM634.451 143.427C633.77 152.46 630.406 158.469 623.754 160.964C599.036 170.224 591.024 127.855 612.189 117.499C628.441 109.562 634.677 128.233 634.451 143.427ZM679.729 122.828C676.63 123.395 674.249 124.718 671.868 127.477C670.734 123.962 668.958 120.032 666.501 117.461C671.377 116.819 676.365 118.18 679.729 122.828ZM627.874 115.383C630.331 114.06 634.224 112.057 639.553 113.606C636.302 117.235 635.169 121.203 634.98 123.509C633.846 120.258 631.578 117.499 627.874 115.383Z" fill="#45323D"/>
<path fill-rule="evenodd" clip-rule="evenodd" d="M150.028 485.096C136.989 577.279 198.104 614.243 281.556 619.231C297.619 620.176 302.306 617.228 302.306 617.228C298.186 619.572 339.194 646.784 375.364 618.287C375.364 618.287 386.438 619.572 399.628 615.452C419.622 609.216 439.88 591.565 436.857 561.178C430.016 493.071 346.715 503.767 337.077 531.206C337.077 531.206 334.734 527.049 318.973 518.016C303.213 508.983 296.296 505.883 296.296 505.883C320.145 451.383 220.781 376.926 207.704 386.299C175.2 409.657 155.584 445.751 150.028 485.096Z" fill="white"/>
<path d="M300.076 613.789C316.441 630.986 354.047 629.852 372.832 615.074L374.154 614.016L375.817 614.205C375.855 614.205 386.06 615.414 398.419 611.559C408.321 608.46 419.169 603.131 425.896 591.792C446.57 557.361 429.109 523.458 390.293 515.786C369.959 511.742 348.038 518.129 336.586 541.222C328.876 528.107 303.288 511.817 294.633 509.625L290.891 507.962C315.043 452.819 249.619 394.576 206.003 392.762C192.926 403.194 181.399 416.271 172.895 430.784C111.288 533.02 194.287 629.89 300.076 613.789ZM205.323 382.973C208.762 380.479 214.81 381.159 222.217 384.409C267.761 403.345 303.137 427.08 301.474 503.843C312.624 509.436 322.451 514.954 338.589 525.386C374.646 496.359 430.885 505.694 440.183 553.392C447.931 600.598 409.115 627.546 376.649 621.121C361.984 635.219 323.547 640.888 300.151 622.255C114.69 629.512 99.9119 458.715 205.323 382.973Z" fill="#45323D"/>
<path d="M189.713 495.754C200.939 482.035 224.069 477.764 245.31 482.488C265.833 486.986 285.827 496.057 298.11 502.217C312.473 509.436 332.315 519.868 346.11 528.825C331.748 546.438 321.354 594.135 351.175 603.66C351.78 603.849 353.934 604.189 354.576 604.378C355.937 604.794 356.617 609.745 351.893 609.027C320.75 604.302 320.107 562.727 331.106 535.099C316.101 525.046 283.03 498.135 242.967 489.291C225.128 485.361 205.021 486.494 194.211 499.761C193.077 501.159 192.246 501.764 191.225 501.461C188.806 500.781 188.391 497.417 189.713 495.754Z" fill="#45323D"/>
<path fill-rule="evenodd" clip-rule="evenodd" d="M425.858 566.356C430.091 586.539 406.318 597.764 387.496 597.764C368.712 597.764 352.951 584.611 352.006 570.476C351.439 561.972 353.518 554.904 360.019 548.895C369.543 540.126 421.625 546.211 425.858 566.356Z" fill="#F0E5D9"/>
<path fill-rule="evenodd" clip-rule="evenodd" d="M365.839 590.167C385.039 603.924 414.066 596.932 423.024 583.25C427.824 575.843 424.573 562.879 414.293 557.285C420.68 582.381 382.847 598.822 365.839 590.167Z" fill="#FF6B95"/>
<path d="M427.861 565.94C428.239 567.717 428.391 569.38 428.391 571.005C428.391 578.564 424.687 584.724 419.017 589.411C413.537 593.946 406.205 597.046 398.721 598.595C385.833 601.317 372.869 599.54 362.173 591.339C355.106 585.896 350.495 578.413 349.965 570.627C349.663 566.091 350.041 561.934 351.402 558.079C352.8 554.186 355.106 550.633 358.62 547.383C363.496 542.923 373.852 542.091 382.847 542.62C399.477 543.528 423.893 547.043 427.861 565.94ZM423.553 572.554C423.553 549.046 364.176 537.858 356.013 560.989C354.841 564.315 353.783 566.356 354.047 570.362C355.37 589.827 381.562 599.389 398.608 595.798C414.369 592.661 423.553 584.838 423.553 572.554Z" fill="#45323D"/>
<path fill-rule="evenodd" clip-rule="evenodd" d="M412.328 553.808C427.068 552.183 435.043 541.978 436.479 527.502C438.18 510.646 425.669 505.997 415.767 511.439C406.545 516.504 399.931 530.677 400.384 543.641C400.649 550.557 404.504 554.677 412.328 553.808Z" fill="white"/>
<path fill-rule="evenodd" clip-rule="evenodd" d="M341.424 526.784C343.087 540.088 348 550.482 360.019 548.895C373.928 547.08 370.526 527.351 369.997 520.057C369.543 513.632 366.671 505.846 360.624 503.767C351.78 500.668 336.472 507.244 341.424 526.784Z" fill="white"/>
<path d="M361.191 547.118C371.736 545.72 370.186 530.979 369.43 523.194C368.788 516.277 365.575 504.485 356.542 505.43C350.23 505.732 345.279 508.869 343.351 514.312C340.328 522.891 346.186 549.083 361.191 547.118ZM339.307 527.049V527.011C338.892 522.891 337.418 516.012 338.363 512.233C341.386 500.176 362.287 493.789 369.846 506.904C371.849 510.381 371.849 516.088 372.151 519.905C372.189 520.661 372.265 521.455 372.34 522.287C373.021 529.581 374.117 540.012 367.465 546.967C356.618 558.268 341.197 541.94 339.307 527.049Z" fill="#45323D"/>
<path fill-rule="evenodd" clip-rule="evenodd" d="M373.587 526.595C374.608 534.872 374.117 543.754 387.647 545.039C396.491 545.871 407.981 517.865 404.239 508.151C400.158 497.493 379.975 492.353 374.381 507.471C372.718 511.931 372.643 519.074 373.587 526.595Z" fill="white"/>
<path d="M397.625 531.773C399.628 525.877 403.219 512.46 399.931 506.564C394.375 496.661 372.718 496.208 375.288 519.527C375.213 525.764 376.12 540.806 383.225 543.452C388.706 545.531 395.735 539.861 397.625 531.773ZM371.773 529.581C371.698 528.825 371.622 528.031 371.471 526.86C371.131 524.252 370.98 521.795 371.017 519.49C371.017 511.477 371.471 506.224 374.268 502.368C377.178 498.324 382.583 496.246 386.287 495.754C386.891 495.679 387.496 495.641 388.101 495.679C395.206 495.754 402.501 499.572 405.335 505.354C409.38 513.631 403.635 524.668 400.951 532.567C398.457 542.809 392.485 547.912 383.528 546.929C376.006 546.135 372.529 537.14 371.773 529.581Z" fill="#45323D"/>
<path fill-rule="evenodd" clip-rule="evenodd" d="M441.014 542.545C424.271 544.208 406.394 571.723 431.981 570.74C439.087 570.475 444.454 569.228 449.102 564.353C458.816 554.261 453.751 541.298 441.014 542.545Z" fill="white"/>
<path fill-rule="evenodd" clip-rule="evenodd" d="M231.692 581.646C237.856 613.654 289.244 608.784 282.369 573.036C276.204 540.731 224.46 544.235 231.692 581.646Z" fill="#FF6B95"/>
<path fill-rule="evenodd" clip-rule="evenodd" d="M376 531.5C376.032 534.66 377.539 540.805 380 543C383.441 546.068 387.434 545.881 391 544.5C396.902 542.353 401.5 529.5 401.5 515.5C400.037 529 385.5 545.422 376 531.5Z" fill="#FF6B95"/>
<path fill-rule="evenodd" clip-rule="evenodd" d="M401.5 535.5C401.541 538.665 401.214 547.124 406.473 550.719C410.882 553.792 415.929 553.383 420.5 552C428.065 549.849 440.869 536.568 436.5 524C435.367 541.787 408.754 556.928 401.5 535.5Z" fill="#FF6B95"/>
<path d="M441.165 544.699C434.06 545.417 425.707 551.049 422.154 557.02C421.21 558.608 419.169 563.068 421.172 566.091C422.495 567.981 426.161 570.135 431.792 569.946C438.973 569.871 445.89 568.775 450.69 562.501C457.947 553.09 450.954 543.754 441.165 544.699ZM420.945 554.413C425.027 547.496 432.51 541.222 440.863 540.391C444.718 540.013 447.931 540.731 450.387 542.167C455.263 545.115 457.266 551.918 455.641 557.587C451.635 571.496 432.926 576.447 422.721 571.043C416.485 567.717 417.014 559.855 420.945 554.413Z" fill="#45323D"/>
<path fill-rule="evenodd" clip-rule="evenodd" d="M692.731 704.989C726.293 690.4 733.663 681.254 754.677 653.512C755.773 617.153 737.632 583.855 699.836 582.003C697.795 589.827 696.057 600.561 683.698 608.233C700.063 608.913 710.457 684.013 692.731 704.989Z" fill="#F0E5D9"/>
<path fill-rule="evenodd" clip-rule="evenodd" d="M760.914 603.358C760.271 600.674 757.096 573.235 724.365 566.469C733.096 555.471 739.106 546.135 745.191 533.436C758.835 551.956 763.484 573.31 760.914 603.358Z" fill="#F0E5D9"/>
<path fill-rule="evenodd" clip-rule="evenodd" d="M692.957 560.347C686.986 548.441 679.313 535.666 675.194 531.811C667.861 508.756 676.365 489.48 697.077 489.027C703.918 490.236 719.981 500.97 723.95 507.66C703.578 506.866 687.213 524.403 692.957 560.347Z" fill="#F0E5D9"/>
<path d="M419.962 550.784C427.786 547.496 436.328 537.329 436.479 527.502C436.668 515.03 422.608 506.979 413.499 513.631C409.266 516.731 406.583 522.589 404.466 528.976C403.068 533.096 402.35 537.518 402.501 541.789C403.219 551.011 411.798 554.224 419.962 550.784ZM429.827 547.572C420.832 557.852 406.091 558.419 400.233 547.572C396.983 541.562 398.419 534.419 400.195 528.069C402.539 519.527 405.449 512.346 412.176 508.68C420.907 503.88 435.118 510.041 437.953 520.094C438.709 522.778 438.973 525.764 438.558 528.976C437.839 536.346 434.665 542.772 429.827 547.572Z" fill="#45323D"/>
<path fill-rule="evenodd" clip-rule="evenodd" d="M720.775 586.954C714.652 584.12 707.66 582.381 699.836 582.003C698.476 587.181 697.266 593.644 692.995 599.654C691.408 602.942 689.367 606.154 686.759 609.254C692.731 612.958 697.568 626.45 700.101 642.4C706.337 636.58 710.948 631.061 713.027 627.131C719.339 615.036 721.72 600.976 720.775 586.954Z" fill="#45323D"/>
<path fill-rule="evenodd" clip-rule="evenodd" d="M680.825 539.068C678.671 535.78 676.668 533.209 675.194 531.811C672.85 524.479 672.132 517.524 672.888 511.402C681.014 515.937 688.346 521.682 694.696 528.221C691.748 536.384 690.879 546.967 692.92 560.006C689.896 552.145 685.512 544.926 680.825 539.068Z" fill="#45323D"/>
<path fill-rule="evenodd" clip-rule="evenodd" d="M663.893 609.896C712.309 601.279 684.378 537.972 658.413 530.564C658.224 521.984 657.165 517.827 656.145 513.934C686.684 525.386 738.577 595.269 667.03 631.477C667.899 623.011 664.573 611.597 663.893 609.896Z" fill="#45323D"/>
<path fill-rule="evenodd" clip-rule="evenodd" d="M632.258 706.954C688.12 720.863 756.378 675.546 759.439 616.548C762.841 551.238 705.468 479.843 650.135 475.307C655.276 469.26 659.055 466.614 660.113 462.57C747.043 490.539 792.359 583.893 757.323 660.995C733.247 713.946 665.858 732.957 616.611 723.093C622.734 720.485 632.107 706.917 632.258 706.954Z" fill="#45323D"/>
<path fill-rule="evenodd" clip-rule="evenodd" d="M109.663 289.581C83.7733 300.844 54.3685 297.82 53.1591 260.025C49.4173 277.222 49.6063 310.746 79.6536 338.148C81.4299 311.465 97.3418 299.106 109.663 289.581Z" fill="#C8A599"/>
<path fill-rule="evenodd" clip-rule="evenodd" d="M171.383 425.304C141.638 427.836 103.427 407.351 89.8583 377.191C73.4552 340.718 86.0032 309.461 107.206 303.036C149.877 290.148 152.069 252.92 133.587 225.329C108.454 187.798 55.6914 189.877 28.1764 218.299C-28.4787 276.844 -2.92906 435.962 148.97 473.455L171.383 425.304ZM147.912 460.454C78.0284 446.129 22.9985 388.416 13.4741 322.274C7.61582 281.493 17.5182 229.676 59.3575 211.836C115.786 187.761 169.833 261.499 109.663 289.581C35.2064 324.315 77.1591 418.539 161.065 432.712C157.474 440.46 151.805 450.816 147.912 460.454Z" fill="#45323D"/>
<path fill-rule="evenodd" clip-rule="evenodd" d="M363.005 234.249C364.025 234.627 364.705 234.929 366.18 233.909C370.224 230.658 382.054 225.631 382.507 220.038C382.469 220.227 382.431 220.454 382.394 220.643C380.995 225.178 370.828 228.013 366.217 231.528C364.743 232.472 364.025 232.17 363.043 231.792C358.431 229.827 353.367 228.013 349.096 225.518C347.282 224.422 346.035 222.835 345.808 221.89C346.413 227.219 359.187 232.51 363.005 234.249Z" fill="#E03C6B"/>
<path fill-rule="evenodd" clip-rule="evenodd" d="M363.043 231.792C364.025 232.17 364.743 232.472 366.217 231.528C370.828 228.013 380.995 225.178 382.394 220.642C383.112 218.186 381.524 216.107 378.576 215.011C371.055 212.139 354.879 213.31 348.454 217.203C346.526 218.375 345.506 220.265 345.808 221.852C345.997 222.835 347.282 224.422 349.096 225.518C353.367 228.013 358.432 229.827 363.043 231.792Z" fill="#FFC5CF"/>
<path fill-rule="evenodd" clip-rule="evenodd" d="M461.953 305.871C451.484 328.397 474.274 343.326 493.247 320.46C510.142 300.277 490.98 280.661 474.085 291.017C469.663 293.739 465.392 298.501 461.953 305.871Z" fill="#FF6B95"/>
<path fill-rule="evenodd" clip-rule="evenodd" d="M487.088 191.221C504.7 210.27 517.589 195.832 505.154 174.44C491.812 149.193 453.979 155.618 460.82 176.216C464.222 186.421 481.305 184.985 487.088 191.221Z" fill="#FF6B95"/>
<path fill-rule="evenodd" clip-rule="evenodd" d="M263.679 246.57C241.833 254.469 249.921 291.395 274.866 283.987C297.657 277.26 290.249 236.97 263.679 246.57Z" fill="#FF6B95"/>
<path fill-rule="evenodd" clip-rule="evenodd" d="M151.578 263.994C165.487 262.217 177.506 258.891 192.246 257.682C222.142 255.225 252.718 256.813 282.69 257.493C243.609 258.135 189.411 256.661 153.543 271.742C151.54 272.195 148.895 272.46 148.517 269.739C148.176 267.017 149.537 264.447 151.578 263.994Z" fill="black"/>
<path fill-rule="evenodd" clip-rule="evenodd" d="M172.328 303.943C188.617 300.164 203.282 296.12 219.269 292.378C231.817 289.43 262.356 284.894 268.668 282.627C264.435 284.517 248.863 289.279 243.005 290.11C223.162 292.907 192.964 302.998 175.654 313.165C173.424 314.224 170.854 312.976 169.947 310.444C169.002 307.912 170.06 305.002 172.328 303.943Z" fill="black"/>
<path fill-rule="evenodd" clip-rule="evenodd" d="M151.956 281.342C161.745 277.26 175.691 274.123 190.318 271.855C219.95 267.32 250.564 266.791 280.498 265.354C241.569 268.718 187.332 270.91 153.052 289.128C147.572 289.052 148.139 282.513 151.956 281.342Z" fill="black"/>
<path fill-rule="evenodd" clip-rule="evenodd" d="M160.195 290.677C186.161 285.046 260.655 277.638 271.956 273.858C267.42 275.71 250.602 280.472 244.29 281.304C222.898 284.101 182.457 289.694 163.824 299.861C161.405 300.92 158.608 299.71 157.625 297.14C156.643 294.608 157.776 291.698 160.195 290.677Z" fill="black"/>
<path fill-rule="evenodd" clip-rule="evenodd" d="M568.346 237.348C554.287 236.517 542.117 234.022 527.301 233.795C497.291 233.304 466.904 236.932 437.083 239.578C476.088 237.613 530.098 232.548 566.872 245.247C568.913 245.55 571.559 245.625 571.748 242.904C571.899 240.183 570.387 237.688 568.346 237.348Z" fill="black"/>
<path fill-rule="evenodd" clip-rule="evenodd" d="M550.28 278.62C533.726 275.899 518.835 272.838 502.658 270.154C489.959 268.076 459.156 265.581 452.731 263.729C457.039 265.317 472.913 269.058 478.847 269.474C498.803 270.948 529.606 279.036 547.521 288.031C549.865 288.939 552.321 287.54 553.077 284.932C553.833 282.362 552.586 279.528 550.28 278.62Z" fill="black"/>
<path fill-rule="evenodd" clip-rule="evenodd" d="M569.065 254.696C559.049 251.295 544.951 249.065 530.173 247.78C500.277 245.247 469.739 246.721 439.767 247.25C478.847 248.044 533.121 246.646 568.498 262.52C573.978 262.104 572.995 255.641 569.065 254.696Z" fill="black"/>
<path fill-rule="evenodd" clip-rule="evenodd" d="M561.468 264.561C535.2 260.668 460.403 258.249 448.838 255.187C453.487 256.737 470.608 260.403 476.958 260.819C498.463 262.18 539.206 265.052 558.482 273.972C560.976 274.841 563.66 273.48 564.491 270.872C565.285 268.265 563.962 265.43 561.468 264.561Z" fill="black"/>
<path fill-rule="evenodd" clip-rule="evenodd" d="M403.483 190.898C412.139 185.871 418.072 184.283 425.82 179.559C434.211 174.457 426.841 169.808 420.227 170.602C412.328 171.546 407.339 179.635 402.274 190.028C401.896 190.822 402.35 191.616 403.483 190.898Z" fill="#FFC5CF"/>
<path fill-rule="evenodd" clip-rule="evenodd" d="M313.228 193.317C308.882 187.42 295.616 177.594 289.417 180.202C284.428 182.28 285.789 189.991 296.183 192.409C300.794 193.468 307.446 192.636 312.775 194.337C313.266 194.488 313.833 194.148 313.228 193.317Z" fill="#FFC5CF"/>
<path d="M494.381 726.57C489.77 691.761 494.079 663.15 503.263 640.737C522.463 593.984 566.344 573.008 593.518 580.756C626.892 590.243 632.145 646.217 604.857 657.896C572.429 671.805 576.737 617.417 597.676 625.694" stroke="#C8A599" stroke-width="3.77953"/>
<path d="M284.92 495.981C281.14 466.841 259.408 420.655 209.329 422.394C200.107 422.734 193.946 427.231 191.868 433.128C189.184 440.687 192.057 455.313 209.669 450.778" stroke="#C8A599" stroke-width="3.77953"/>
<path d="M636.567 476.403C636.34 475.987 615.893 463.553 611.546 445.335C609.392 436.227 611.584 421.6 622.243 418.992C627.572 417.707 633.203 419.937 635.282 423.074C642.161 433.43 630.444 444.542 622.091 436.416" stroke="#C8A599" stroke-width="3.77953"/>
<path d="M211 361.517C287.638 414.495 486.599 394.541 535 314" stroke="#FF6B95" stroke-width="7.55906" stroke-linecap="round"/>
<path d="M55.049 278.545C46.5451 252.239 63.4774 234.967 82.375 235.458C104.296 236.025 113.065 256.548 102.52 267.206C90.1608 279.717 71.4522 265.657 80.8254 252.315" stroke="#C8A599" stroke-width="3.77953"/>
<path fill-rule="evenodd" clip-rule="evenodd" d="M371.471 431.783C355.748 460.054 374.154 492.86 407.717 492.18C409.795 486.926 408.208 480.615 405.525 475.512C403.748 471.884 399.024 469.843 396.491 467.424C391.314 462.397 398.041 455.783 402.35 459.978C409.304 466.706 415.087 472.489 422.003 461.339C428.428 450.983 439.805 460.318 431.263 467.689C429.336 469.163 427.862 470.637 426.728 472.111C421.777 478.385 423.099 484.583 424.838 490.517C457.115 497.131 475.37 448.451 444.68 418.63C433.72 408.01 414.066 405.667 398.23 410.353C386.06 413.981 376.838 422.145 371.471 431.783Z" fill="#FFC5CF"/>
<path fill-rule="evenodd" clip-rule="evenodd" d="M391.729 489.723C396.529 491.424 401.896 492.293 407.716 492.18C409.795 486.926 408.208 480.614 405.524 475.512C403.748 471.884 399.023 469.843 396.491 467.424C391.313 462.397 398.041 455.783 402.349 459.978C409.304 466.706 415.086 472.488 422.003 461.339C428.428 450.983 439.805 460.318 431.263 467.688C429.335 469.162 427.861 470.637 426.727 472.111C421.776 478.385 423.099 484.583 424.838 490.517C433.001 492.18 440.22 490.328 446.041 486.17C451.748 477.893 455.187 467.084 455.187 455.292C455.187 432.766 442.639 413.944 425.82 409.219C422.759 408.577 419.584 408.199 416.409 408.085C396.113 408.803 379.823 429.666 379.823 455.292C379.823 468.86 384.397 481.106 391.729 489.723Z" fill="#FF6B95"/>
<path fill-rule="evenodd" clip-rule="evenodd" d="M403.937 413.679C414.369 421.352 438.936 421.238 440.372 426.038C431.225 425.774 419.773 430.649 415.011 434.618C428.315 431.027 444.227 435.865 448.498 445.843C433.569 439.947 402.425 442.063 391.351 450.152C401.065 447.166 442.602 443.575 449.14 454.914C450.388 477.553 436.743 489.043 424.838 490.517C449.178 495.506 462.444 470.183 463.654 454.082C465.241 432.992 443.925 411.752 426.274 409.333C422.268 411.941 412.063 415.531 403.937 413.679Z" fill="#E03C6B"/>
<path fill-rule="evenodd" clip-rule="evenodd" d="M400.46 397.049C400.573 398.296 401.216 409.295 413.499 410.58C426.69 411.978 436.479 393.647 424.044 385.068C413.65 380.23 401.253 383.745 400.46 397.049Z" fill="#FF6B95"/>
<path fill-rule="evenodd" clip-rule="evenodd" d="M400.46 397.049C400.989 408.577 413.235 415.833 423.401 409.219C432.85 403.096 432.321 387.714 422.192 384.236C425.291 407.103 399.212 401.962 411.912 408.274C404.731 407.518 401.329 400.791 400.46 397.049Z" fill="#E13C6B"/>
</g>
<defs>
<clipPath id="clip0_1191_5109">
<rect width="770" height="795" fill="white"/>
</clipPath>
</defs>
</svg>
