<?xml version="1.0" encoding="UTF-8" standalone="no"?>
<!-- Created with Inkscape (http://www.inkscape.org/) -->

<svg
   width="71.630379mm"
   height="10.510918mm"
   viewBox="0 0 71.630379 10.510918"
   version="1.1"
   id="svg5"
   inkscape:version="1.2.2 (1:1.2.2+202212051552+b0a8486541)"
   sodipodi:docname="donut.svg"
   inkscape:export-filename="donat-pool.svg"
   inkscape:export-xdpi="24.290001"
   inkscape:export-ydpi="24.290001"
   xmlns:inkscape="http://www.inkscape.org/namespaces/inkscape"
   xmlns:sodipodi="http://sodipodi.sourceforge.net/DTD/sodipodi-0.dtd"
   xmlns="http://www.w3.org/2000/svg"
   xmlns:svg="http://www.w3.org/2000/svg">
  <sodipodi:namedview
     id="namedview7"
     pagecolor="#ffffff"
     bordercolor="#000000"
     borderopacity="0.25"
     inkscape:showpageshadow="2"
     inkscape:pageopacity="0.0"
     inkscape:pagecheckerboard="0"
     inkscape:deskcolor="#d1d1d1"
     inkscape:document-units="mm"
     showgrid="false"
     inkscape:zoom="1.4841611"
     inkscape:cx="307.91807"
     inkscape:cy="508.7049"
     inkscape:window-width="2560"
     inkscape:window-height="1016"
     inkscape:window-x="0"
     inkscape:window-y="27"
     inkscape:window-maximized="1"
     inkscape:current-layer="layer1" />
  <defs
     id="defs2">
    <rect
       x="108.53723"
       y="239.39272"
       width="456.42667"
       height="165.50105"
       id="rect13616" />
  </defs>
  <g
     inkscape:label="Layer 1"
     inkscape:groupmode="layer"
     id="layer1"
     transform="translate(-26.260905,-64.721457)">
    <path
       id="path111"
       style="fill:#ffccbb;fill-opacity:1;stroke-width:0.0260137"
       d="m 41.236409,65.921096 a 5.3707613,4.655632 0 0 0 -5.370761,4.655657 5.3707613,4.655632 0 0 0 5.370761,4.655613 5.3707613,4.655632 0 0 0 5.370762,-4.655613 5.3707613,4.655632 0 0 0 -5.370762,-4.655657 z m 0.05825,2.879798 a 1.9781012,1.799326 0 0 1 1.978085,1.799329 1.9781012,1.799326 0 0 1 -1.978085,1.799286 1.9781012,1.799326 0 0 1 -1.978136,-1.799286 1.9781012,1.799326 0 0 1 1.978136,-1.799329 z" />
    <path
       id="path2844"
       style="fill:#6eb5c0;fill-opacity:1;stroke-width:0.0260137"
       d="m 42.735729,66.520426 c -1.789014,-0.0061 -5.452293,0.375911 -5.598463,1.24008 -0.161291,0.953563 -1.683465,2.522901 -0.681079,4.049618 1.002385,1.526716 1.610522,1.990474 1.610522,1.990474 0,0 1.95879,1.628598 2.851614,1.323368 0.892825,-0.30523 1.307907,-0.275473 1.307907,-0.275473 0,0 2.34252,-0.680334 2.941012,-1.642848 0.598493,-0.962522 1.648706,-2.948801 1.106216,-3.568183 -0.542492,-0.61939 -1.566156,-3.008562 -3.048685,-3.102765 -0.138987,-0.0088 -0.303974,-0.01363 -0.489044,-0.01428 z m -1.427885,2.164612 a 1.9758232,1.9560557 0 0 1 1.975801,1.956013 1.9758232,1.9560557 0 0 1 -1.975801,1.956064 1.9758232,1.9560557 0 0 1 -1.975851,-1.956064 1.9758232,1.9560557 0 0 1 1.975851,-1.956013 z" />
    <ellipse
       style="fill:#006c84;fill-opacity:1;stroke-width:0.0259267"
       id="path3799-869"
       cx="44.613941"
       cy="72.201302"
       rx="0.10156786"
       ry="0.22922169" />
    <ellipse
       style="fill:#006c84;fill-opacity:1;stroke-width:0.0350665"
       id="path3799-06"
       cx="37.260571"
       cy="69.76368"
       rx="0.19858843"
       ry="0.21445866" />
    <ellipse
       style="fill:#006c84;fill-opacity:1;stroke-width:0.0346544"
       id="path3799-31"
       cx="37.47023"
       cy="71.639465"
       rx="0.26497355"
       ry="0.15697525" />
    <ellipse
       style="fill:#006c84;fill-opacity:1;stroke-width:0.0332921"
       id="path3799-6"
       cx="38.58588"
       cy="67.623444"
       rx="0.19858843"
       ry="0.1933047" />
    <ellipse
       style="fill:#006c84;fill-opacity:1;stroke-width:0.0322717"
       id="path3799-38"
       cx="41.093224"
       cy="66.836044"
       rx="0.19858843"
       ry="0.18163663" />
    <ellipse
       style="fill:#006c84;fill-opacity:1;stroke-width:0.0352122"
       id="path3799-59"
       cx="42.610508"
       cy="73.705589"
       rx="0.3547439"
       ry="0.12105568" />
    <ellipse
       style="fill:#006c84;fill-opacity:1;stroke-width:0.0296819"
       id="path3799-88"
       cx="42.812546"
       cy="67.079872"
       rx="0.19858843"
       ry="0.15365553" />
    <ellipse
       style="fill:#006c84;fill-opacity:1;stroke-width:0.0316425"
       id="path3799-106"
       cx="39.732094"
       cy="73.724838"
       rx="0.19858843"
       ry="0.17462295" />
    <ellipse
       style="fill:#006c84;fill-opacity:1;stroke-width:0.0291323"
       id="path3799-13"
       cx="40.627571"
       cy="73.192253"
       rx="0.19858843"
       ry="0.14801699" />
    <ellipse
       style="fill:#006c84;fill-opacity:1;stroke-width:0.0314662"
       id="path3799-9"
       cx="40.591755"
       cy="74.539894"
       rx="0.19858843"
       ry="0.17268309" />
    <ellipse
       style="fill:#006c84;fill-opacity:1;stroke-width:0.0453274"
       id="path3799-10"
       cx="38.58588"
       cy="72.124252"
       rx="0.19858843"
       ry="0.35832858" />
    <ellipse
       style="fill:#006c84;fill-opacity:1;stroke-width:0.0416678"
       id="path3799-86"
       cx="38.191868"
       cy="68.440247"
       rx="0.19858843"
       ry="0.30280417" />
    <ellipse
       style="fill:#006c84;fill-opacity:1;stroke-width:0.0328942"
       id="path3799-3"
       cx="40.269382"
       cy="67.868195"
       rx="0.19858843"
       ry="0.18871325" />
    <ellipse
       style="fill:#006c84;fill-opacity:1;stroke-width:0.0344038"
       id="path3799-74"
       cx="43.528927"
       cy="68.095909"
       rx="0.19858843"
       ry="0.20643044" />
    <ellipse
       style="fill:#006c84;fill-opacity:1;stroke-width:0.0352734"
       id="path3799-00"
       cx="44.7826"
       cy="69.177902"
       rx="0.19858843"
       ry="0.21699883" />
    <ellipse
       style="fill:#006c84;fill-opacity:1;stroke-width:0.0389733"
       id="path3799-08"
       cx="44.961697"
       cy="70.879677"
       rx="0.19858843"
       ry="0.26490867" />
    <ellipse
       style="fill:#006c84;fill-opacity:1;stroke-width:0.0282782"
       id="path3799-1"
       cx="37.833935"
       cy="70.649185"
       rx="0.23466526"
       ry="0.11802331" />
    <ellipse
       style="fill:#006c84;fill-opacity:1;stroke-width:0.0387375"
       id="path3799-0"
       cx="39.123165"
       cy="69.180412"
       rx="0.19858843"
       ry="0.26171231" />
    <ellipse
       style="fill:#006c84;fill-opacity:1;stroke-width:0.0342703"
       id="path3799-79"
       cx="41.809605"
       cy="68.092224"
       rx="0.19858843"
       ry="0.20483302" />
    <ellipse
       style="fill:#006c84;fill-opacity:1;stroke-width:0.0366733"
       id="path3799-5"
       cx="43.528927"
       cy="70.120949"
       rx="0.19858843"
       ry="0.23456442" />
    <ellipse
       style="fill:#006c84;fill-opacity:1;stroke-width:0.0316104"
       id="path3799-7"
       cx="42.59763"
       cy="73.234612"
       rx="0.19858843"
       ry="0.1742712" />
    <ellipse
       style="fill:#006c84;fill-opacity:1;stroke-width:0.0260137"
       id="path3799-8"
       cx="44.030396"
       cy="73.256554"
       rx="0.19858843"
       ry="0.11802331" />
    <ellipse
       style="fill:#006c84;fill-opacity:1;stroke-width:0.0260137"
       id="path3799"
       cx="37.86087"
       cy="72.50145"
       rx="0.19858843"
       ry="0.11802331" />
    <ellipse
       id="path4956"
       style="fill:#006c84;stroke:#000000;stroke-width:0.0260137"
       cx="39.156158"
       cy="73.300735"
       rx="0.0016868325"
       ry="0.0016156444" />
    <ellipse
       id="path4958"
       style="fill:#006c84;stroke:#000000;stroke-width:0.0260137"
       cx="40.421295"
       cy="73.284676"
       rx="0.0016868325"
       ry="0.0016156444" />
    <ellipse
       id="path4960"
       style="fill:#006c84;stroke:#000000;stroke-width:0.0260137"
       cx="45.236462"
       cy="72.55751"
       rx="0.0016868325"
       ry="0.0016156444" />
    <ellipse
       id="path4962"
       style="fill:#006c84;stroke:#000000;stroke-width:0.0260137"
       cx="45.249126"
       cy="72.438843"
       rx="0.0016868325"
       ry="0.0016156444" />
    <ellipse
       id="path4964"
       style="fill:#006c84;stroke:#000000;stroke-width:0.0260137"
       cx="43.937412"
       cy="71.645798"
       rx="0.0016868325"
       ry="0.0016156444" />
    <ellipse
       id="path4966"
       style="fill:#006c84;stroke:#000000;stroke-width:0.0260137"
       cx="44.825031"
       cy="71.406113"
       rx="0.0016868325"
       ry="0.0016156444" />
    <ellipse
       id="path4968"
       style="fill:#006c84;stroke:#000000;stroke-width:0.0260137"
       cx="44.597115"
       cy="70.185226"
       rx="0.0016868325"
       ry="0.0016156444" />
    <ellipse
       id="path4970"
       style="fill:#006c84;stroke:#000000;stroke-width:0.0260137"
       cx="43.98782"
       cy="69.694275"
       rx="0.0016868325"
       ry="0.0016156444" />
    <ellipse
       id="path4972"
       style="fill:#006c84;stroke:#000000;stroke-width:0.0260137"
       cx="42.958996"
       cy="68.519447"
       rx="0.0016868325"
       ry="0.0016156444" />
    <ellipse
       id="path4974"
       style="fill:#006c84;stroke:#000000;stroke-width:0.0260137"
       cx="38.945858"
       cy="68.871399"
       rx="0.0016868325"
       ry="0.0016156444" />
    <ellipse
       id="path4976"
       style="fill:#006c84;stroke:#000000;stroke-width:0.0260137"
       cx="38.571102"
       cy="69.551361"
       rx="0.0016868325"
       ry="0.0016156444" />
    <ellipse
       id="path4978"
       style="fill:#006c84;stroke:#000000;stroke-width:0.0260137"
       cx="38.548069"
       cy="70.49781"
       rx="0.0016868325"
       ry="0.0016156444" />
    <ellipse
       id="path4980"
       style="fill:#006c84;stroke:#000000;stroke-width:0.0260137"
       cx="38.50544"
       cy="70.734581"
       rx="0.0016868325"
       ry="0.0016156444" />
    <ellipse
       id="path4982"
       style="fill:#006c84;stroke:#000000;stroke-width:0.0260137"
       cx="36.76099"
       cy="70.822266"
       rx="0.0016868325"
       ry="0.0016156444" />
    <text
       xml:space="preserve"
       transform="matrix(0.26458333,0,0,0.26458333,-3.6137554,-1.1034322)"
       id="text13614"
       style="font-size:53.3333px;white-space:pre;shape-inside:url(#rect13616);fill:#006c84;fill-opacity:1"><tspan
         x="108.53711"
         y="287.43279"
         id="tspan14090"><tspan
           style="font-family:'Liberation Sans';-inkscape-font-specification:'Liberation Sans'"
           id="tspan14088">D   nat Pool</tspan></tspan></text>
  </g>
</svg>
