<?xml version="1.0" encoding="UTF-8" standalone="no"?>
<!-- Created with Inkscape (http://www.inkscape.org/) -->

<svg
   width="106.9206mm"
   height="96.767738mm"
   viewBox="0 0 106.9206 96.767738"
   version="1.1"
   id="svg5"
   xmlns="http://www.w3.org/2000/svg"
   xmlns:svg="http://www.w3.org/2000/svg">
  <defs
     id="defs2" />
  <g
     id="layer1"
     transform="translate(-52.431943,-80.288122)">
    <path
       id="path111"
       style="fill:#ffccbb;fill-opacity:1;stroke-width:0.264583"
       d="m 105.89224,80.288123 a 53.460304,48.383839 0 0 0 -53.460298,48.384127 53.460304,48.383839 0 0 0 53.460298,48.38361 53.460304,48.383839 0 0 0 53.46031,-48.38361 53.460304,48.383839 0 0 0 -53.46031,-48.384127 z m 0.57981,29.928407 a 19.689926,18.699566 0 0 1 19.68976,18.69963 19.689926,18.699566 0 0 1 -19.68976,18.69912 19.689926,18.699566 0 0 1 -19.690267,-18.69912 19.689926,18.699566 0 0 1 19.690267,-18.69963 z" />
    <path
       id="path2844"
       style="fill:#6eb5c0;fill-opacity:1;stroke-width:0.264583"
       d="m 120.8164,86.516683 c -17.80776,-0.06331 -54.271863,3.906678 -55.726833,12.887585 -1.605484,9.909962 -16.75713,26.219332 -6.779431,42.085802 9.9777,15.86649 16.031063,20.68608 16.031063,20.68608 0,0 19.497697,16.92527 28.384831,13.75316 8.88714,-3.17209 13.01884,-2.86287 13.01884,-2.86287 0,0 23.31733,-7.07038 29.2747,-17.07338 5.95737,-10.00301 16.41114,-30.64552 11.01122,-37.08249 -5.39994,-6.43698 -15.58944,-31.266542 -30.34647,-32.245576 -1.38347,-0.09178 -3.02574,-0.141762 -4.86792,-0.148311 z m -14.21309,22.495787 a 19.66725,20.328386 0 0 1 19.66702,20.32796 19.66725,20.328386 0 0 1 -19.66702,20.32847 19.66725,20.328386 0 0 1 -19.667531,-20.32847 19.66725,20.328386 0 0 1 19.667531,-20.32796 z" />
    <ellipse
       style="fill:#006c84;fill-opacity:1;stroke-width:0.263698"
       id="path3799-869"
       cx="139.51205"
       cy="145.5554"
       rx="1.0110016"
       ry="2.3821952" />
    <ellipse
       style="fill:#006c84;fill-opacity:1;stroke-width:0.356656"
       id="path3799-06"
       cx="66.316925"
       cy="120.22228"
       rx="1.9767399"
       ry="2.22877" />
    <ellipse
       style="fill:#006c84;fill-opacity:1;stroke-width:0.352467"
       id="path3799-31"
       cx="68.403893"
       cy="139.71643"
       rx="2.6375344"
       ry="1.6313715" />
    <ellipse
       style="fill:#006c84;fill-opacity:1;stroke-width:0.33861"
       id="path3799-6"
       cx="79.509003"
       cy="97.979942"
       rx="1.9767399"
       ry="2.0089266" />
    <ellipse
       style="fill:#006c84;fill-opacity:1;stroke-width:0.328231"
       id="path3799-38"
       cx="104.46699"
       cy="89.796761"
       rx="1.9767399"
       ry="1.8876659" />
    <ellipse
       style="fill:#006c84;fill-opacity:1;stroke-width:0.358139"
       id="path3799-59"
       cx="119.56998"
       cy="161.18877"
       rx="3.5311038"
       ry="1.258076" />
    <ellipse
       style="fill:#006c84;fill-opacity:1;stroke-width:0.301892"
       id="path3799-88"
       cx="121.58103"
       cy="92.330772"
       rx="1.9767399"
       ry="1.5968711" />
    <ellipse
       style="fill:#006c84;fill-opacity:1;stroke-width:0.321832"
       id="path3799-106"
       cx="90.918365"
       cy="161.38893"
       rx="1.9767399"
       ry="1.8147758" />
    <ellipse
       style="fill:#006c84;fill-opacity:1;stroke-width:0.296301"
       id="path3799-13"
       cx="99.831932"
       cy="155.85396"
       rx="1.9767399"
       ry="1.5382724" />
    <ellipse
       style="fill:#006c84;fill-opacity:1;stroke-width:0.320039"
       id="path3799-9"
       cx="99.475388"
       cy="169.85931"
       rx="1.9767399"
       ry="1.7946159" />
    <ellipse
       style="fill:#006c84;fill-opacity:1;stroke-width:0.461019"
       id="path3799-10"
       cx="79.509003"
       cy="144.75473"
       rx="1.9767399"
       ry="3.7239439" />
    <ellipse
       style="fill:#006c84;fill-opacity:1;stroke-width:0.423798"
       id="path3799-86"
       cx="75.587036"
       cy="106.46861"
       rx="1.9767399"
       ry="3.1469042" />
    <ellipse
       style="fill:#006c84;fill-opacity:1;stroke-width:0.334564"
       id="path3799-3"
       cx="96.26651"
       cy="100.52345"
       rx="1.9767399"
       ry="1.9612099" />
    <ellipse
       style="fill:#006c84;fill-opacity:1;stroke-width:0.349917"
       id="path3799-74"
       cx="128.71188"
       cy="102.88997"
       rx="1.9767399"
       ry="2.1453364" />
    <ellipse
       style="fill:#006c84;fill-opacity:1;stroke-width:0.358762"
       id="path3799-00"
       cx="141.19087"
       cy="114.13466"
       rx="1.9767399"
       ry="2.2551689" />
    <ellipse
       style="fill:#006c84;fill-opacity:1;stroke-width:0.396393"
       id="path3799-08"
       cx="142.97359"
       cy="131.82043"
       rx="1.9767399"
       ry="2.7530737" />
    <ellipse
       style="fill:#006c84;fill-opacity:1;stroke-width:0.287614"
       id="path3799-1"
       cx="72.024178"
       cy="129.42497"
       rx="2.3358469"
       ry="1.2265618" />
    <ellipse
       style="fill:#006c84;fill-opacity:1;stroke-width:0.393994"
       id="path3799-0"
       cx="84.85714"
       cy="114.16077"
       rx="1.9767399"
       ry="2.7198553" />
    <ellipse
       style="fill:#006c84;fill-opacity:1;stroke-width:0.34856"
       id="path3799-79"
       cx="111.59784"
       cy="102.85172"
       rx="1.9767399"
       ry="2.1287351" />
    <ellipse
       style="fill:#006c84;fill-opacity:1;stroke-width:0.373"
       id="path3799-5"
       cx="128.71188"
       cy="123.9353"
       rx="1.9767399"
       ry="2.4377201" />
    <ellipse
       style="fill:#006c84;fill-opacity:1;stroke-width:0.321507"
       id="path3799-7"
       cx="119.44178"
       cy="156.29419"
       rx="1.9767399"
       ry="1.8111203" />
    <ellipse
       style="fill:#006c84;fill-opacity:1;stroke-width:0.264583"
       id="path3799-8"
       cx="133.70348"
       cy="156.5222"
       rx="1.9767399"
       ry="1.2265618" />
    <ellipse
       style="fill:#006c84;fill-opacity:1;stroke-width:0.264583"
       id="path3799"
       cx="72.292274"
       cy="148.67474"
       rx="1.9767399"
       ry="1.2265618" />
    <circle
       id="path4956"
       style="fill:#006c84;stroke:#000000;stroke-width:0.264583"
       cx="85.185524"
       cy="156.98135"
       r="0.016790649" />
    <circle
       id="path4958"
       style="fill:#006c84;stroke:#000000;stroke-width:0.264583"
       cx="97.778664"
       cy="156.81445"
       r="0.016790649" />
    <circle
       id="path4960"
       style="fill:#006c84;stroke:#000000;stroke-width:0.264583"
       cx="145.70857"
       cy="149.25734"
       r="0.016790649" />
    <circle
       id="path4962"
       style="fill:#006c84;stroke:#000000;stroke-width:0.264583"
       cx="145.83464"
       cy="148.02409"
       r="0.016790649" />
    <circle
       id="path4964"
       style="fill:#006c84;stroke:#000000;stroke-width:0.264583"
       cx="132.77794"
       cy="139.7823"
       r="0.016790649" />
    <circle
       id="path4966"
       style="fill:#006c84;stroke:#000000;stroke-width:0.264583"
       cx="141.61325"
       cy="137.29137"
       r="0.016790649" />
    <circle
       id="path4968"
       style="fill:#006c84;stroke:#000000;stroke-width:0.264583"
       cx="139.34456"
       cy="124.60329"
       r="0.016790649" />
    <circle
       id="path4970"
       style="fill:#006c84;stroke:#000000;stroke-width:0.264583"
       cx="133.27966"
       cy="119.50117"
       r="0.016790649" />
    <circle
       id="path4972"
       style="fill:#006c84;stroke:#000000;stroke-width:0.264583"
       cx="123.0388"
       cy="107.29165"
       r="0.016790649" />
    <circle
       id="path4974"
       style="fill:#006c84;stroke:#000000;stroke-width:0.264583"
       cx="83.092216"
       cy="110.94926"
       r="0.016790649" />
    <circle
       id="path4976"
       style="fill:#006c84;stroke:#000000;stroke-width:0.264583"
       cx="79.3619"
       cy="118.01579"
       r="0.016790649" />
    <circle
       id="path4978"
       style="fill:#006c84;stroke:#000000;stroke-width:0.264583"
       cx="79.132629"
       cy="127.85181"
       r="0.016790649" />
    <circle
       id="path4980"
       style="fill:#006c84;stroke:#000000;stroke-width:0.264583"
       cx="78.708336"
       cy="130.31244"
       r="0.016790649" />
    <circle
       id="path4982"
       style="fill:#006c84;stroke:#000000;stroke-width:0.264583"
       cx="61.344158"
       cy="131.22372"
       r="0.016790649" />
  </g>
</svg>
