<svg width="115" height="115" viewBox="0 0 115 115" fill="none" xmlns="http://www.w3.org/2000/svg">
<path fill-rule="evenodd" clip-rule="evenodd" d="M57.5 115C89.2564 115 115 89.2564 115 57.5C115 25.7436 89.2564 0 57.5 0C25.7436 0 0 25.7436 0 57.5C0 89.2564 25.7436 115 57.5 115ZM57.4991 69.4895C64.1207 69.4895 69.4885 64.1216 69.4885 57.5001C69.4885 50.8786 64.1207 45.5107 57.4991 45.5107C50.8776 45.5107 45.5098 50.8786 45.5098 57.5001C45.5098 64.1216 50.8776 69.4895 57.4991 69.4895Z" fill="#FED900"/>
<path fill-rule="evenodd" clip-rule="evenodd" d="M10.7056 90.922L19.3091 100.486C16.099 97.6315 13.2107 94.4232 10.7056 90.922ZM3.81689 36.8569C12.1121 15.2986 33.0196 0 57.5002 0C81.8058 0 102.589 15.0806 111.004 36.3954C106.795 36.6225 102.642 38.1264 99.1589 40.9071C91.5739 46.963 80.8074 46.963 73.2224 40.9071C65.6374 34.8511 54.8709 34.8511 47.2859 40.9071C39.7009 46.963 28.9087 46.9425 21.3237 40.8866C16.2785 36.8584 9.80863 35.5111 3.81689 36.8569Z" fill="#FF6B95"/>
<path d="M98.2668 34.8678C96.9368 31.6098 91.518 32.2119 91.518 29.1364" stroke="white" stroke-width="4" stroke-linecap="square"/>
<path d="M44.9698 18.396C39.5656 18.396 37.9247 21.999 37.4986 23.1474" stroke="white" stroke-width="4" stroke-linecap="square"/>
<path d="M79.1748 41.9686C77.6695 40.4601 74.6356 40.1342 73.4548 40.4601" stroke="white" stroke-width="4" stroke-linecap="square"/>
<path d="M65.9297 24.8052C65.9297 24.8052 65.0031 24.4793 63.8224 24.8052" stroke="white" stroke-width="4" stroke-linecap="square"/>
</svg>
