<svg width="115" height="115" viewBox="0 0 115 115" fill="none" xmlns="http://www.w3.org/2000/svg">
<path fill-rule="evenodd" clip-rule="evenodd" d="M57.5 115C89.2564 115 115 89.2564 115 57.5C115 25.7436 89.2564 0 57.5 0C25.7436 0 0 25.7436 0 57.5C0 89.2564 25.7436 115 57.5 115ZM57.4991 69.4895C64.1207 69.4895 69.4885 64.1216 69.4885 57.5001C69.4885 50.8786 64.1207 45.5107 57.4991 45.5107C50.8776 45.5107 45.5098 50.8786 45.5098 57.5001C45.5098 64.1216 50.8776 69.4895 57.4991 69.4895Z" fill="#FED900"/>
<path fill-rule="evenodd" clip-rule="evenodd" d="M4.00773 78.6328C9.8505 77.7544 15.9017 78.6509 21.3235 81.3148C29.502 85.3332 39.1071 85.3458 47.2857 81.3274C55.4643 77.3091 65.0437 77.3091 73.2222 81.3274C81.4008 85.3458 90.9802 85.3458 99.1587 81.3274C102.936 79.4716 107.012 78.4729 111.111 78.3312C113.622 71.8722 115 64.847 115 57.5C115 25.7436 89.2564 0 57.5 0C25.7436 0 0 25.7436 0 57.5C0 64.9615 1.42122 72.0911 4.00773 78.6328ZM69.4885 57.5001C69.4885 64.1216 64.1207 69.4895 57.4991 69.4895C50.8776 69.4895 45.5098 64.1216 45.5098 57.5001C45.5098 50.8786 50.8776 45.5107 57.4991 45.5107C64.1207 45.5107 69.4885 50.8786 69.4885 57.5001Z" fill="#FF6B95"/>
<path d="M27.1142 61.4136C26.8734 66.4712 28.8201 69.1405 29.8236 69.8429" stroke="white" stroke-width="4" stroke-linecap="square"/>
<path d="M98.2668 34.8678C96.9368 31.6098 91.518 32.2119 91.518 29.1364" stroke="white" stroke-width="4" stroke-linecap="square"/>
<path d="M44.9698 18.396C39.5656 18.396 37.9247 21.999 37.4986 23.1474" stroke="white" stroke-width="4" stroke-linecap="square"/>
<path d="M18.3642 43.7748C16.859 42.2662 13.8251 41.9404 12.6443 42.2662" stroke="white" stroke-width="4" stroke-linecap="square"/>
<path d="M79.1748 41.9686C77.6695 40.4601 74.6356 40.1342 73.4548 40.4601" stroke="white" stroke-width="4" stroke-linecap="square"/>
<path d="M65.9297 24.8052C65.9297 24.8052 65.0031 24.4793 63.8224 24.8052" stroke="white" stroke-width="4" stroke-linecap="square"/>
<path d="M94.7801 71.1435C96.3132 69.6633 96.689 66.6352 96.3826 65.4492" stroke="white" stroke-width="4" stroke-linecap="square"/>
</svg>
