<svg width="115" height="115" viewBox="0 0 115 115" fill="none" xmlns="http://www.w3.org/2000/svg">
<path fill-rule="evenodd" clip-rule="evenodd" d="M57.5 115C89.2564 115 115 89.2564 115 57.5C115 25.7436 89.2564 0 57.5 0C25.7436 0 0 25.7436 0 57.5C0 89.2564 25.7436 115 57.5 115ZM57.4991 69.4895C64.1207 69.4895 69.4885 64.1216 69.4885 57.5001C69.4885 50.8786 64.1207 45.5107 57.4991 45.5107C50.8776 45.5107 45.5098 50.8786 45.5098 57.5001C45.5098 64.1216 50.8776 69.4895 57.4991 69.4895Z" fill="#FED900"/>
<path fill-rule="evenodd" clip-rule="evenodd" d="M97.5751 16.2661C87.219 6.19921 73.0834 0 57.5 0C43.2489 0 30.2087 5.18446 20.1626 13.7702C20.5609 14.1048 20.9483 14.4591 21.3235 14.8328C28.4934 21.9763 40.1158 22.0018 47.2857 14.8584C54.4556 7.71498 66.0523 7.71497 73.2222 14.8584C79.8853 21.4969 90.3715 21.9662 97.5751 16.2661Z" fill="#FF6B95"/>
</svg>
