<svg width="115" height="162" viewBox="0 0 115 162" fill="none" xmlns="http://www.w3.org/2000/svg">
<g clip-path="url(#clip0_2224_9119)">
<path fill-rule="evenodd" clip-rule="evenodd" d="M57.923 47.29C89.4295 47.29 114.967 72.9212 114.967 104.521C114.967 136.145 89.4295 161.753 57.923 161.753C26.4165 161.753 0.878906 136.145 0.878906 104.521C0.878906 85.2812 10.3461 68.2537 24.8635 57.8772C25.3816 55.2887 26.4176 55.2887 28.1313 55.707C36.8019 50.3685 47.004 47.29 57.923 47.29Z" fill="white"/>
<path fill-rule="evenodd" clip-rule="evenodd" d="M15.5729 138.249C22.4115 140.435 28.0228 137.969 31.8802 138.249C45.3958 139.138 39.7708 152.226 55.8733 150.907C85.6209 143.412 110.216 115.509 104.044 83.0173C101.676 70.5535 96.0566 64.2344 93.3337 62C93.8102 70.1695 90.8378 79.2933 94.4683 92.3272C96.1247 98.2391 92.7429 106.508 90.02 109.185C74.091 124.872 48.5194 124.935 32.5677 111.762C26.6001 106.874 22.5611 104.407 24.5125 93.328C25.1478 89.7437 28.0504 83.971 28.2546 80.3401C28.3687 78.4364 28.6623 80.7069 28.2546 78.2797C15.7007 77.2496 4 90.0572 4 104.55C4 121.913 9.69599 129.078 15.5729 138.249Z" fill="#FFC5CF"/>
<path d="M94.0183 65.4999C93 62 90.6944 57.7295 90.6944 57.7295C90.6944 57.7295 105.839 71.0952 110.474 81.3711C113.376 88.3231 114.968 96.0008 114.968 104.053C114.968 113.978 112.534 123.341 108.227 131.51C103.311 133.804 98.1146 131.252 94.0183 134.67C91.0221 137.151 90.1326 142.582 87.5812 145.554C83.719 150.072 79.8099 147.638 73.8176 149.206C69.417 150.376 66.7251 153.677 63.3311 156.018C52.4232 163.578 46.0329 151.547 42.0068 146.374C33.5801 135.583 29.8115 142.418 16.8906 144.454C11.5 137.5 10.5 134.5 10.8769 129.883C13.9433 132.364 15.9604 134.239 27.4535 131.617C30.3326 130.962 33.861 131.777 36.8338 133.064C69.799 147.383 111.222 125.537 102.913 82.8458C101.883 77.5557 96.8272 67.7237 94.0183 65.4999Z" fill="#FF6B95"/>
<path d="M26.0684 59.5629L26.7346 59.0867L26.8953 58.2838C26.9587 57.9674 27.0222 57.7477 27.0751 57.5998C27.2116 57.6219 27.3931 57.6597 27.6399 57.72L28.4807 57.9252L29.2176 57.4714C37.5713 52.3281 47.3988 49.3621 57.923 49.3621C88.2785 49.3621 112.895 74.059 112.895 104.521C112.895 135.007 88.279 159.681 57.923 159.681C27.5669 159.681 2.95098 135.007 2.95098 104.521C2.95098 85.9767 12.0732 69.5662 26.0684 59.5629Z" stroke="#FF6B95" stroke-width="4.14414"/>
<path d="M22.4327 57.4001L22.4336 57.389C22.5401 56.0035 23.0251 54.5795 24.267 53.6664C25.4975 52.7616 27.0056 52.7026 28.386 52.9846L28.3964 52.9867L28.4068 52.989C31.4285 53.64 35.5571 54.9512 39.3491 56.7257C42.5548 58.2258 45.8204 60.1926 47.853 62.5842C48.2199 62.5059 48.59 62.4253 48.9643 62.3438C51.1968 61.8576 53.5795 61.3386 56.3415 61.092C59.9521 60.7696 64.2504 60.8937 70.1344 61.9802C75.2308 57.1871 82.3949 55.8669 87.4288 55.6879C87.5371 55.684 87.6703 55.6771 87.8244 55.6691C88.84 55.6162 90.7661 55.516 92.4777 55.937C93.5032 56.1893 94.6542 56.6682 95.5573 57.6161C96.5039 58.6097 96.9999 59.9311 96.9999 61.5C96.9999 64.659 96.4916 69.9108 96.1928 72.9975L96.1928 72.9977C96.098 73.9767 96.0243 74.7379 95.9946 75.1453C95.8956 76.5048 95.7451 77.677 95.6208 78.6447L95.6206 78.646C95.5727 79.0193 95.5287 79.3622 95.493 79.6737C95.3604 80.832 95.3273 81.6555 95.472 82.5132C95.6821 83.7592 95.9712 85.0943 96.2856 86.5442L96.3182 86.6947C97.2403 90.9466 98.3617 96.1177 97.6038 101.188C96.8427 106.278 94.2195 111.141 88.1816 115.058C87.6323 117.773 86.4798 119.932 84.9105 121.578C83.178 123.394 81.0302 124.489 78.8674 125.075C74.8477 126.165 70.4444 125.583 67.7916 124.227L67.79 124.227C67.7466 124.242 67.6717 124.272 67.5414 124.341C67.4049 124.414 67.255 124.503 67.0357 124.634L67.0213 124.642L67.0212 124.642C66.3051 125.07 65.2693 125.688 63.6763 126.112C62.0919 126.533 60.0582 126.738 57.2823 126.529L57.2013 126.523L57.1211 126.51C55.7209 126.29 54.3544 125.687 53.3432 125.24L53.3431 125.24C53.0641 125.117 52.8121 125.006 52.594 124.918C51.4358 124.451 50.7225 124.341 49.9639 124.614C46.77 125.767 42.3979 125.966 38.5507 124.983C34.7243 124.006 30.8671 121.689 29.6838 117.335L29.6813 117.325L29.6789 117.316C29.6245 117.108 29.5762 116.914 29.5307 116.731L29.5306 116.73C29.212 115.448 29.0298 114.714 27.8644 113.788L27.8563 113.781C21.9178 109.009 19.2457 104.549 18.8838 99.5033C18.5456 94.7878 20.2887 89.8484 22.2347 84.3337L22.3409 84.0327L22.4245 83.7957C23.1143 81.8428 23.3452 80.7693 23.3957 79.9841C23.4448 79.2214 23.3366 78.6242 23.1066 77.4581L23.1062 77.4561C22.8929 76.3741 22.6157 74.9687 22.4354 72.8628C21.9543 67.5658 22.1014 62.4409 22.432 57.4112L22.4327 57.4001Z" fill="#FF6B95"/>
<path fill-rule="evenodd" clip-rule="evenodd" d="M25.5321 82.9092C24.6427 86.514 19.8909 97.4219 23.0978 103.484C24.0341 105.755 30.0264 109.383 32.7182 109.43C37.4231 109.547 39.6703 106.878 44.3986 111.396C46.6691 113.128 47.7459 113.994 49.5482 116.803C56.5705 118.067 60.2689 117.88 67.1975 116.92C69.0467 113.433 69.4212 113.713 72.3003 111.42C78.8544 105.755 81.4995 111.232 87.0236 107.908C96.8548 101.986 95.4737 96.2515 92.618 86.8417C91.986 84.7116 91.0029 80.3344 91.237 77.5723C91.7285 71.7204 93.4845 67.0389 91.237 58.674C82.7869 57.8781 74.8358 60.2278 68.8594 67.0389C57.4131 63.1533 51.7017 65.26 47.0202 66.7346C42.7187 61.7819 35.0085 58.1405 29.2502 55.5656C26.9333 54.5298 24.07 54.2522 24.07 60.7458C23.1337 68.6576 26.6089 76.4722 25.5321 82.9092Z" fill="#FED900"/>
<path fill-rule="evenodd" clip-rule="evenodd" d="M24.4278 57.5421C24.1 62.5279 23.9596 67.5371 24.4278 72.6868C24.5987 74.6866 24.8595 76.0087 25.0689 77.071C25.5189 79.3533 25.7323 80.4355 24.3107 84.4607L24.2271 84.6978C20.1573 96.2346 17.7406 103.085 29.1093 112.222C30.8255 113.587 31.1535 114.933 31.481 116.278C31.5242 116.455 31.5675 116.632 31.6139 116.81C33.4396 123.528 43.7155 124.745 49.2865 122.732C51.1168 122.073 52.6815 122.761 54.3244 123.483C55.3078 123.915 56.3192 124.359 57.4323 124.534C62.6444 124.926 64.6417 123.734 66.0103 122.916C66.8482 122.416 67.4504 122.056 68.4104 122.287C72.577 124.698 84.7489 124.979 86.364 113.837C98.5542 106.447 96.2163 95.6632 94.331 86.9677C94.0189 85.5282 93.7192 84.1459 93.4999 82.8456C93.1167 80.5738 93.7328 78.6672 94 74.9998C94.137 73.1193 95 65.5727 95 61.4998C95 56.9998 89.5 57.6152 87.5 57.6863C82.3841 57.8683 75.3792 59.2767 70.798 64.143C59.9539 61.9985 54.7055 63.1414 49.4909 64.2769C48.6722 64.4552 47.8545 64.6333 47.016 64.7984C43.9262 59.9999 33.7439 56.1845 27.9857 54.9439C25.8088 54.4991 24.5916 55.412 24.4278 57.5421ZM47.0394 68.0755C43.9262 62.6449 32.4799 57.7996 27.8687 56.3483C26.8387 56.0206 25.3172 55.9036 25.3172 58.0805C25.2704 62.8322 25.3641 70.2524 26.6281 78.1173C27.0472 80.7197 26.098 83.5046 25.3849 85.5968C25.1423 86.3085 24.927 86.94 24.8023 87.4569C24.6721 87.9846 24.5097 88.5589 24.3357 89.1746C23.3211 92.7649 21.909 97.7616 24.1469 103.117C25.3875 105.785 30.303 109.624 32.9949 109.671C37.9105 105.364 50.1292 109.53 49.8249 117.044C56.8471 118.308 60.5455 118.121 67.4741 117.161C69.6744 107.868 80.6058 106.464 85.9427 109.085C93.5735 104.498 94.0416 96.2815 92.7308 89.072C92.5524 88.0754 92.3482 87.2486 92.1533 86.4598C91.6067 84.2473 91.134 82.334 91.5136 77.813C91.5995 76.7737 91.7115 75.6742 91.8268 74.5426C92.3087 69.8125 92.8478 64.5222 91.7711 60.7255C91.3082 59.1054 90.1816 59.133 88.3009 59.1791L88.2366 59.1806C80.7696 59.3679 74.6134 61.4043 69.3233 68.2393C61.1541 66.0858 56.4492 65.5007 47.0394 68.0755Z" fill="#FF6B95"/>
<path fill-rule="evenodd" clip-rule="evenodd" d="M46.2893 160.98C59.2336 163.063 73.3015 161.097 85.333 155.058C95.0003 149.651 102.982 141.435 108.226 131.51C103.31 133.804 98.1135 131.252 94.0172 134.67C91.021 137.151 90.1315 142.582 87.5801 145.554C83.7179 150.072 79.8088 147.638 73.8165 149.206C69.4159 150.376 66.724 151.677 63.3299 154.017C52.422 161.578 46.0318 151.547 42.0057 146.374C33.6258 135.653 28.406 141.037 15.6021 143.05C23.5606 152.015 34.2344 158.428 46.2893 160.98Z" fill="#FED900"/>
<path fill-rule="evenodd" clip-rule="evenodd" d="M77.8904 72.2191C80.6291 72.8277 84.07 74.1151 86.9491 76.6197C87.7684 77.3219 88.8685 77.2517 89.3601 76.0813C90.7177 72.8043 91.3263 67.3035 90.6943 63.0199C90.5773 62.1773 90.0155 62.3645 89.4069 62.505C85.7553 63.371 79.3885 68.3568 77.6095 70.8146C77.2116 71.3764 77.3755 72.102 77.8904 72.2191Z" fill="#FF6B95"/>
<path fill-rule="evenodd" clip-rule="evenodd" d="M32.2216 75.6593C34.89 72.8504 37.418 71.3758 40.5312 70.4161C41.725 70.0415 42.0995 69.5032 41.2335 68.5201C38.7991 65.7112 32.994 62.7852 29.5063 60.9828C27.8678 60.1636 27.0719 60.8424 27.2124 62.1298C27.4464 64.5174 27.7039 71.3524 30.6065 75.5189C31.0512 76.1509 31.5194 76.4084 32.2216 75.6593Z" fill="#FF6B95"/>
<path fill-rule="evenodd" clip-rule="evenodd" d="M43.4117 91.753C43.4117 91.753 43.8222 91.7531 44 91.7531C46.1523 91.7532 45.7355 91.753 46.8502 91.753C47.0742 93.0173 46.4561 94.3356 45.2557 94.9588C43.7805 95.6964 41.9932 95.129 41.2272 93.6538C40.9151 93.058 40.83 92.4055 40.9435 91.753H43.4117Z" fill="black"/>
<path fill-rule="evenodd" clip-rule="evenodd" d="M71.5162 91.4756H74.9547C75.1787 92.7385 74.5606 94.0553 73.3602 94.6779C71.885 95.4147 70.0977 94.848 69.3317 93.3743C69.0196 92.7792 68.9345 92.1274 69.048 91.4756H71.5162Z" fill="black"/>
<path d="M51.323 93.6301C52.6806 96.3219 56.9174 96.2985 58.0644 93.0215C59.0007 96.3922 63.4013 96.6262 64.7121 93.6067" stroke="black" stroke-width="2.5" stroke-linecap="round" stroke-linejoin="bevel"/>
<path d="M58.0001 96.5C56 96.5 55 96 55 96L58.0001 94.5L60.9999 96C60.9999 96 60.0003 96.5 58.0001 96.5Z" stroke="black" stroke-width="2.5"/>
<path d="M36.7452 95C35.2003 95.2107 34.1002 95.3979 33 96.1236" stroke="#FF6B95" stroke-width="2.5" stroke-linecap="round" stroke-linejoin="bevel"/>
<path d="M36.6516 92.4044C35.2939 91.4447 34.0299 91.0936 33 91" stroke="#FF6B95" stroke-width="2.5" stroke-linecap="round" stroke-linejoin="bevel"/>
<path d="M79 95C80.3342 95.7724 81.2939 96.381 82.0196 97.4812" stroke="#FF6B95" stroke-width="2.5" stroke-linecap="round" stroke-linejoin="bevel"/>
<path d="M80 92.1996C81.6385 91.8485 82.9259 92.0124 83.9091 92.2933" stroke="#FF6B95" stroke-width="2.5" stroke-linecap="round" stroke-linejoin="bevel"/>
<path d="M25.0204 121C24.7796 126.058 26.7264 128.727 27.7299 129.429" stroke="white" stroke-width="4" stroke-linecap="square"/>
<path d="M18.3642 105.775C16.859 104.266 13.8251 103.94 12.6443 104.266" stroke="white" stroke-width="4" stroke-linecap="square"/>
<path d="M98.7199 120.434C97.2147 118.926 94.1808 118.6 93 118.926" stroke="white" stroke-width="4" stroke-linecap="square"/>
<path d="M70.0285 142.187C68.6985 138.929 63.2797 139.531 63.2797 136.455" stroke="white" stroke-width="4" stroke-linecap="square"/>
<path fill-rule="evenodd" clip-rule="evenodd" d="M71.1012 115.914C70.4839 118.304 72.7988 119.808 75.0915 119.973C79.4125 120.282 84.1083 117.954 83.9981 113.875C83.954 112.556 83.3367 111.341 81.4628 111.094C77.6268 110.599 72.0933 112.041 71.1012 115.914Z" fill="#FED900"/>
<path fill-rule="evenodd" clip-rule="evenodd" d="M45.7986 114.549C44.314 112.386 41.9745 111.45 39.2751 111.117C33.6963 110.451 32.8415 112.76 33.0215 114.716C33.089 115.631 33.3139 116.422 33.6513 117.087C34.9336 119.687 37.9704 121.289 41.952 120.956C46.2485 120.603 48.5655 118.668 45.7986 114.549Z" fill="#FED900"/>
<path d="M35 118.692C35.3043 117.568 35.9831 116.562 36.7322 116" stroke="#FF6B95" stroke-width="2.5" stroke-linecap="round" stroke-linejoin="round"/>
<path d="M42 120.762C42.3979 119.849 42.5384 118.843 42.4447 118" stroke="#FF6B95" stroke-width="2.5" stroke-linecap="round" stroke-linejoin="round"/>
<path d="M75.6439 120.602C75.0587 119.619 74.8012 118.425 74.9182 117.489" stroke="#FF6B95" stroke-width="2.5" stroke-linecap="round" stroke-linejoin="round"/>
<path d="M82.4532 117.302C82.1021 116.366 81.4701 115.57 80.7913 115.055" stroke="#FF6B95" stroke-width="2.5" stroke-linecap="round" stroke-linejoin="round"/>
<path d="M81.1709 39.5206L76.927 38.8L77.5587 35.0798L89.5434 37.1149L89.3838 38.0546L83.3077 45.0898L88.0523 45.8955L87.4546 49.4154L75.0001 47.3005L75.1204 46.5919L81.1709 39.5206Z" fill="#FF6B95"/>
<path d="M93.3439 18.7659L86.6816 17.6343L87.6736 11.7942L106.487 14.9899L106.237 16.465L96.698 27.5087L104.146 28.7738L103.208 34.2994L83.6562 30.9785L83.8451 29.8661L93.3439 18.7659Z" fill="#FF6B95"/>
<path d="M83.1916 3.14686L80.4919 2.6883L80.8939 0.321762L88.5177 1.61672L88.4162 2.21448L84.5508 6.68968L87.569 7.20234L87.1886 9.44148L79.2659 8.09576L79.3425 7.64499L83.1916 3.14686Z" fill="#FF6B95"/>
</g>
<defs>
<clipPath id="clip0_2224_9119">
<rect width="115" height="162" fill="white"/>
</clipPath>
</defs>
</svg>
