<svg width="251" height="40" viewBox="0 0 251 40" fill="none" xmlns="http://www.w3.org/2000/svg">
<g filter="url(#filter0_i_801_986)">
<path d="M2.13015 4.34268C9.13829 3.82313 13.7103 3.56336 15.8462 3.56336C17.9937 3.56336 19.6851 3.7654 20.9205 4.1695C22.1674 4.56204 23.2816 5.11046 24.2629 5.81473C26.1679 7.16556 27.6054 8.96089 28.5752 11.2007C29.5566 13.4406 30.0472 15.7093 30.0472 18.0068C30.0472 20.3044 29.672 22.3133 28.9216 24.0336C28.1826 25.7423 27.1551 27.1855 25.8389 28.3632C23.1488 30.7993 19.6678 32.0115 15.396 32H2.13015V4.34268ZM12.9021 13.1231V23.6699C13.514 23.1504 14.1779 22.6366 14.8937 22.1286C17.6416 20.1543 19.0155 18.0876 19.0155 15.9286C19.0155 14.878 18.7038 13.9082 18.0803 13.0191C17.4568 12.1186 16.6429 11.6683 15.6384 11.6683C14.6455 11.6683 13.7334 12.1532 12.9021 13.1231ZM48.3527 16.604C48.1218 16.4886 47.8216 16.4309 47.4521 16.4309C47.0942 16.4309 46.6959 16.5405 46.2572 16.7599C45.8184 16.9677 45.3855 17.2564 44.9583 17.6258C44.0577 18.4109 43.3015 19.3634 42.6896 20.4833C42.0777 21.6032 41.7717 22.6366 41.7717 23.5833C41.7717 24.5185 42.1296 25.1477 42.8455 25.471C43.0995 25.5865 43.4112 25.6442 43.7807 25.6442C44.1501 25.6442 44.5369 25.5345 44.941 25.3151C45.3451 25.0842 45.7492 24.7783 46.1533 24.3973C46.9961 23.6006 47.735 22.6366 48.37 21.5051C49.005 20.3621 49.3225 19.3403 49.3225 18.4398C49.3225 17.5392 48.9992 16.9273 48.3527 16.604ZM44.9929 32.6408C41.6909 32.6408 38.8449 31.5959 36.455 29.5062C33.9035 27.2894 32.6277 24.5012 32.6277 21.1414C32.6277 17.7701 33.8226 15.0165 36.2126 12.8806C38.6025 10.7331 41.5524 9.6594 45.0622 9.6594C48.572 9.6594 51.5219 10.71 53.9119 12.8113C56.3018 14.9011 57.5025 17.7009 57.5141 21.2107C57.5256 23.4621 56.9541 25.4537 55.7996 27.1855C54.645 28.9173 53.1037 30.2566 51.1756 31.2034C49.2475 32.1501 47.1866 32.6292 44.9929 32.6408ZM72.6156 16.3269C71.692 16.3269 71.2302 17.0716 71.2302 18.561V32H60.9431V10.4734H66.6235L69.1 13.8331C70.0236 12.5516 71.2994 11.5355 72.9273 10.7851C74.5668 10.0346 76.0966 9.6594 77.5167 9.6594C80.126 9.6594 82.1926 10.3521 83.7166 11.7376C85.2522 13.1231 86.02 14.9819 86.02 17.3141V32H75.6636V21.609C75.6636 18.0876 74.6476 16.3269 72.6156 16.3269ZM92.4624 30.095C91.5387 29.2291 90.7998 28.1438 90.2456 26.8391C89.703 25.523 89.4317 24.1086 89.4317 22.5962C89.4317 21.0837 89.5818 19.7733 89.882 18.6649C90.4823 16.4597 91.533 14.6067 93.0339 13.1057C93.7497 12.3668 94.5464 11.7434 95.4238 11.2354C97.2249 10.1847 99.1242 9.6594 101.122 9.6594C103.13 9.6594 104.891 10.3233 106.404 11.651C106.889 12.0782 107.31 12.5689 107.668 13.1231L110.144 10.4734H115.825V32H110.144L107.668 28.4151C105.774 31.2091 102.905 32.6119 99.0607 32.6235C97.9985 32.635 96.8612 32.4272 95.6489 32C94.4482 31.5844 93.386 30.9494 92.4624 30.095ZM106.49 17.0024C106.075 16.7599 105.578 16.6387 105.001 16.6387C104.424 16.6387 103.812 16.8465 103.165 17.2621C102.53 17.6662 101.959 18.18 101.451 18.8035C100.319 20.2005 99.7534 21.6206 99.7534 23.0638C99.7534 24.0798 100.065 24.7956 100.689 25.2112C101.266 25.5922 102.143 25.5403 103.321 25.0554C104.51 24.5589 105.567 23.9181 106.49 23.133V17.0024ZM136.243 30.4414C134.049 31.9307 131.723 32.6754 129.264 32.6754C126.816 32.6754 124.825 31.9827 123.289 30.5972C121.753 29.2002 120.986 27.3241 120.986 24.9688V15.9633H119.011V10.4734H120.986V4.65441L131.342 3.59799V10.4734H136.243V15.9633H131.342V21.4012C131.342 23.0291 131.706 24.2125 132.433 24.9515C133.172 25.6788 134.442 26.0425 136.243 26.0425V30.4414ZM144.279 22.4749C145.895 22.4634 147.113 22.9194 147.933 23.8431C148.764 24.7552 149.18 25.8982 149.18 27.2721C149.18 28.646 148.672 29.8872 147.656 30.9955C146.64 32.0924 145.289 32.635 143.603 32.6235C141.918 32.6235 140.671 32.179 139.863 31.2899C139.054 30.3894 138.65 29.2637 138.65 27.9129C138.65 26.5505 139.187 25.3036 140.261 24.1721C141.335 23.0407 142.674 22.4749 144.279 22.4749Z" fill="#FF6B95"/>
</g>
<path d="M2.13015 4.34268L2.05622 3.34542L1.13015 3.41407V4.34268H2.13015ZM20.9205 4.1695L20.6096 5.12L20.6202 5.12335L20.9205 4.1695ZM24.2629 5.81473L23.6799 6.62719L23.6845 6.63047L24.2629 5.81473ZM28.5752 11.2007L27.6575 11.5981L27.6592 11.602L28.5752 11.2007ZM28.9216 24.0336L28.005 23.6337L28.0037 23.6367L28.9216 24.0336ZM25.8389 28.3632L25.1721 27.6179L25.1677 27.6219L25.8389 28.3632ZM15.396 32L15.3987 31H15.396V32ZM2.13015 32H1.13015V33H2.13015V32ZM12.9021 13.1231L12.1429 12.4723L11.9021 12.7531V13.1231H12.9021ZM12.9021 23.6699H11.9021V25.8308L13.5494 24.4322L12.9021 23.6699ZM14.8937 22.1286L15.4725 22.9441L15.4772 22.9407L14.8937 22.1286ZM18.0803 13.0191L17.2581 13.5884L17.2616 13.5933L18.0803 13.0191ZM2.20408 5.33994C9.22092 4.81975 13.7543 4.56336 15.8462 4.56336V2.56336C13.6663 2.56336 9.05566 2.82651 2.05622 3.34542L2.20408 5.33994ZM15.8462 4.56336C17.9475 4.56336 19.5187 4.7631 20.6096 5.11994L21.2314 3.21905C19.8516 2.76771 18.0399 2.56336 15.8462 2.56336V4.56336ZM20.6202 5.12335C21.7743 5.48666 22.7915 5.98961 23.6799 6.62717L24.846 5.00229C23.7717 4.23131 22.5606 3.63743 21.2208 3.21565L20.6202 5.12335ZM23.6845 6.63047C25.4334 7.87059 26.7569 9.51817 27.6575 11.5981L29.4929 10.8034C28.4538 8.40361 26.9025 6.46053 24.8414 4.999L23.6845 6.63047ZM27.6592 11.602C28.5888 13.7236 29.0472 15.8562 29.0472 18.0068H31.0472C31.0472 15.5624 30.5243 13.1575 29.4911 10.7994L27.6592 11.602ZM29.0472 18.0068C29.0472 20.1968 28.6895 22.0645 28.005 23.6337L29.8381 24.4334C30.6545 22.5621 31.0472 20.4119 31.0472 18.0068H29.0472ZM28.0037 23.6367C27.3191 25.2198 26.3746 26.542 25.1721 27.6179L26.5057 29.1084C27.9356 27.829 29.0462 26.2648 29.8394 24.4305L28.0037 23.6367ZM25.1677 27.6219C22.6941 29.8619 19.4683 31.011 15.3987 31L15.3933 33C19.8673 33.0121 23.6035 31.7366 26.5101 29.1044L25.1677 27.6219ZM15.396 31H2.13015V33H15.396V31ZM3.13015 32V4.34268H1.13015V32H3.13015ZM11.9021 13.1231V23.6699H13.9021V13.1231H11.9021ZM13.5494 24.4322C14.1373 23.933 14.7781 23.4369 15.4725 22.9441L14.315 21.3131C13.5777 21.8363 12.8908 22.3677 12.2549 22.9076L13.5494 24.4322ZM15.4772 22.9407C18.3344 20.8878 20.0155 18.5597 20.0155 15.9286H18.0155C18.0155 17.6155 16.9487 19.4208 14.3102 21.3165L15.4772 22.9407ZM20.0155 15.9286C20.0155 14.6653 19.6363 13.4962 18.899 12.445L17.2616 13.5933C17.7713 14.3201 18.0155 15.0907 18.0155 15.9286H20.0155ZM18.9025 12.4499C18.1121 11.3082 17.0044 10.6683 15.6384 10.6683V12.6683C16.2814 12.6683 16.8016 12.9289 17.2581 13.5884L18.9025 12.4499ZM15.6384 10.6683C14.2744 10.6683 13.1058 11.3489 12.1429 12.4723L13.6614 13.7738C14.3611 12.9576 15.0166 12.6683 15.6384 12.6683V10.6683ZM46.2572 16.7599L46.6853 17.6636L46.6949 17.6591L46.7044 17.6543L46.2572 16.7599ZM44.9583 17.6258L44.3041 16.8694L44.3012 16.872L44.9583 17.6258ZM42.8455 25.471L43.2593 24.5606L43.2571 24.5596L42.8455 25.471ZM44.941 25.3151L45.4181 26.194L45.4277 26.1888L45.4371 26.1834L44.941 25.3151ZM46.1533 24.3973L46.8393 25.1249L46.8402 25.124L46.1533 24.3973ZM48.37 21.5051L49.2421 21.9945L49.2442 21.9908L48.37 21.5051ZM44.9929 32.6408L44.9929 33.6408L44.9982 33.6408L44.9929 32.6408ZM36.455 29.5062L37.1133 28.7534L37.1109 28.7513L36.455 29.5062ZM36.2126 12.8806L36.8789 13.6262L36.8809 13.6244L36.2126 12.8806ZM53.9119 12.8113L53.2516 13.5623L53.2536 13.5641L53.9119 12.8113ZM57.5141 21.2107L56.5141 21.214L56.5141 21.2158L57.5141 21.2107ZM48.7999 15.7096C48.3834 15.5014 47.9145 15.4309 47.4521 15.4309V17.4309C47.7287 17.4309 47.8601 17.4758 47.9055 17.4985L48.7999 15.7096ZM47.4521 15.4309C46.8924 15.4309 46.3388 15.601 45.81 15.8655L46.7044 17.6543C47.053 17.48 47.296 17.4309 47.4521 17.4309V15.4309ZM45.8291 15.8562C45.2967 16.1084 44.7888 16.4503 44.3041 16.8695L45.6125 18.3822C45.9821 18.0624 46.3402 17.8271 46.6853 17.6636L45.8291 15.8562ZM44.3012 16.872C43.3056 17.74 42.4768 18.7873 41.8121 20.0038L43.5672 20.9628C44.1263 19.9395 44.8099 19.0818 45.6154 18.3796L44.3012 16.872ZM41.8121 20.0038C41.1466 21.2218 40.7717 22.4208 40.7717 23.5833H42.7717C42.7717 22.8523 43.0088 21.9847 43.5672 20.9628L41.8121 20.0038ZM40.7717 23.5833C40.7717 24.1749 40.8848 24.748 41.1709 25.251C41.4635 25.7654 41.9005 26.1415 42.4339 26.3824L43.2571 24.5596C43.0746 24.4773 42.9747 24.3771 42.9094 24.2622C42.8376 24.1361 42.7717 23.9269 42.7717 23.5833H40.7717ZM42.4317 26.3814C42.8505 26.5718 43.3125 26.6442 43.7807 26.6442V24.6442C43.5099 24.6442 43.3484 24.6012 43.2593 24.5606L42.4317 26.3814ZM43.7807 26.6442C44.3527 26.6442 44.9028 26.4737 45.4181 26.194L44.4639 24.4363C44.171 24.5953 43.9475 24.6442 43.7807 24.6442V26.6442ZM45.4371 26.1834C45.9215 25.9066 46.3884 25.55 46.8393 25.1249L45.4672 23.6697C45.11 24.0065 44.7686 24.2619 44.4448 24.4469L45.4371 26.1834ZM46.8402 25.124C47.7645 24.2504 48.5635 23.2037 49.2421 21.9945L47.498 21.0157C46.9065 22.0695 46.2277 22.9509 45.4663 23.6705L46.8402 25.124ZM49.2442 21.9908C49.9268 20.7619 50.3225 19.5699 50.3225 18.4398H48.3225C48.3225 19.1107 48.0832 19.9623 47.4958 21.0195L49.2442 21.9908ZM50.3225 18.4398C50.3225 17.272 49.8747 16.247 48.7999 15.7096L47.9055 17.4985C48.1238 17.6076 48.3225 17.8064 48.3225 18.4398H50.3225ZM44.9929 31.6408C41.9224 31.6408 39.3131 30.6769 37.1133 28.7534L35.7968 30.259C38.3768 32.5149 41.4594 33.6408 44.9929 33.6408V31.6408ZM37.1109 28.7513C34.7764 26.7231 33.6277 24.2096 33.6277 21.1414H31.6277C31.6277 24.7928 33.0305 27.8557 35.7992 30.2611L37.1109 28.7513ZM33.6277 21.1414C33.6277 18.0381 34.7134 15.5616 36.8789 13.6262L35.5462 12.135C32.9318 14.4715 31.6277 17.5021 31.6277 21.1414H33.6277ZM36.8809 13.6244C39.0697 11.6577 41.7744 10.6594 45.0622 10.6594V8.6594C41.3303 8.6594 38.1352 9.80858 35.5442 12.1368L36.8809 13.6244ZM45.0622 10.6594C48.3559 10.6594 51.0634 11.6385 53.2516 13.5623L54.5722 12.0603C51.9804 9.78162 48.7882 8.6594 45.0622 8.6594V10.6594ZM53.2536 13.5641C55.4029 15.4435 56.5034 17.9575 56.5141 21.214L58.5141 21.2074C58.5017 17.4442 57.2007 14.3587 54.5701 12.0585L53.2536 13.5641ZM56.5141 21.2158C56.5247 23.2851 56.0025 25.0783 54.9675 26.6308L56.6316 27.7402C57.9057 25.829 58.5265 23.6391 58.5141 21.2056L56.5141 21.2158ZM54.9675 26.6308C53.9141 28.211 52.5098 29.4342 50.7348 30.3057L51.6163 32.101C53.6975 31.0791 55.3759 29.6237 56.6316 27.7402L54.9675 26.6308ZM50.7348 30.3057C48.9452 31.1844 47.0336 31.63 44.9877 31.6408L44.9982 33.6408C47.3396 33.6284 49.5497 33.1157 51.6163 32.101L50.7348 30.3057ZM71.2302 32V33H72.2302V32H71.2302ZM60.9431 32H59.9431V33H60.9431V32ZM60.9431 10.4734V9.47336H59.9431V10.4734H60.9431ZM66.6235 10.4734L67.4284 9.88002L67.1287 9.47336H66.6235V10.4734ZM69.1 13.8331L68.2951 14.4264L69.1091 15.5308L69.9113 14.4178L69.1 13.8331ZM72.9273 10.7851L72.5111 9.87582L72.5087 9.87694L72.9273 10.7851ZM83.7166 11.7376L83.044 12.4775L83.0468 12.4801L83.7166 11.7376ZM86.02 32V33H87.02V32H86.02ZM75.6636 32H74.6636V33H75.6636V32ZM72.6156 15.3269C71.8304 15.3269 71.1516 15.6733 70.7267 16.3584C70.3508 16.9646 70.2302 17.7454 70.2302 18.561H72.2302C72.2302 17.8872 72.3404 17.551 72.4264 17.4125C72.4603 17.3578 72.4811 17.3484 72.4829 17.3474C72.4871 17.3452 72.5211 17.3269 72.6156 17.3269V15.3269ZM70.2302 18.561V32H72.2302V18.561H70.2302ZM71.2302 31H60.9431V33H71.2302V31ZM61.9431 32V10.4734H59.9431V32H61.9431ZM60.9431 11.4734H66.6235V9.47336H60.9431V11.4734ZM65.8185 11.0667L68.2951 14.4264L69.905 13.2398L67.4284 9.88002L65.8185 11.0667ZM69.9113 14.4178C70.7211 13.2941 71.8532 12.3814 73.346 11.6932L72.5087 9.87694C70.7457 10.6897 69.3261 11.809 68.2887 13.2484L69.9113 14.4178ZM73.3436 11.6944C74.8865 10.9881 76.2735 10.6594 77.5167 10.6594V8.6594C75.9197 8.6594 74.2472 9.08115 72.5111 9.87582L73.3436 11.6944ZM77.5167 10.6594C79.946 10.6594 81.7493 11.3006 83.044 12.4775L84.3893 10.9977C82.636 9.4037 80.3059 8.6594 77.5167 8.6594V10.6594ZM83.0468 12.4801C84.3441 13.6506 85.02 15.2249 85.02 17.3141H87.02C87.02 14.7389 86.1603 12.5955 84.3865 10.9951L83.0468 12.4801ZM85.02 17.3141V32H87.02V17.3141H85.02ZM86.02 31H75.6636V33H86.02V31ZM76.6636 32V21.609H74.6636V32H76.6636ZM76.6636 21.609C76.6636 19.7849 76.4063 18.2541 75.7678 17.1477C75.0813 15.9579 73.9891 15.3269 72.6156 15.3269V17.3269C73.2741 17.3269 73.706 17.5763 74.0355 18.1473C74.413 18.8015 74.6636 19.9117 74.6636 21.609H76.6636ZM92.4624 30.095L91.7784 30.8245L91.7833 30.8291L92.4624 30.095ZM90.2456 26.8391L89.3211 27.2203L89.3252 27.2301L90.2456 26.8391ZM89.882 18.6649L88.9171 18.4022L88.9167 18.4035L89.882 18.6649ZM93.0339 13.1057L93.741 13.8128L93.7466 13.8072L93.7521 13.8015L93.0339 13.1057ZM95.4238 11.2354L95.9249 12.1008L95.9277 12.0991L95.4238 11.2354ZM106.404 11.651L107.065 10.9006L107.063 10.8995L106.404 11.651ZM107.668 13.1231L106.828 13.6656L107.523 14.7423L108.398 13.8059L107.668 13.1231ZM110.144 10.4734V9.47336H109.71L109.414 9.79053L110.144 10.4734ZM115.825 10.4734H116.825V9.47336H115.825V10.4734ZM115.825 32V33H116.825V32H115.825ZM110.144 32L109.322 32.5684L109.62 33H110.144V32ZM107.668 28.4151L108.491 27.8467L107.66 26.6443L106.84 27.8541L107.668 28.4151ZM99.0607 32.6235L99.0577 31.6234L99.0498 31.6235L99.0607 32.6235ZM95.6489 32L95.9813 31.0568L95.9761 31.055L95.6489 32ZM106.49 17.0024H107.49V16.428L106.994 16.1386L106.49 17.0024ZM103.165 17.2621L103.702 18.1058L103.706 18.1033L103.165 17.2621ZM101.451 18.8035L100.675 18.1718L100.673 18.1741L101.451 18.8035ZM100.689 25.2112L100.134 26.0433L100.138 26.0458L100.689 25.2112ZM103.321 25.0554L103.702 25.9801L103.706 25.9782L103.321 25.0554ZM106.49 23.133L107.138 23.895L107.49 23.5955V23.133H106.49ZM93.1463 29.3655C92.3357 28.6055 91.6723 27.6401 91.166 26.4482L89.3252 27.2301C89.9273 28.6475 90.7418 29.8527 91.7784 30.8245L93.1463 29.3655ZM91.1702 26.458C90.6804 25.2701 90.4317 23.9861 90.4317 22.5962H88.4317C88.4317 24.2311 88.7256 25.7758 89.3211 27.2203L91.1702 26.458ZM90.4317 22.5962C90.4317 21.1458 90.576 19.9275 90.8472 18.9263L88.9167 18.4035C88.5875 19.6191 88.4317 21.0216 88.4317 22.5962H90.4317ZM90.8468 18.9276C91.4051 16.8772 92.3726 15.1812 93.741 13.8128L92.3268 12.3986C90.6933 14.0321 89.5596 16.0423 88.9171 18.4022L90.8468 18.9276ZM93.7521 13.8015C94.4047 13.1279 95.1284 12.5619 95.9248 12.1008L94.9228 10.3699C93.9643 10.9249 93.0947 11.6057 92.3156 12.4099L93.7521 13.8015ZM95.9277 12.0991C97.5829 11.1336 99.3092 10.6594 101.122 10.6594V8.6594C98.9392 8.6594 96.867 9.23581 94.9199 10.3716L95.9277 12.0991ZM101.122 10.6594C102.887 10.6594 104.414 11.2346 105.744 12.4025L107.063 10.8995C105.369 9.41191 103.374 8.6594 101.122 8.6594V10.6594ZM105.743 12.4014C106.157 12.7666 106.519 13.1869 106.828 13.6656L108.508 12.5805C108.101 11.9508 107.62 11.3898 107.065 10.9006L105.743 12.4014ZM108.398 13.8059L110.875 11.1562L109.414 9.79053L106.937 12.4402L108.398 13.8059ZM110.144 11.4734H115.825V9.47336H110.144V11.4734ZM114.825 10.4734V32H116.825V10.4734H114.825ZM115.825 31H110.144V33H115.825V31ZM110.967 31.4316L108.491 27.8467L106.845 28.9835L109.322 32.5684L110.967 31.4316ZM106.84 27.8541C105.16 30.333 102.625 31.6127 99.0577 31.6235L99.0637 33.6235C103.185 33.6111 106.389 32.0853 108.496 28.9761L106.84 27.8541ZM99.0498 31.6235C98.1261 31.6336 97.1058 31.4531 95.9813 31.0568L95.3166 32.9432C96.6166 33.4013 97.8708 33.6365 99.0715 33.6234L99.0498 31.6235ZM95.9761 31.055C94.9046 30.6841 93.9626 30.1204 93.1414 29.3609L91.7833 30.8291C92.8095 31.7783 93.9918 32.4846 95.3218 32.945L95.9761 31.055ZM106.994 16.1386C106.398 15.7906 105.72 15.6387 105.001 15.6387V17.6387C105.436 17.6387 105.752 17.7292 105.986 17.8661L106.994 16.1386ZM105.001 15.6387C104.178 15.6387 103.38 15.9352 102.624 16.421L103.706 18.1033C104.243 17.7578 104.669 17.6387 105.001 17.6387V15.6387ZM102.628 16.4185C101.897 16.8838 101.246 17.4711 100.675 18.1718L102.226 19.4351C102.671 18.8889 103.163 18.4486 103.702 18.1058L102.628 16.4185ZM100.673 18.1741C99.4342 19.7043 98.7534 21.3397 98.7534 23.0638H100.753C100.753 21.9015 101.204 20.6967 102.228 19.4328L100.673 18.1741ZM98.7534 23.0638C98.7534 24.283 99.1385 25.3797 100.134 26.0433L101.243 24.3792C100.992 24.2115 100.753 23.8765 100.753 23.0638H98.7534ZM100.138 26.0458C101.158 26.7191 102.466 26.489 103.702 25.98L102.94 24.1307C101.821 24.5916 101.374 24.4654 101.239 24.3766L100.138 26.0458ZM103.706 25.9782C104.985 25.4445 106.131 24.751 107.138 23.895L105.843 22.3711C105.002 23.0852 104.036 23.6733 102.936 24.1326L103.706 25.9782ZM107.49 23.133V17.0024H105.49V23.133H107.49ZM136.243 30.4414L136.805 31.2687L137.243 30.9711V30.4414H136.243ZM123.289 30.5972L122.616 31.3369L122.619 31.3397L123.289 30.5972ZM120.986 15.9633H121.986V14.9633H120.986V15.9633ZM119.011 15.9633H118.011V16.9633H119.011V15.9633ZM119.011 10.4734V9.47336H118.011V10.4734H119.011ZM120.986 10.4734V11.4734H121.986V10.4734H120.986ZM120.986 4.65441L120.884 3.65957L119.986 3.75123V4.65441H120.986ZM131.342 3.59799H132.342V2.4908L131.24 2.60316L131.342 3.59799ZM131.342 10.4734H130.342V11.4734H131.342V10.4734ZM136.243 10.4734H137.243V9.47336H136.243V10.4734ZM136.243 15.9633V16.9633H137.243V15.9633H136.243ZM131.342 15.9633V14.9633H130.342V15.9633H131.342ZM132.433 24.9515L131.72 25.653L131.726 25.6586L131.732 25.6641L132.433 24.9515ZM136.243 26.0425H137.243V25.0425H136.243V26.0425ZM135.681 29.614C133.64 31.0001 131.507 31.6754 129.264 31.6754V33.6754C131.939 33.6754 134.459 32.8613 136.805 31.2687L135.681 29.614ZM129.264 31.6754C127.016 31.6754 125.278 31.0448 123.959 29.8548L122.619 31.3397C124.371 32.9205 126.617 33.6754 129.264 33.6754V31.6754ZM123.962 29.8575C122.664 28.6765 121.986 27.0843 121.986 24.9688H119.986C119.986 27.5638 120.843 29.7239 122.616 31.3369L123.962 29.8575ZM121.986 24.9688V15.9633H119.986V24.9688H121.986ZM120.986 14.9633H119.011V16.9633H120.986V14.9633ZM120.011 15.9633V10.4734H118.011V15.9633H120.011ZM119.011 11.4734H120.986V9.47336H119.011V11.4734ZM121.986 10.4734V4.65441H119.986V10.4734H121.986ZM121.087 5.64925L131.443 4.59283L131.24 2.60316L120.884 3.65957L121.087 5.64925ZM130.342 3.59799V10.4734H132.342V3.59799H130.342ZM131.342 11.4734H136.243V9.47336H131.342V11.4734ZM135.243 10.4734V15.9633H137.243V10.4734H135.243ZM136.243 14.9633H131.342V16.9633H136.243V14.9633ZM130.342 15.9633V21.4012H132.342V15.9633H130.342ZM130.342 21.4012C130.342 23.1468 130.728 24.6444 131.72 25.653L133.146 24.2499C132.684 23.7807 132.342 22.9114 132.342 21.4012H130.342ZM131.732 25.6641C132.755 26.6716 134.359 27.0425 136.243 27.0425V25.0425C134.525 25.0425 133.589 24.6861 133.135 24.2388L131.732 25.6641ZM135.243 26.0425V30.4414H137.243V26.0425H135.243ZM144.279 22.4749L144.279 23.475L144.286 23.4749L144.279 22.4749ZM147.933 23.8431L147.185 24.5069L147.194 24.5167L147.933 23.8431ZM147.656 30.9955L148.389 31.6751L148.393 31.6713L147.656 30.9955ZM143.603 32.6235L143.61 31.6235H143.603V32.6235ZM139.863 31.2899L139.118 31.9579L139.123 31.9626L139.863 31.2899ZM144.286 23.4749C145.709 23.4647 146.612 23.8609 147.185 24.5069L148.681 23.1793C147.615 21.978 146.082 21.462 144.272 21.475L144.286 23.4749ZM147.194 24.5167C147.838 25.2232 148.18 26.1169 148.18 27.2721H150.18C150.18 25.6795 149.691 24.2871 148.672 23.1695L147.194 24.5167ZM148.18 27.2721C148.18 28.3713 147.783 29.377 146.919 30.3198L148.393 31.6713C149.561 30.3974 150.18 28.9207 150.18 27.2721H148.18ZM146.922 30.316C146.122 31.1794 145.055 31.6334 143.61 31.6235L143.596 33.6234C145.523 33.6366 147.157 33.0054 148.389 31.6751L146.922 30.316ZM143.603 31.6235C142.083 31.6235 141.155 31.2247 140.603 30.6173L139.123 31.9626C140.187 33.1332 141.753 33.6235 143.603 33.6235V31.6235ZM140.607 30.622C139.983 29.9267 139.65 29.048 139.65 27.9129H137.65C137.65 29.4794 138.126 30.8521 139.118 31.9579L140.607 30.622ZM139.65 27.9129C139.65 26.844 140.061 25.8352 140.986 24.8605L139.536 23.4838C138.313 24.772 137.65 26.257 137.65 27.9129H139.65ZM140.986 24.8605C141.865 23.9344 142.939 23.4749 144.279 23.4749V21.4749C142.409 21.4749 140.804 22.147 139.536 23.4838L140.986 24.8605Z" fill="#FED900"/>
<g filter="url(#filter1_i_801_986)">
<path d="M153.561 4.41195C159.288 3.84622 163.617 3.56336 166.55 3.56336C169.483 3.56336 171.803 3.77695 173.512 4.20413C175.232 4.63132 176.647 5.29519 177.755 6.19574C179.902 7.95066 180.976 10.8313 180.976 14.8376C180.976 16.6387 180.636 18.2897 179.954 19.7906C179.273 21.2915 178.344 22.5788 177.166 23.6526C175.988 24.7263 174.609 25.5634 173.027 26.1637C171.445 26.7641 169.754 27.0643 167.953 27.0643L164.87 26.995V32H153.561V4.41195ZM169.165 10.7504C168.172 10.7504 166.717 11.4374 164.801 12.8113V19.3403L166.827 18.3532C168.166 17.6951 169.102 17.0659 169.633 16.4655C170.626 15.3456 171.122 14.2314 171.122 13.1231C171.122 12.0147 170.747 11.2815 169.996 10.9236C169.754 10.8082 169.477 10.7504 169.165 10.7504ZM198.779 16.604C198.548 16.4886 198.248 16.4309 197.879 16.4309C197.521 16.4309 197.123 16.5405 196.684 16.7599C196.245 16.9677 195.812 17.2564 195.385 17.6258C194.484 18.4109 193.728 19.3634 193.116 20.4833C192.504 21.6032 192.198 22.6366 192.198 23.5833C192.198 24.5185 192.556 25.1477 193.272 25.471C193.526 25.5865 193.838 25.6442 194.207 25.6442C194.577 25.6442 194.964 25.5345 195.368 25.3151C195.772 25.0842 196.176 24.7783 196.58 24.3973C197.423 23.6006 198.162 22.6366 198.797 21.5051C199.432 20.3621 199.749 19.3403 199.749 18.4398C199.749 17.5392 199.426 16.9273 198.779 16.604ZM195.42 32.6408C192.118 32.6408 189.272 31.5959 186.882 29.5062C184.33 27.2894 183.054 24.5012 183.054 21.1414C183.054 17.7701 184.249 15.0165 186.639 12.8806C189.029 10.7331 191.979 9.6594 195.489 9.6594C198.999 9.6594 201.949 10.71 204.339 12.8113C206.728 14.9011 207.929 17.7009 207.941 21.2107C207.952 23.4621 207.381 25.4537 206.226 27.1855C205.072 28.9173 203.53 30.2566 201.602 31.2034C199.674 32.1501 197.613 32.6292 195.42 32.6408ZM226.281 16.604C226.05 16.4886 225.75 16.4309 225.38 16.4309C225.022 16.4309 224.624 16.5405 224.185 16.7599C223.747 16.9677 223.314 17.2564 222.886 17.6258C221.986 18.4109 221.23 19.3634 220.618 20.4833C220.006 21.6032 219.7 22.6366 219.7 23.5833C219.7 24.5185 220.058 25.1477 220.774 25.471C221.028 25.5865 221.339 25.6442 221.709 25.6442C222.078 25.6442 222.465 25.5345 222.869 25.3151C223.273 25.0842 223.677 24.7783 224.081 24.3973C224.924 23.6006 225.663 22.6366 226.298 21.5051C226.933 20.3621 227.251 19.3403 227.251 18.4398C227.251 17.5392 226.927 16.9273 226.281 16.604ZM222.921 32.6408C219.619 32.6408 216.773 31.5959 214.383 29.5062C211.832 27.2894 210.556 24.5012 210.556 21.1414C210.556 17.7701 211.751 15.0165 214.141 12.8806C216.531 10.7331 219.481 9.6594 222.99 9.6594C226.5 9.6594 229.45 10.71 231.84 12.8113C234.23 14.9011 235.431 17.7009 235.442 21.2107C235.454 23.4621 234.882 25.4537 233.728 27.1855C232.573 28.9173 231.032 30.2566 229.104 31.2034C227.176 32.1501 225.115 32.6292 222.921 32.6408ZM248.725 32H238.906V2.85331H248.725V32Z" fill="#FF6B95"/>
</g>
<path d="M153.561 4.41195L153.463 3.4168L152.561 3.50588V4.41195H153.561ZM173.512 4.20413L173.269 5.17428L173.271 5.17466L173.512 4.20413ZM177.755 6.19574L178.388 5.42141L178.386 5.41962L177.755 6.19574ZM167.953 27.0643L167.93 28.064L167.942 28.0643H167.953V27.0643ZM164.87 26.995L164.893 25.9953L163.87 25.9723V26.995H164.87ZM164.87 32V33H165.87V32H164.87ZM153.561 32H152.561V33H153.561V32ZM164.801 12.8113L164.218 11.9986L163.801 12.2978V12.8113H164.801ZM164.801 19.3403H163.801V20.9399L165.239 20.2393L164.801 19.3403ZM166.827 18.3532L167.265 19.2522L167.268 19.2507L166.827 18.3532ZM169.633 16.4655L168.884 15.8021L168.884 15.8029L169.633 16.4655ZM169.996 10.9236L170.427 10.021L170.426 10.0208L169.996 10.9236ZM153.66 5.40711C159.378 4.84216 163.668 4.56336 166.55 4.56336V2.56336C163.567 2.56336 159.198 2.85028 153.463 3.4168L153.66 5.40711ZM166.55 4.56336C169.447 4.56336 171.675 4.77568 173.269 5.17428L173.755 3.23399C171.931 2.77822 169.518 2.56336 166.55 2.56336V4.56336ZM173.271 5.17466C174.882 5.57477 176.154 6.18349 177.124 6.97185L178.386 5.41962C177.139 4.40688 175.582 3.68787 173.753 3.23361L173.271 5.17466ZM177.122 6.97007C178.948 8.46211 179.976 10.9931 179.976 14.8376H181.976C181.976 10.6694 180.857 7.43921 178.388 5.42141L177.122 6.97007ZM179.976 14.8376C179.976 16.5095 179.661 18.0179 179.044 19.3773L180.865 20.2039C181.61 18.5615 181.976 16.7679 181.976 14.8376H179.976ZM179.044 19.3773C178.417 20.7591 177.566 21.9344 176.492 22.9136L177.84 24.3915C179.121 23.2233 180.13 21.824 180.865 20.2039L179.044 19.3773ZM176.492 22.9136C175.413 23.8974 174.144 24.6703 172.672 25.2288L173.382 27.0987C175.074 26.4564 176.564 25.5552 177.84 24.3915L176.492 22.9136ZM172.672 25.2288C171.211 25.7834 169.641 26.0643 167.953 26.0643V28.0643C169.867 28.0643 171.68 27.7448 173.382 27.0987L172.672 25.2288ZM167.975 26.0645L164.893 25.9953L164.848 27.9948L167.93 28.064L167.975 26.0645ZM163.87 26.995V32H165.87V26.995H163.87ZM164.87 31H153.561V33H164.87V31ZM154.561 32V4.41195H152.561V32H154.561ZM169.165 9.75045C168.457 9.75045 167.69 9.98948 166.902 10.3614C166.102 10.7395 165.205 11.2911 164.218 11.9986L165.384 13.6241C166.313 12.9576 167.102 12.4788 167.756 12.1699C168.423 11.8549 168.88 11.7504 169.165 11.7504V9.75045ZM163.801 12.8113V19.3403H165.801V12.8113H163.801ZM165.239 20.2393L167.265 19.2522L166.389 17.4542L164.363 18.4413L165.239 20.2393ZM167.268 19.2507C168.641 18.576 169.719 17.8774 170.382 17.1281L168.884 15.8029C168.484 16.2543 167.692 16.8142 166.386 17.4557L167.268 19.2507ZM170.381 17.1289C171.479 15.8908 172.122 14.5504 172.122 13.1231H170.122C170.122 13.9124 169.773 14.8003 168.884 15.8021L170.381 17.1289ZM172.122 13.1231C172.122 11.7807 171.644 10.6014 170.427 10.021L169.566 11.8262C169.85 11.9617 170.122 12.2487 170.122 13.1231H172.122ZM170.426 10.0208C170.03 9.83185 169.602 9.75045 169.165 9.75045V11.7504C169.352 11.7504 169.478 11.7845 169.566 11.8265L170.426 10.0208ZM196.684 16.7599L197.112 17.6636L197.122 17.6591L197.131 17.6543L196.684 16.7599ZM195.385 17.6258L194.731 16.8694L194.728 16.872L195.385 17.6258ZM193.272 25.471L193.686 24.5606L193.684 24.5596L193.272 25.471ZM195.368 25.3151L195.845 26.194L195.854 26.1888L195.864 26.1834L195.368 25.3151ZM196.58 24.3973L197.266 25.1249L197.267 25.124L196.58 24.3973ZM198.797 21.5051L199.669 21.9945L199.671 21.9908L198.797 21.5051ZM195.42 32.6408L195.42 33.6408L195.425 33.6408L195.42 32.6408ZM186.882 29.5062L187.54 28.7534L187.538 28.7513L186.882 29.5062ZM186.639 12.8806L187.306 13.6262L187.308 13.6244L186.639 12.8806ZM204.339 12.8113L203.678 13.5623L203.68 13.5641L204.339 12.8113ZM207.941 21.2107L206.941 21.214L206.941 21.2158L207.941 21.2107ZM199.227 15.7096C198.81 15.5014 198.341 15.4309 197.879 15.4309V17.4309C198.155 17.4309 198.287 17.4758 198.332 17.4985L199.227 15.7096ZM197.879 15.4309C197.319 15.4309 196.766 15.601 196.237 15.8655L197.131 17.6543C197.48 17.48 197.723 17.4309 197.879 17.4309V15.4309ZM196.256 15.8562C195.723 16.1084 195.216 16.4503 194.731 16.8695L196.039 18.3822C196.409 18.0624 196.767 17.8271 197.112 17.6636L196.256 15.8562ZM194.728 16.872C193.732 17.74 192.903 18.7873 192.239 20.0038L193.994 20.9628C194.553 19.9395 195.237 19.0818 196.042 18.3796L194.728 16.872ZM192.239 20.0038C191.573 21.2218 191.198 22.4208 191.198 23.5833H193.198C193.198 22.8523 193.435 21.9847 193.994 20.9628L192.239 20.0038ZM191.198 23.5833C191.198 24.1749 191.311 24.748 191.598 25.251C191.89 25.7654 192.327 26.1415 192.861 26.3824L193.684 24.5596C193.501 24.4773 193.401 24.3771 193.336 24.2622C193.264 24.1361 193.198 23.9269 193.198 23.5833H191.198ZM192.858 26.3814C193.277 26.5718 193.739 26.6442 194.207 26.6442V24.6442C193.937 24.6442 193.775 24.6012 193.686 24.5606L192.858 26.3814ZM194.207 26.6442C194.779 26.6442 195.329 26.4737 195.845 26.194L194.891 24.4363C194.598 24.5953 194.374 24.6442 194.207 24.6442V26.6442ZM195.864 26.1834C196.348 25.9066 196.815 25.55 197.266 25.1249L195.894 23.6697C195.537 24.0065 195.195 24.2619 194.872 24.4469L195.864 26.1834ZM197.267 25.124C198.191 24.2504 198.99 23.2037 199.669 21.9945L197.925 21.0157C197.333 22.0695 196.654 22.9509 195.893 23.6705L197.267 25.124ZM199.671 21.9908C200.354 20.7619 200.749 19.5699 200.749 18.4398H198.749C198.749 19.1107 198.51 19.9623 197.923 21.0195L199.671 21.9908ZM200.749 18.4398C200.749 17.272 200.301 16.247 199.227 15.7096L198.332 17.4985C198.55 17.6076 198.749 17.8064 198.749 18.4398H200.749ZM195.42 31.6408C192.349 31.6408 189.74 30.6769 187.54 28.7534L186.223 30.259C188.803 32.5149 191.886 33.6408 195.42 33.6408V31.6408ZM187.538 28.7513C185.203 26.7231 184.054 24.2096 184.054 21.1414H182.054C182.054 24.7928 183.457 27.8557 186.226 30.2611L187.538 28.7513ZM184.054 21.1414C184.054 18.0381 185.14 15.5616 187.306 13.6262L185.973 12.135C183.359 14.4715 182.054 17.5021 182.054 21.1414H184.054ZM187.308 13.6244C189.496 11.6577 192.201 10.6594 195.489 10.6594V8.6594C191.757 8.6594 188.562 9.80858 185.971 12.1368L187.308 13.6244ZM195.489 10.6594C198.783 10.6594 201.49 11.6385 203.678 13.5623L204.999 12.0603C202.407 9.78162 199.215 8.6594 195.489 8.6594V10.6594ZM203.68 13.5641C205.83 15.4435 206.93 17.9575 206.941 21.214L208.941 21.2074C208.928 17.4442 207.627 14.3587 204.997 12.0585L203.68 13.5641ZM206.941 21.2158C206.951 23.2851 206.429 25.0783 205.394 26.6308L207.058 27.7402C208.332 25.829 208.953 23.6391 208.941 21.2056L206.941 21.2158ZM205.394 26.6308C204.341 28.211 202.937 29.4342 201.162 30.3057L202.043 32.101C204.124 31.0791 205.803 29.6237 207.058 27.7402L205.394 26.6308ZM201.162 30.3057C199.372 31.1844 197.46 31.63 195.414 31.6408L195.425 33.6408C197.766 33.6284 199.976 33.1157 202.043 32.101L201.162 30.3057ZM224.185 16.7599L224.613 17.6636L224.623 17.6591L224.633 17.6543L224.185 16.7599ZM222.886 17.6258L222.232 16.8694L222.229 16.872L222.886 17.6258ZM220.774 25.471L221.187 24.5606L221.185 24.5596L220.774 25.471ZM222.869 25.3151L223.346 26.194L223.356 26.1888L223.365 26.1834L222.869 25.3151ZM224.081 24.3973L224.767 25.1249L224.768 25.124L224.081 24.3973ZM226.298 21.5051L227.17 21.9945L227.172 21.9908L226.298 21.5051ZM222.921 32.6408L222.921 33.6408L222.926 33.6408L222.921 32.6408ZM214.383 29.5062L215.041 28.7534L215.039 28.7513L214.383 29.5062ZM214.141 12.8806L214.807 13.6262L214.809 13.6244L214.141 12.8806ZM231.84 12.8113L231.18 13.5623L231.182 13.5641L231.84 12.8113ZM235.442 21.2107L234.442 21.214L234.442 21.2158L235.442 21.2107ZM226.728 15.7096C226.312 15.5014 225.843 15.4309 225.38 15.4309V17.4309C225.657 17.4309 225.788 17.4758 225.834 17.4985L226.728 15.7096ZM225.38 15.4309C224.821 15.4309 224.267 15.601 223.738 15.8655L224.633 17.6543C224.981 17.48 225.224 17.4309 225.38 17.4309V15.4309ZM223.757 15.8562C223.225 16.1084 222.717 16.4503 222.232 16.8695L223.541 18.3822C223.91 18.0624 224.268 17.8271 224.613 17.6636L223.757 15.8562ZM222.229 16.872C221.234 17.74 220.405 18.7873 219.74 20.0038L221.495 20.9628C222.054 19.9395 222.738 19.0818 223.544 18.3796L222.229 16.872ZM219.74 20.0038C219.075 21.2218 218.7 22.4208 218.7 23.5833H220.7C220.7 22.8523 220.937 21.9847 221.495 20.9628L219.74 20.0038ZM218.7 23.5833C218.7 24.1749 218.813 24.748 219.099 25.251C219.392 25.7654 219.829 26.1415 220.362 26.3824L221.185 24.5596C221.003 24.4773 220.903 24.3771 220.838 24.2622C220.766 24.1361 220.7 23.9269 220.7 23.5833H218.7ZM220.36 26.3814C220.779 26.5718 221.241 26.6442 221.709 26.6442V24.6442C221.438 24.6442 221.277 24.6012 221.187 24.5606L220.36 26.3814ZM221.709 26.6442C222.281 26.6442 222.831 26.4737 223.346 26.194L222.392 24.4363C222.099 24.5953 221.876 24.6442 221.709 24.6442V26.6442ZM223.365 26.1834C223.85 25.9066 224.317 25.55 224.767 25.1249L223.395 23.6697C223.038 24.0065 222.697 24.2619 222.373 24.4469L223.365 26.1834ZM224.768 25.124C225.693 24.2504 226.492 23.2037 227.17 21.9945L225.426 21.0157C224.835 22.0695 224.156 22.9509 223.394 23.6705L224.768 25.124ZM227.172 21.9908C227.855 20.7619 228.251 19.5699 228.251 18.4398H226.251C226.251 19.1107 226.011 19.9623 225.424 21.0195L227.172 21.9908ZM228.251 18.4398C228.251 17.272 227.803 16.247 226.728 15.7096L225.834 17.4985C226.052 17.6076 226.251 17.8064 226.251 18.4398H228.251ZM222.921 31.6408C219.851 31.6408 217.241 30.6769 215.041 28.7534L213.725 30.259C216.305 32.5149 219.388 33.6408 222.921 33.6408V31.6408ZM215.039 28.7513C212.705 26.7231 211.556 24.2096 211.556 21.1414H209.556C209.556 24.7928 210.959 27.8557 213.727 30.2611L215.039 28.7513ZM211.556 21.1414C211.556 18.0381 212.642 15.5616 214.807 13.6262L213.474 12.135C210.86 14.4715 209.556 17.5021 209.556 21.1414H211.556ZM214.809 13.6244C216.998 11.6577 219.703 10.6594 222.99 10.6594V8.6594C219.258 8.6594 216.063 9.80858 213.472 12.1368L214.809 13.6244ZM222.99 10.6594C226.284 10.6594 228.992 11.6385 231.18 13.5623L232.5 12.0603C229.909 9.78162 226.716 8.6594 222.99 8.6594V10.6594ZM231.182 13.5641C233.331 15.4435 234.432 17.9575 234.442 21.214L236.442 21.2074C236.43 17.4442 235.129 14.3587 232.498 12.0585L231.182 13.5641ZM234.442 21.2158C234.453 23.2851 233.931 25.0783 232.896 26.6308L234.56 27.7402C235.834 25.829 236.455 23.6391 236.442 21.2056L234.442 21.2158ZM232.896 26.6308C231.842 28.211 230.438 29.4342 228.663 30.3057L229.544 32.101C231.626 31.0791 233.304 29.6237 234.56 27.7402L232.896 26.6308ZM228.663 30.3057C226.873 31.1844 224.962 31.63 222.916 31.6408L222.926 33.6408C225.268 33.6284 227.478 33.1157 229.544 32.101L228.663 30.3057ZM248.725 32V33H249.725V32H248.725ZM238.906 32H237.906V33H238.906V32ZM238.906 2.85331V1.85331H237.906V2.85331H238.906ZM248.725 2.85331H249.725V1.85331H248.725V2.85331ZM248.725 31H238.906V33H248.725V31ZM239.906 32V2.85331H237.906V32H239.906ZM238.906 3.85331H248.725V1.85331H238.906V3.85331ZM247.725 2.85331V32H249.725V2.85331H247.725Z" fill="#FED900"/>
<defs>
<filter id="filter0_i_801_986" x="2.13013" y="3.56348" width="147.05" height="30.0008" filterUnits="userSpaceOnUse" color-interpolation-filters="sRGB">
<feFlood flood-opacity="0" result="BackgroundImageFix"/>
<feBlend mode="normal" in="SourceGraphic" in2="BackgroundImageFix" result="shape"/>
<feColorMatrix in="SourceAlpha" type="matrix" values="0 0 0 0 0 0 0 0 0 0 0 0 0 0 0 0 0 0 127 0" result="hardAlpha"/>
<feOffset dy="5.33409"/>
<feGaussianBlur stdDeviation="0.444507"/>
<feComposite in2="hardAlpha" operator="arithmetic" k2="-1" k3="1"/>
<feColorMatrix type="matrix" values="0 0 0 0 1 0 0 0 0 1 0 0 0 0 1 0 0 0 0.5 0"/>
<feBlend mode="normal" in2="shape" result="effect1_innerShadow_801_986"/>
</filter>
<filter id="filter1_i_801_986" x="153.561" y="2.85327" width="95.1641" height="30.6766" filterUnits="userSpaceOnUse" color-interpolation-filters="sRGB">
<feFlood flood-opacity="0" result="BackgroundImageFix"/>
<feBlend mode="normal" in="SourceGraphic" in2="BackgroundImageFix" result="shape"/>
<feColorMatrix in="SourceAlpha" type="matrix" values="0 0 0 0 0 0 0 0 0 0 0 0 0 0 0 0 0 0 127 0" result="hardAlpha"/>
<feOffset dy="5.33409"/>
<feGaussianBlur stdDeviation="0.444507"/>
<feComposite in2="hardAlpha" operator="arithmetic" k2="-1" k3="1"/>
<feColorMatrix type="matrix" values="0 0 0 0 1 0 0 0 0 1 0 0 0 0 1 0 0 0 0.5 0"/>
<feBlend mode="normal" in2="shape" result="effect1_innerShadow_801_986"/>
</filter>
</defs>
</svg>
