<svg viewBox="0 0 510 82" fill="none" xmlns="http://www.w3.org/2000/svg">
<g filter="url(#filter0_i_826_10839)">
<path d="M0 4.21875C15.5 2.6875 27.2188 1.92188 35.1562 1.92188C43.0938 1.92188 49.375 2.5 54 3.65625C58.6562 4.8125 62.4844 6.60938 65.4844 9.04688C71.2969 13.7969 74.2031 21.5938 74.2031 32.4375C74.2031 37.3125 73.2812 41.7812 71.4375 45.8438C69.5938 49.9062 67.0781 53.3906 63.8906 56.2969C60.7031 59.2031 56.9688 61.4688 52.6875 63.0938C48.4062 64.7188 43.8281 65.5312 38.9531 65.5312L30.6094 65.3438V78.8906H0V4.21875ZM42.2344 21.375C39.5469 21.375 35.6094 23.2344 30.4219 26.9531V44.625L35.9062 41.9531C39.5312 40.1719 42.0625 38.4688 43.5 36.8438C46.1875 33.8125 47.5312 30.7969 47.5312 27.7969C47.5312 24.7969 46.5156 22.8125 44.4844 21.8438C43.8281 21.5312 43.0781 21.375 42.2344 21.375Z" fill="#4757E6"/>
<path d="M108.703 78.8906H82.125V0H108.703V78.8906Z" fill="#4757E6"/>
<path d="M147.75 47.7656C147.75 58.0156 150.234 63.1406 155.203 63.1406C157.703 63.1406 159.156 61.9219 159.562 59.4844C159.688 58.7344 159.75 57.9062 159.75 57V20.625H187.594V78.8906H172.219L165.516 69.75C161.547 75.1562 155.812 78.6719 148.312 80.2969C139.125 82.2656 131.719 80.7031 126.094 75.6094C121.844 71.7656 119.719 66.6875 119.719 60.375V20.625H147.75V47.7656Z" fill="#4757E6"/>
<path d="M242.906 74.6719C236.969 78.7031 230.672 80.7188 224.016 80.7188C217.391 80.7188 212 78.8438 207.844 75.0938C203.688 71.3125 201.609 66.2344 201.609 59.8594V35.4844H196.266V20.625H201.609V4.875L229.641 2.01562V20.625H242.906V35.4844H229.641V50.2031C229.641 54.6094 230.625 57.8125 232.594 59.8125C234.594 61.7812 238.031 62.7656 242.906 62.7656V74.6719Z" fill="#4757E6"/>
<path d="M258 73.7344C255.5 71.3906 253.5 68.4531 252 64.9219C250.531 61.3594 249.797 57.5312 249.797 53.4375C249.797 49.3438 250.203 45.7969 251.016 42.7969C252.641 36.8281 255.484 31.8125 259.547 27.75C261.484 25.75 263.641 24.0625 266.016 22.6875C270.891 19.8438 276.031 18.4219 281.438 18.4219C286.875 18.4219 291.641 20.2188 295.734 23.8125C297.047 24.9688 298.188 26.2969 299.156 27.7969L305.859 20.625H321.234V78.8906H305.859L299.156 69.1875C294.031 76.75 286.266 80.5469 275.859 80.5781C272.984 80.6094 269.906 80.0469 266.625 78.8906C263.375 77.7656 260.5 76.0469 258 73.7344ZM295.969 38.2969C294.844 37.6406 293.5 37.3125 291.938 37.3125C290.375 37.3125 288.719 37.875 286.969 39C285.25 40.0938 283.703 41.4844 282.328 43.1719C279.266 46.9531 277.734 50.7969 277.734 54.7031C277.734 57.4531 278.578 59.3906 280.266 60.5156C281.828 61.5469 284.203 61.4062 287.391 60.0938C290.609 58.75 293.469 57.0156 295.969 54.8906V38.2969Z" fill="#4757E6"/>
<path d="M374.109 42.6094C371.234 42.6094 368.281 43.6562 365.25 45.75C362.219 47.8438 360.688 49.8281 360.656 51.7031V78.8906H332.438V20.625H360.656V26.8594C362.25 24.4531 364.219 22.5312 366.562 21.0938C368.938 19.6562 371.453 18.7969 374.109 18.5156V42.6094Z" fill="#4757E6"/>
<path d="M416.016 61.125C419.172 61.125 423.734 58.8906 429.703 54.4219V77.3438C419.453 81.2188 410 81.7656 401.344 78.9844C392.688 76.2031 386.547 71.2344 382.922 64.0781C381.109 60.4531 380.203 56.2031 380.203 51.3281C380.203 41.5156 383.578 33.5625 390.328 27.4688C397.078 21.375 405.859 18.3281 416.672 18.3281C421.141 18.3281 425.172 19 428.766 20.3438V38.3906C427.922 37.6719 426.734 37.3125 425.203 37.3125C423.672 37.3125 422.031 37.7969 420.281 38.7656C418.531 39.7344 416.938 41.0312 415.5 42.6562C412.188 46.4062 410.531 50.2656 410.531 54.2344C410.562 58.1719 411.766 60.3906 414.141 60.8906C414.766 61.0156 415.391 61.0938 416.016 61.125Z" fill="#4757E6"/>
<path d="M468.562 26.8594C472.781 21.2344 479.172 18.4219 487.734 18.4219C490.172 18.4219 492.766 18.9844 495.516 20.1094C498.266 21.2344 500.656 22.8594 502.688 24.9844C507.062 29.5156 509.25 35.5156 509.25 42.9844V78.8906H481.219V53.625C481.219 48.5938 480.406 44.4688 478.781 41.25C477.156 38 475.25 36.375 473.062 36.375C470.062 36.375 468.562 38.4219 468.562 42.5156V78.8906H440.719V0H468.562V26.8594Z" fill="#4757E6"/>
</g>
<defs>
<filter id="filter0_i_826_10839" x="0" y="0" width="509.25" height="85.1201" filterUnits="userSpaceOnUse" color-interpolation-filters="sRGB">
<feFlood flood-opacity="0" result="BackgroundImageFix"/>
<feBlend mode="normal" in="SourceGraphic" in2="BackgroundImageFix" result="shape"/>
<feColorMatrix in="SourceAlpha" type="matrix" values="0 0 0 0 0 0 0 0 0 0 0 0 0 0 0 0 0 0 127 0" result="hardAlpha"/>
<feOffset dy="6"/>
<feGaussianBlur stdDeviation="2"/>
<feComposite in2="hardAlpha" operator="arithmetic" k2="-1" k3="1"/>
<feColorMatrix type="matrix" values="0 0 0 0 1 0 0 0 0 1 0 0 0 0 1 0 0 0 0.5 0"/>
<feBlend mode="normal" in2="shape" result="effect1_innerShadow_826_10839"/>
</filter>
</defs>
</svg>
