<svg width="410" height="80" viewBox="0 0 410 80" fill="none" xmlns="http://www.w3.org/2000/svg">
<g filter="url(#filter0_i_1371_4885)">
<path d="M47.4375 26.7227C47.4375 22.3164 45.7969 20.1133 42.5156 20.1133C41.1094 20.1133 39.1562 20.6289 36.6562 21.6602L30.4219 24.2383V42.5664C41.7656 38.3477 47.4375 33.0664 47.4375 26.7227ZM75.2812 27.5195C75.2812 37.5195 70.3438 45.457 60.4688 51.332L80.8125 77.9102H43.7812L30.6094 56.207V77.9102H0V3.05078C19.8125 1.64453 32.7969 0.941406 38.9531 0.941406C45.1094 0.941406 49.7969 1.31641 53.0156 2.06641C61.8906 4.09766 68.2344 8.44141 72.0469 15.0977C74.1719 18.9102 75.25 23.0508 75.2812 27.5195Z" fill="#29DEA8"/>
<path d="M123.891 36.332C123.891 33.582 122.609 32.207 120.047 32.207C117.109 32.4883 115.203 34.0039 114.328 36.7539C113.891 38.0664 113.578 39.5977 113.391 41.3477C113.234 43.0664 112.984 44.9102 112.641 46.8789L122.906 44.582L123.797 37.4102L123.891 36.332ZM117.562 57.6602C117.562 57.6602 116.703 57.6602 114.984 57.6602C114.172 57.6602 113.391 57.6289 112.641 57.5664C112.641 61.2852 114.625 63.3164 118.594 63.6602C119.688 63.7539 120.75 63.8008 121.781 63.8008C124.438 63.8008 127.766 63.1914 131.766 61.9727C135.797 60.7539 139.406 58.7695 142.594 56.0195L145.5 70.5977C138.531 76.6289 128 79.6445 113.906 79.6445C105.812 79.6445 98.8594 77.2852 93.0469 72.5664C86.7344 67.4102 83.5781 60.2695 83.5781 51.1445C83.5781 44.2695 85.3594 38.0977 88.9219 32.6289C92.2344 27.6289 96.7188 23.832 102.375 21.2383C108.031 18.6445 114.141 17.3477 120.703 17.3477C129.203 17.3477 135.625 19.207 139.969 22.9258C144.344 26.6445 146.516 31.2383 146.484 36.707C146.484 42.1758 143.875 47.0352 138.656 51.2852C133.438 55.5352 126.406 57.6602 117.562 57.6602Z" fill="#29DEA8"/>
<path d="M160.781 72.7539C158.281 70.4102 156.281 67.4727 154.781 63.9414C153.312 60.3789 152.578 56.5508 152.578 52.457C152.578 48.3633 152.984 44.8164 153.797 41.8164C155.422 35.8477 158.266 30.832 162.328 26.7695C164.266 24.7695 166.422 23.082 168.797 21.707C173.672 18.8633 178.812 17.4414 184.219 17.4414C189.656 17.4414 194.422 19.2383 198.516 22.832C199.828 23.9883 200.969 25.3164 201.938 26.8164L208.641 19.6445H224.016V77.9102H208.641L201.938 68.207C196.812 75.7695 189.047 79.5664 178.641 79.5977C175.766 79.6289 172.688 79.0664 169.406 77.9102C166.156 76.7852 163.281 75.0664 160.781 72.7539ZM198.75 37.3164C197.625 36.6602 196.281 36.332 194.719 36.332C193.156 36.332 191.5 36.8945 189.75 38.0195C188.031 39.1133 186.484 40.5039 185.109 42.1914C182.047 45.9727 180.516 49.8164 180.516 53.7227C180.516 56.4727 181.359 58.4102 183.047 59.5352C184.609 60.5664 186.984 60.4258 190.172 59.1133C193.391 57.7695 196.25 56.0352 198.75 53.9102V37.3164Z" fill="#29DEA8"/>
<path d="M268.828 60.1445C271.984 60.1445 276.547 57.9102 282.516 53.4414V76.3633C272.266 80.2383 262.812 80.7852 254.156 78.0039C245.5 75.2227 239.359 70.2539 235.734 63.0977C233.922 59.4727 233.016 55.2227 233.016 50.3477C233.016 40.5352 236.391 32.582 243.141 26.4883C249.891 20.3945 258.672 17.3477 269.484 17.3477C273.953 17.3477 277.984 18.0195 281.578 19.3633V37.4102C280.734 36.6914 279.547 36.332 278.016 36.332C276.484 36.332 274.844 36.8164 273.094 37.7852C271.344 38.7539 269.75 40.0508 268.312 41.6758C265 45.4258 263.344 49.2852 263.344 53.2539C263.375 57.1914 264.578 59.4102 266.953 59.9102C267.578 60.0352 268.203 60.1133 268.828 60.1445Z" fill="#29DEA8"/>
<path d="M337.594 73.6914C331.656 77.7227 325.359 79.7383 318.703 79.7383C312.078 79.7383 306.688 77.8633 302.531 74.1133C298.375 70.332 296.297 65.2539 296.297 58.8789V34.5039H290.953V19.6445H296.297V3.89453L324.328 1.03516V19.6445H337.594V34.5039H324.328V49.2227C324.328 53.6289 325.312 56.832 327.281 58.832C329.281 60.8008 332.719 61.7852 337.594 61.7852V73.6914Z" fill="#29DEA8"/>
</g>
<path d="M358.133 38.7061H402.508M402.508 38.7061L393.133 30.1123M402.508 38.7061L393.133 47.2998" stroke="#29DEA8" stroke-width="6" stroke-linecap="round" stroke-linejoin="round"/>
<defs>
<filter id="filter0_i_1371_4885" x="0" y="0.941406" width="337.594" height="82.8057" filterUnits="userSpaceOnUse" color-interpolation-filters="sRGB">
<feFlood flood-opacity="0" result="BackgroundImageFix"/>
<feBlend mode="normal" in="SourceGraphic" in2="BackgroundImageFix" result="shape"/>
<feColorMatrix in="SourceAlpha" type="matrix" values="0 0 0 0 0 0 0 0 0 0 0 0 0 0 0 0 0 0 127 0" result="hardAlpha"/>
<feOffset dy="6"/>
<feGaussianBlur stdDeviation="2"/>
<feComposite in2="hardAlpha" operator="arithmetic" k2="-1" k3="1"/>
<feColorMatrix type="matrix" values="0 0 0 0 1 0 0 0 0 1 0 0 0 0 1 0 0 0 0.5 0"/>
<feBlend mode="normal" in2="shape" result="effect1_innerShadow_1371_4885"/>
</filter>
</defs>
</svg>
