<svg width="140" height="140" viewBox="0 0 140 140" fill="none" xmlns="http://www.w3.org/2000/svg">
<path fill-rule="evenodd" clip-rule="evenodd" d="M70.5153 0.352783C108.871 0.352783 139.96 31.556 139.96 70.0257C139.96 108.524 108.871 139.699 70.5153 139.699C32.1595 139.699 1.07031 108.524 1.07031 70.0257C1.07031 46.6028 12.5956 25.8738 30.269 13.2415C30.8996 10.0903 32.1609 10.0903 34.2471 10.5995C44.8027 4.10047 57.2226 0.352783 70.5153 0.352783Z" fill="white"/>
<path fill-rule="evenodd" clip-rule="evenodd" d="M17.8806 111.085C26.2882 113.748 33.187 110.745 37.9295 111.085C54.5462 112.168 47.6306 128.102 67.4277 126.495C104.001 117.371 134.239 83.4024 126.651 43.8472C123.74 28.6739 116.831 20.9811 113.483 18.261C114.069 28.2065 105.913 35.9132 114.878 55.1811C116.915 62.3781 112.757 72.4448 109.409 75.7033C89.8254 94.8009 58.3865 94.878 38.7748 78.8405C31.4379 72.8903 26.4722 69.8868 28.8713 56.3995C29.6524 52.0359 33.221 45.0082 33.472 40.588C33.6123 38.2705 33.9732 41.0346 33.472 38.0798C18.0377 36.8257 3.65234 52.4176 3.65234 70.0609C3.65234 91.1986 10.6553 99.9216 17.8806 111.085Z" fill="#FFC5CF"/>
<path d="M114.457 22.5217C113.217 18.2609 110.411 13.062 110.411 13.062C110.411 13.062 128.848 29.3333 134.49 41.8431C138.023 50.3065 139.961 59.6532 139.961 69.4558C139.961 81.5382 136.997 92.9366 131.754 102.882C125.77 105.674 119.444 102.568 114.457 106.729C110.81 109.749 109.727 116.36 106.621 119.979C101.919 125.479 97.1599 122.516 89.8649 124.425C84.5077 125.85 81.2306 129.868 77.0987 132.717C63.8195 141.921 56.0401 127.274 51.1388 120.977C40.8802 107.84 36.2923 116.161 20.5625 118.64C16.4347 113.826 11.5653 106.522 13.2415 100.901C16.9745 103.922 19.4301 106.204 33.4217 103.012C36.9267 102.214 41.2221 103.206 44.8411 104.774C84.9728 122.206 135.4 95.6104 125.286 43.6384C124.032 37.1983 117.877 25.2288 114.457 22.5217Z" fill="#FF6B95"/>
<path d="M31.4739 14.9272L32.1401 14.451L32.3008 13.6481C32.4366 12.9695 32.5801 12.6056 32.6785 12.4268C32.6795 12.4251 32.6804 12.4234 32.6813 12.4218C32.6943 12.4221 32.7086 12.4227 32.7243 12.4235C32.9423 12.4351 33.2556 12.4904 33.7558 12.6125L34.5965 12.8177L35.3335 12.364C45.5721 6.06007 57.6175 2.42486 70.5153 2.42486C107.72 2.42486 137.888 32.6937 137.888 70.0257C137.888 107.386 107.721 137.627 70.5153 137.627C33.31 137.627 3.14238 107.386 3.14238 70.0257C3.14238 47.2984 14.3227 27.1863 31.4739 14.9272Z" stroke="#FFC5CF" stroke-width="4.14414"/>
<path d="M27.3094 12.661L27.3104 12.6475C27.4401 10.9608 28.0306 9.22731 29.5424 8.11569C31.0404 7.01422 32.8763 6.94237 34.5568 7.28569L34.5695 7.2883L34.5822 7.29103C38.2607 8.08356 43.2868 9.67983 47.9032 11.8401C51.8058 13.6663 55.7813 16.0606 58.2557 18.9721C58.702 18.877 59.1521 18.7789 59.6073 18.6798L59.6087 18.6795C62.3265 18.0876 65.2272 17.4558 68.5896 17.1556C72.9851 16.7631 78.2178 16.9142 85.381 18.2368C91.5852 12.4017 100.307 10.7946 106.435 10.5766C106.567 10.5719 106.729 10.5635 106.917 10.5537C108.153 10.4894 110.498 10.3674 112.581 10.8799C113.83 11.187 115.231 11.7701 116.331 12.9241C117.483 14.1336 118.087 15.7423 118.087 17.6523C118.087 21.4979 117.468 27.8914 117.104 31.6491L117.104 31.6495C116.989 32.8413 116.899 33.7679 116.863 34.264C116.742 35.9189 116.559 37.346 116.408 38.5241L116.408 38.5267C116.349 38.9808 116.296 39.3979 116.252 39.7768C116.091 41.1869 116.051 42.1894 116.227 43.2336C116.483 44.7504 116.834 46.3757 117.217 48.1409L117.257 48.3241C118.379 53.5003 119.745 59.7956 118.822 65.9678C117.895 72.1649 114.702 78.0843 107.351 82.8533C106.683 86.1588 105.28 88.7872 103.369 90.7902C101.26 93.0016 98.6454 94.334 96.0124 95.048C91.1189 96.375 85.7583 95.6664 82.5289 94.0153L82.5269 94.0159C82.4741 94.0333 82.3828 94.0703 82.2243 94.1545C82.0581 94.2427 81.8756 94.351 81.6086 94.5105L81.591 94.521L81.591 94.521C80.7192 95.0417 79.4582 95.7947 77.5189 96.3102C75.5901 96.8229 73.1142 97.0721 69.7349 96.818L69.6363 96.8106L69.5387 96.7952C67.8341 96.5267 66.1706 95.7924 64.9395 95.249L64.9394 95.249C64.5997 95.099 64.293 94.9636 64.0274 94.8565C62.6175 94.2881 61.7491 94.1543 60.8256 94.4867C56.9373 95.8909 51.6147 96.1324 46.9312 94.936C42.273 93.7461 37.5773 90.9256 36.1367 85.6249L36.1337 85.6137L36.1308 85.6024C36.0645 85.3493 36.0057 85.1125 35.9503 84.8893C35.5623 83.3277 35.3406 82.435 33.9218 81.3068L33.912 81.2989C26.6824 75.4887 23.4295 70.0592 22.989 63.9171C22.5773 58.1766 24.6992 52.1633 27.0683 45.4498L27.1976 45.0834L27.2994 44.7948C28.1391 42.4174 28.4202 41.1105 28.4817 40.1547C28.5414 39.2261 28.4097 38.4992 28.1298 37.0796L28.1293 37.077C27.8695 35.7599 27.5322 34.049 27.3126 31.4852C26.7269 25.0367 26.906 18.7977 27.3085 12.6746L27.3094 12.661Z" fill="#FF6B95"/>
<path fill-rule="evenodd" clip-rule="evenodd" d="M31.4172 44.0087C30.3343 48.3971 24.5496 61.6762 28.4536 69.0567C29.5934 71.8209 36.8884 76.2377 40.1655 76.2947C41.3906 75.4783 48.695 72.3407 55.9993 77.9131C58.7634 80.0218 58.46 81.8515 60.6542 85.271C69.203 86.8098 73.7054 86.5818 82.1402 85.4135C84.3914 81.1676 84.8473 81.5095 88.3524 78.7169C96.3313 71.8208 103.834 77.9131 106.521 76.2947C118.489 69.0852 116.563 60.2514 113.087 48.796C112.318 46.2029 111.121 40.8741 111.406 37.5116C112.004 30.3875 114.142 24.6883 111.406 14.5049C101.119 13.536 91.439 16.3965 84.1634 24.6883C70.2288 19.958 63.2758 22.5226 57.5766 24.3179C52.34 18.2884 42.9536 13.8554 35.9436 10.7208C33.1229 9.45981 29.6372 9.12187 29.6372 17.0271C28.4974 26.6588 32.728 36.1723 31.4172 44.0087Z" fill="#FED900"/>
<path fill-rule="evenodd" clip-rule="evenodd" d="M29.7375 12.8342C29.3386 18.9039 29.1676 25.002 29.7375 31.2712C29.9457 33.7057 30.263 35.3153 30.518 36.6085C31.0659 39.3869 31.3257 40.7044 29.595 45.6047L29.4932 45.8933C24.5387 59.938 21.5967 68.2781 35.4367 79.401C37.5261 81.0625 37.9254 82.7017 38.3241 84.3383C38.3767 84.5543 38.4293 84.7703 38.4858 84.9863C40.7085 93.1646 53.2183 94.6465 60.0003 92.1958C62.2285 91.3936 64.1334 92.2306 66.1334 93.1095C67.3306 93.6355 68.5618 94.1766 69.917 94.39C76.2621 94.8672 78.6936 93.415 80.3597 92.42C81.3798 91.8108 82.1129 91.373 83.2816 91.6544C88.3539 94.5895 103.172 94.9314 105.138 81.3673C119.978 72.3702 117.132 59.2425 114.837 48.6567C114.457 46.9042 114.092 45.2214 113.825 43.6385C113.359 40.8727 114.109 38.5517 114.434 34.087C114.601 31.7977 115.652 22.6105 115.652 17.6522C115.652 12.1739 108.956 12.9232 106.521 13.0098C100.293 13.2313 91.7654 14.9459 86.1882 20.8701C72.9868 18.2594 66.5974 19.6507 60.2491 21.0331C59.2525 21.2501 58.257 21.4669 57.2362 21.668C53.4747 15.8263 41.0789 11.1814 34.0689 9.67114C31.4188 9.12971 29.937 10.2411 29.7375 12.8342ZM57.2647 25.6574C53.4747 19.0463 39.5402 13.1477 33.9264 11.3809C32.6726 10.982 30.8204 10.8395 30.8204 13.4896C30.7634 19.2743 30.8773 28.3076 32.4161 37.8823C32.9264 41.0504 31.7708 44.4407 30.9027 46.9877C30.6074 47.8541 30.3453 48.6229 30.1934 49.2522C30.0349 49.8946 29.8373 50.5938 29.6255 51.3434C28.3903 55.7141 26.6712 61.7971 29.3955 68.3161C30.9058 71.5646 36.89 76.238 40.1671 76.295C46.1512 71.0517 61.0262 76.124 60.6558 85.2712C69.2046 86.81 73.707 86.5821 82.1418 85.4137C84.8204 74.1008 98.1281 72.391 104.625 75.5826C113.915 69.9973 114.485 59.9952 112.889 51.2184C112.672 50.0052 112.423 48.9986 112.186 48.0384C111.521 45.3448 110.945 43.0157 111.407 37.5118C111.512 36.2465 111.648 34.908 111.789 33.5304C112.375 27.7721 113.031 21.3316 111.721 16.7097C111.157 14.7373 109.786 14.7709 107.496 14.827L107.418 14.8289C98.3276 15.0569 90.8331 17.5361 84.393 25.8569C74.4479 23.2353 68.7201 22.5229 57.2647 25.6574Z" fill="#FF6B95"/>
<path fill-rule="evenodd" clip-rule="evenodd" d="M56.3525 138.758C72.1108 141.295 89.237 138.901 103.884 131.549C115.653 124.966 125.37 114.964 131.753 102.882C125.769 105.674 119.443 102.568 114.456 106.729C110.809 109.749 109.726 116.36 106.62 119.979C101.918 125.479 97.1589 122.516 89.8639 124.425C84.5066 125.85 81.2296 127.433 77.0976 130.282C63.8185 139.487 56.039 127.274 51.1377 120.977C40.9361 107.926 34.5815 114.48 18.9941 116.93C28.6828 127.844 41.677 135.652 56.3525 138.758Z" fill="#FED900"/>
<path fill-rule="evenodd" clip-rule="evenodd" d="M94.823 30.7011C98.157 31.442 102.346 33.0093 105.851 36.0584C106.848 36.9133 108.188 36.8278 108.786 35.403C110.439 31.4135 111.18 24.717 110.41 19.5022C110.268 18.4763 109.584 18.7043 108.843 18.8753C104.398 19.9296 96.6467 25.9993 94.481 28.9914C93.9966 29.6753 94.196 30.5587 94.823 30.7011Z" fill="#FF6B95"/>
<path fill-rule="evenodd" clip-rule="evenodd" d="M39.2268 34.8899C42.4754 31.4703 45.5529 29.6751 49.3429 28.5068C50.7962 28.0508 51.2522 27.3954 50.1978 26.1986C47.2342 22.779 40.1672 19.217 35.9213 17.0228C33.9265 16.0255 32.9577 16.8519 33.1287 18.4191C33.4136 21.3257 33.7271 29.6466 37.2606 34.7189C37.802 35.4883 38.3719 35.8017 39.2268 34.8899Z" fill="#FF6B95"/>
<path fill-rule="evenodd" clip-rule="evenodd" d="M86.5588 83.8957C85.8073 86.8049 88.6253 88.6357 91.4165 88.8363C96.6769 89.2125 102.394 86.3786 102.259 81.4128C102.206 79.8078 101.454 78.3281 99.1729 78.0271C94.503 77.4252 87.7665 79.1808 86.5588 83.8957Z" fill="#FED900"/>
<path fill-rule="evenodd" clip-rule="evenodd" d="M55.7548 82.234C53.9473 79.6002 51.0993 78.4606 47.8131 78.0554C41.0215 77.245 39.9809 80.056 40.2 82.4366C40.2821 83.5508 40.556 84.5132 40.9668 85.3236C42.5277 88.4892 46.2247 90.4392 51.0719 90.034C56.3025 89.6035 59.1231 87.2483 55.7548 82.234Z" fill="#FED900"/>
<path d="M65.5254 59.0417C67.5408 59.4354 69.8263 58.4806 70.6859 56.0244C71.4296 58.7016 73.9685 59.7534 76.0867 59.1403" stroke="black" stroke-width="2.5" stroke-linecap="round" stroke-linejoin="bevel"/>
<path d="M42.6094 87.277C42.9798 85.9092 43.8062 84.6839 44.7181 84" stroke="#FF6B95" stroke-width="2.5" stroke-linecap="round" stroke-linejoin="round"/>
<path d="M51.1309 89.7973C51.6153 88.686 51.7863 87.4607 51.6723 86.4348" stroke="#FF6B95" stroke-width="2.5" stroke-linecap="round" stroke-linejoin="round"/>
<path d="M92.0889 89.6025C91.3765 88.4056 91.063 86.9523 91.2055 85.8125" stroke="#FF6B95" stroke-width="2.5" stroke-linecap="round" stroke-linejoin="round"/>
<path d="M100.379 85.5845C99.9513 84.4447 99.1819 83.4758 98.3555 82.8489" stroke="#FF6B95" stroke-width="2.5" stroke-linecap="round" stroke-linejoin="round"/>
<path d="M44.4107 60.8694C43.357 62.4483 42.6407 63.6027 42.4153 65.1912" stroke="#FF6B95" stroke-width="2.5" stroke-linecap="round" stroke-linejoin="bevel"/>
<path d="M41.9637 57.1325C39.9937 57.5968 38.6542 58.4665 37.7383 59.3303" stroke="#FF6B95" stroke-width="2.5" stroke-linecap="round" stroke-linejoin="bevel"/>
<path d="M100.086 60.8696C101.043 62.4843 101.699 63.702 101.815 65.3023" stroke="#FF6B95" stroke-width="2.5" stroke-linecap="round" stroke-linejoin="bevel"/>
<path d="M101.098 56.212C103.047 56.8148 104.316 57.7554 105.193 58.6391" stroke="#FF6B95" stroke-width="2.5" stroke-linecap="round" stroke-linejoin="bevel"/>
<path d="M57.197 54.9544C56.2836 55.3562 55.078 55.6005 53.7564 55.6005C52.256 55.6005 50.905 55.2856 49.9614 54.7827C49.8373 55.4512 49.9447 56.1184 50.3159 56.7287C51.2484 58.2755 53.4243 58.8704 55.2202 58.097C56.6013 57.4794 57.3493 56.2109 57.197 54.9544Z" fill="black"/>
<path d="M91.2903 55.0461C90.3915 55.4144 89.2303 55.6364 87.9625 55.6364C86.4159 55.6364 85.0281 55.3061 84.0817 54.7827H84.0584C83.9203 55.4582 84.0239 56.1336 84.4038 56.7504C85.3363 58.2775 87.5121 58.8648 89.3081 58.1013C90.6716 57.4993 91.4179 56.271 91.2903 55.0461Z" fill="black"/>
<path d="M30.4604 90.0869C30.1672 96.244 32.5372 99.4935 33.7589 100.349" stroke="white" stroke-width="4" stroke-linecap="square"/>
<path d="M22.356 71.5518C20.5235 69.7153 16.8301 69.3186 15.3926 69.7153" stroke="white" stroke-width="4" stroke-linecap="square"/>
<path d="M120.18 89.3984C118.348 87.562 114.654 87.1653 113.217 87.562" stroke="white" stroke-width="4" stroke-linecap="square"/>
<path d="M85.2518 115.879C83.6327 111.913 77.0359 112.646 77.0359 108.902" stroke="white" stroke-width="4" stroke-linecap="square"/>
</svg>
