<svg width="140" height="140" viewBox="0 0 140 140" fill="none" xmlns="http://www.w3.org/2000/svg">
<path fill-rule="evenodd" clip-rule="evenodd" d="M70.5149 0.352783C108.871 0.352783 139.96 31.556 139.96 70.0257C139.96 108.524 108.871 139.699 70.5149 139.699C32.1592 139.699 1.06995 108.524 1.06995 70.0257C1.06995 46.6028 12.5952 25.8738 30.2686 13.2415C30.8993 10.0903 32.1605 10.0903 34.2467 10.5995C44.8023 4.10047 57.2222 0.352783 70.5149 0.352783Z" fill="white"/>
<path fill-rule="evenodd" clip-rule="evenodd" d="M17.8805 111.085C26.2881 113.748 33.1869 110.745 37.9294 111.085C54.5461 112.168 47.6305 128.102 67.4276 126.495C104.001 117.371 134.239 83.4024 126.651 43.8472C123.74 28.6739 116.831 20.9811 113.483 18.261C114.069 28.2065 105.913 35.9132 114.878 55.1811C116.914 62.3781 112.757 72.4448 109.409 75.7033C89.8253 94.8009 58.3863 94.878 38.7747 78.8405C31.4377 72.8903 26.472 69.8868 28.8712 56.3995C29.6523 52.0359 33.2208 45.0082 33.4719 40.588C33.6121 38.2705 33.9731 41.0346 33.4719 38.0798C18.0375 36.8257 3.65222 52.4176 3.65222 70.0609C3.65222 91.1986 10.6551 99.9216 17.8805 111.085Z" fill="#FFC5CF"/>
<path d="M114.457 22.5217C113.217 18.2609 110.411 13.062 110.411 13.062C110.411 13.062 128.848 29.3333 134.49 41.8431C138.023 50.3065 139.961 59.6532 139.961 69.4558C139.961 81.5382 136.997 92.9366 131.754 102.882C125.77 105.674 119.444 102.568 114.457 106.729C110.81 109.749 109.727 116.36 106.621 119.979C101.919 125.479 97.1599 122.516 89.8649 124.425C84.5077 125.85 81.2306 129.868 77.0987 132.717C63.8195 141.921 56.0401 127.274 51.1388 120.977C40.8802 107.84 36.2923 116.161 20.5625 118.64C16.4347 113.826 11.5653 106.522 13.2415 100.901C16.9745 103.922 19.4301 106.204 33.4217 103.012C36.9267 102.214 41.2221 103.206 44.8411 104.774C84.9728 122.206 135.4 95.6104 125.286 43.6384C124.032 37.1983 117.877 25.2288 114.457 22.5217Z" fill="#FF6B95"/>
<path d="M31.4735 14.9272L32.1397 14.451L32.3004 13.6481C32.4362 12.9695 32.5797 12.6056 32.6782 12.4268C32.6791 12.4251 32.68 12.4234 32.6809 12.4218C32.6939 12.4221 32.7082 12.4227 32.7239 12.4235C32.9419 12.4351 33.2553 12.4904 33.7554 12.6125L34.5961 12.8177L35.3331 12.364C45.5717 6.06007 57.6171 2.42486 70.5149 2.42486C107.72 2.42486 137.888 32.6937 137.888 70.0257C137.888 107.386 107.72 137.627 70.5149 137.627C33.3096 137.627 3.14202 107.386 3.14202 70.0257C3.14202 47.2984 14.3224 27.1863 31.4735 14.9272Z" stroke="#FF6B95" stroke-width="4.14414"/>
<path d="M27.3095 12.661L27.3105 12.6475C27.4403 10.9608 28.0307 9.22731 29.5425 8.11569C31.0405 7.01422 32.8764 6.94237 34.5569 7.28569L34.5696 7.2883L34.5823 7.29103C38.2608 8.08356 43.2869 9.67983 47.9033 11.8401C51.806 13.6663 55.7814 16.0606 58.2559 18.9721C58.7021 18.877 59.1522 18.7789 59.6074 18.6798L59.6088 18.6795C62.3266 18.0876 65.2273 17.4558 68.5897 17.1556C72.9853 16.7631 78.2179 16.9142 85.3811 18.2368C91.5854 12.4017 100.307 10.7946 106.435 10.5766C106.567 10.5719 106.729 10.5635 106.917 10.5537C108.153 10.4894 110.498 10.3674 112.582 10.8799C113.83 11.187 115.231 11.7701 116.331 12.9241C117.483 14.1336 118.087 15.7423 118.087 17.6523C118.087 21.4979 117.468 27.8914 117.104 31.6491L117.104 31.6495C116.989 32.8413 116.899 33.7679 116.863 34.264C116.743 35.9189 116.559 37.346 116.408 38.5241L116.408 38.5267C116.349 38.9808 116.296 39.3979 116.252 39.7768C116.091 41.1869 116.051 42.1894 116.227 43.2336C116.483 44.7504 116.835 46.3757 117.217 48.1409L117.257 48.3241C118.38 53.5003 119.745 59.7956 118.822 65.9678C117.896 72.1649 114.702 78.0843 107.352 82.8533C106.683 86.1588 105.28 88.7872 103.369 90.7902C101.26 93.0016 98.6455 94.334 96.0125 95.048C91.119 96.375 85.7585 95.6664 82.529 94.0153L82.527 94.0159C82.4742 94.0333 82.383 94.0703 82.2244 94.1545C82.0582 94.2427 81.8757 94.351 81.6087 94.5105L81.5912 94.521L81.5911 94.521C80.7193 95.0417 79.4584 95.7947 77.5191 96.3102C75.5903 96.8229 73.1144 97.0721 69.735 96.818L69.6365 96.8106L69.5388 96.7952C67.8342 96.5267 66.1707 95.7924 64.9396 95.249L64.9395 95.249C64.5999 95.099 64.2931 94.9636 64.0275 94.8565C62.6176 94.2881 61.7492 94.1543 60.8257 94.4867C56.9374 95.8909 51.6149 96.1324 46.9313 94.936C42.2731 93.7461 37.5775 90.9256 36.1369 85.6249L36.1338 85.6137L36.1309 85.6024C36.0647 85.3493 36.0058 85.1125 35.9504 84.8893C35.5625 83.3277 35.3407 82.435 33.922 81.3068L33.9121 81.2989C26.6826 75.4887 23.4296 70.0592 22.9891 63.9171C22.5774 58.1766 24.6994 52.1633 27.0685 45.4498L27.1977 45.0834L27.2995 44.7948C28.1392 42.4174 28.4204 41.1105 28.4818 40.1547C28.5415 39.2261 28.4098 38.4992 28.1299 37.0796L28.1294 37.077C27.8697 35.7599 27.5323 34.049 27.3128 31.4852C26.727 25.0367 26.9061 18.7977 27.3086 12.6746L27.3095 12.661Z" fill="#FF6B95"/>
<path fill-rule="evenodd" clip-rule="evenodd" d="M31.4179 44.0087C30.3351 48.3971 24.5504 61.6762 28.4543 69.0567C29.5942 71.8209 36.8892 76.2377 40.1662 76.2947C41.3914 75.4783 48.6957 72.3407 56.0001 77.9131C58.7642 80.0218 58.4607 81.8515 60.6549 85.271C69.2037 86.8098 73.7061 86.5818 82.1409 85.4135C84.3921 81.1676 84.8481 81.5095 88.3531 78.7169C96.332 71.8208 103.835 77.9131 106.522 76.2947C118.49 69.0852 116.564 60.2514 113.088 48.796C112.318 46.2029 111.121 40.8741 111.406 37.5116C112.005 30.3875 114.142 24.6883 111.406 14.5049C101.119 13.536 91.4398 16.3965 84.1642 24.6883C70.2296 19.958 63.2765 22.5226 57.5773 24.3179C52.3407 18.2884 42.9543 13.8554 35.9443 10.7208C33.1236 9.45981 29.638 9.12187 29.638 17.0271C28.4981 26.6588 32.7287 36.1723 31.4179 44.0087Z" fill="#FED900"/>
<path fill-rule="evenodd" clip-rule="evenodd" d="M29.7381 12.8342C29.3392 18.9039 29.1682 25.002 29.7381 31.2712C29.9463 33.7057 30.2637 35.3153 30.5186 36.6085C31.0665 39.3869 31.3263 40.7044 29.5956 45.6047L29.4938 45.8933C24.5393 59.938 21.5973 68.2781 35.4373 79.401C37.5267 81.0625 37.926 82.7017 38.3247 84.3383C38.3773 84.5543 38.4299 84.7703 38.4864 84.9863C40.7091 93.1646 53.2189 94.6465 60.0009 92.1958C62.2292 91.3936 64.134 92.2306 66.134 93.1095C67.3312 93.6355 68.5624 94.1766 69.9176 94.39C76.2627 94.8672 78.6942 93.415 80.3603 92.42C81.3804 91.8108 82.1135 91.373 83.2822 91.6544C88.3546 94.5895 103.173 94.9314 105.139 81.3673C119.979 72.3702 117.133 59.2425 114.838 48.6567C114.458 46.9042 114.093 45.2214 113.826 43.6385C113.359 40.8727 114.109 38.5517 114.435 34.087C114.602 31.7977 115.652 22.6105 115.652 17.6522C115.652 12.1739 108.956 12.9232 106.522 13.0098C100.294 13.2313 91.766 14.9459 86.1889 20.8701C72.9874 18.2594 66.598 19.6507 60.2497 21.0331C59.2531 21.2501 58.2576 21.4669 57.2368 21.668C53.4753 15.8263 41.0796 11.1814 34.0695 9.67114C31.4194 9.12971 29.9376 10.2411 29.7381 12.8342ZM57.2653 25.6574C53.4753 19.0463 39.5408 13.1477 33.927 11.3809C32.6732 10.982 30.821 10.8395 30.821 13.4896C30.764 19.2743 30.878 28.3076 32.4167 37.8823C32.9271 41.0504 31.7715 44.4407 30.9033 46.9877C30.608 47.8541 30.3459 48.6229 30.194 49.2522C30.0355 49.8946 29.8379 50.5938 29.6261 51.3434C28.3909 55.7141 26.6718 61.7971 29.3962 68.3161C30.9065 71.5646 36.8906 76.238 40.1677 76.295C46.1519 71.0517 61.0268 76.124 60.6564 85.2712C69.2052 86.81 73.7076 86.5821 82.1424 85.4137C84.821 74.1008 98.1287 72.391 104.626 75.5826C113.916 69.9973 114.485 59.9952 112.89 51.2184C112.673 50.0052 112.424 48.9986 112.187 48.0384C111.521 45.3448 110.946 43.0157 111.408 37.5118C111.512 36.2465 111.649 34.908 111.789 33.5304C112.376 27.7721 113.032 21.3316 111.721 16.7097C111.158 14.7373 109.786 14.7709 107.497 14.827L107.418 14.8289C98.3282 15.0569 90.8337 17.5361 84.3936 25.8569C74.4485 23.2353 68.7208 22.5229 57.2653 25.6574Z" fill="#FF6B95"/>
<path fill-rule="evenodd" clip-rule="evenodd" d="M56.3521 138.758C72.1105 141.295 89.2366 138.901 103.884 131.549C115.652 124.966 125.37 114.964 131.753 102.882C125.769 105.674 119.442 102.568 114.456 106.729C110.808 109.749 109.725 116.36 106.619 119.979C101.917 125.479 97.1585 122.516 89.8635 124.425C84.5063 125.85 81.2292 127.433 77.0973 130.282C63.8181 139.487 56.0387 127.274 51.1373 120.977C40.9358 107.926 34.5811 114.48 18.9938 116.93C28.6824 127.844 41.6767 135.652 56.3521 138.758Z" fill="#FED900"/>
<path fill-rule="evenodd" clip-rule="evenodd" d="M94.8231 30.7011C98.1571 31.442 102.346 33.0093 105.851 36.0584C106.848 36.9133 108.188 36.8278 108.786 35.403C110.439 31.4135 111.18 24.717 110.41 19.5022C110.268 18.4763 109.584 18.7043 108.843 18.8753C104.398 19.9296 96.6468 25.9993 94.4811 28.9914C93.9967 29.6753 94.1962 30.5587 94.8231 30.7011Z" fill="#FF6B95"/>
<path fill-rule="evenodd" clip-rule="evenodd" d="M39.2262 34.8899C42.4748 31.4703 45.5523 29.6751 49.3423 28.5068C50.7956 28.0508 51.2516 27.3954 50.1972 26.1986C47.2336 22.779 40.1666 19.217 35.9207 17.0228C33.9259 16.0255 32.9571 16.8519 33.128 18.4191C33.413 21.3257 33.7265 29.6466 37.26 34.7189C37.8014 35.4883 38.3713 35.8017 39.2262 34.8899Z" fill="#FF6B95"/>
<path fill-rule="evenodd" clip-rule="evenodd" d="M86.558 83.8957C85.8066 86.8049 88.6246 88.6357 91.4158 88.8363C96.6762 89.2125 102.393 86.3786 102.259 81.4128C102.205 79.8078 101.453 78.3281 99.1722 78.0271C94.5022 77.4252 87.7658 79.1808 86.558 83.8957Z" fill="#FED900"/>
<path fill-rule="evenodd" clip-rule="evenodd" d="M55.7549 82.234C53.9475 79.6002 51.0994 78.4606 47.8132 78.0554C41.0217 77.245 39.981 80.056 40.2001 82.4366C40.2823 83.5508 40.5561 84.5132 40.9669 85.3236C42.5278 88.4892 46.2248 90.4392 51.072 90.034C56.3026 89.6035 59.1233 87.2483 55.7549 82.234Z" fill="#FED900"/>
<path d="M65.5264 59.0417C67.5418 59.4354 69.8272 58.4806 70.6869 56.0244C71.4306 58.7016 73.9695 59.7534 76.0877 59.1403" stroke="black" stroke-width="2.5" stroke-linecap="round" stroke-linejoin="bevel"/>
<path d="M42.6086 87.277C42.9791 85.9092 43.8055 84.6839 44.7174 84" stroke="#FF6B95" stroke-width="2.5" stroke-linecap="round" stroke-linejoin="round"/>
<path d="M51.1305 89.7973C51.6149 88.686 51.7859 87.4607 51.6719 86.4348" stroke="#FF6B95" stroke-width="2.5" stroke-linecap="round" stroke-linejoin="round"/>
<path d="M92.0881 89.6025C91.3757 88.4056 91.0623 86.9523 91.2048 85.8125" stroke="#FF6B95" stroke-width="2.5" stroke-linecap="round" stroke-linejoin="round"/>
<path d="M100.378 85.5845C99.9504 84.4447 99.181 83.4758 98.3546 82.8489" stroke="#FF6B95" stroke-width="2.5" stroke-linecap="round" stroke-linejoin="round"/>
<path d="M44.4114 60.8694C43.3578 62.4483 42.6414 63.6027 42.4161 65.1912" stroke="#FF6B95" stroke-width="2.5" stroke-linecap="round" stroke-linejoin="bevel"/>
<path d="M41.9646 57.1325C39.9945 57.5968 38.655 58.4665 37.7391 59.3303" stroke="#FF6B95" stroke-width="2.5" stroke-linecap="round" stroke-linejoin="bevel"/>
<path d="M100.085 60.8696C101.042 62.4843 101.699 63.702 101.814 65.3023" stroke="#FF6B95" stroke-width="2.5" stroke-linecap="round" stroke-linejoin="bevel"/>
<path d="M101.098 56.212C103.047 56.8148 104.316 57.7554 105.193 58.6391" stroke="#FF6B95" stroke-width="2.5" stroke-linecap="round" stroke-linejoin="bevel"/>
<path d="M57.1979 54.9544C56.2846 55.3562 55.079 55.6005 53.7574 55.6005C52.2569 55.6005 50.9059 55.2856 49.9624 54.7827C49.8382 55.4512 49.9457 56.1184 50.3169 56.7287C51.2494 58.2755 53.4252 58.8704 55.2212 58.097C56.6023 57.4794 57.3503 56.2109 57.1979 54.9544Z" fill="black"/>
<path d="M91.2903 55.0461C90.3915 55.4144 89.2303 55.6364 87.9625 55.6364C86.4159 55.6364 85.0281 55.3061 84.0817 54.7827H84.0584C83.9203 55.4582 84.0239 56.1336 84.4038 56.7504C85.3363 58.2775 87.5121 58.8648 89.3081 58.1013C90.6716 57.4993 91.4179 56.271 91.2903 55.0461Z" fill="black"/>
<path d="M30.4597 90.0869C30.1665 96.244 32.5365 99.4935 33.7581 100.349" stroke="white" stroke-width="4" stroke-linecap="square"/>
<path d="M22.3564 71.5518C20.5239 69.7153 16.8304 69.3186 15.393 69.7153" stroke="white" stroke-width="4" stroke-linecap="square"/>
<path d="M120.181 89.3984C118.348 87.562 114.655 87.1653 113.217 87.562" stroke="white" stroke-width="4" stroke-linecap="square"/>
<path d="M85.252 115.879C83.633 111.913 77.0361 112.646 77.0361 108.902" stroke="white" stroke-width="4" stroke-linecap="square"/>
</svg>
